<?xml version="1.0" encoding="UTF-8" standalone="no"?>
<!-- Created with Inkscape (http://www.inkscape.org/) -->

<svg
   xmlns:dc="http://purl.org/dc/elements/1.1/"
   xmlns:cc="http://creativecommons.org/ns#"
   xmlns:rdf="http://www.w3.org/1999/02/22-rdf-syntax-ns#"
   xmlns:svg="http://www.w3.org/2000/svg"
   xmlns="http://www.w3.org/2000/svg"
   xmlns:sodipodi="http://sodipodi.sourceforge.net/DTD/sodipodi-0.dtd"
   xmlns:inkscape="http://www.inkscape.org/namespaces/inkscape"
   version="1.1"
   id="svg1621"
   width="640"
   height="753.06665"
   viewBox="0 0 640 753.06665"
   sodipodi:docname="Che_Tux_Linux.svg"
   inkscape:version="0.92.2 5c3e80d, 2017-08-06">
  <metadata
     id="metadata1627">
    <rdf:RDF>
      <cc:Work
         rdf:about="">
        <dc:format>image/svg+xml</dc:format>
        <dc:type
           rdf:resource="http://purl.org/dc/dcmitype/StillImage" />
        <dc:title></dc:title>
      </cc:Work>
    </rdf:RDF>
  </metadata>
  <defs
     id="defs1625" />
  <sodipodi:namedview
     pagecolor="#ffffff"
     bordercolor="#666666"
     borderopacity="1"
     objecttolerance="10"
     gridtolerance="10"
     guidetolerance="10"
     inkscape:pageopacity="0"
     inkscape:pageshadow="2"
     inkscape:window-width="1916"
     inkscape:window-height="2120"
     id="namedview1623"
     showgrid="false"
     inkscape:zoom="1.2535411"
     inkscape:cx="321.98859"
     inkscape:cy="416.9681"
     inkscape:window-x="3840"
     inkscape:window-y="0"
     inkscape:window-maximized="0"
     inkscape:current-layer="svg1621" />
  <path
     style="fill:#000000;stroke-width:1.0666666"
     d="m 206.93333,694.90689 c -3.22666,-0.79678 -17.1967,-5.53069 -31.04453,-10.51979 -26.844,-9.67138 -34.60102,-11.8501 -66.71708,-18.73892 -35.463784,-7.60691 -46.452323,-11.54734 -52.432118,-18.80187 -5.432712,-6.59081 -5.842684,-10.64717 -2.684661,-26.56268 3.024553,-15.24284 3.597805,-33.06612 1.510065,-46.95031 -1.662967,-11.05931 -1.451563,-22.54038 0.490396,-26.63276 2.23208,-4.70376 9.283352,-8.33192 21.811265,-11.22278 15.026516,-3.46741 21.371047,-5.32034 25.594153,-7.47481 4.65169,-2.37311 11.70312,-9.82966 18.66404,-19.73631 2.88556,-4.10667 6.8866,-9.50772 8.89119,-12.00232 l 3.64473,-4.53565 -2.26372,-9.02575 c -3.80784,-15.18234 -2.88822,-20.55812 6.32864,-36.99454 10.16679,-18.13048 15.00909,-28.7864 23.99794,-52.80969 15.0602,-40.24938 25.16745,-58.81561 48.35928,-88.83224 12.36177,-15.99953 13.02801,-17.01227 9.62258,-14.62701 -5.00002,3.50215 -8.08508,1.53639 -4.67158,-2.97667 0.86134,-1.1388 1.56608,-3.25694 1.56608,-4.70698 0,-2.24453 -0.64298,-1.73854 -4.32538,3.40387 -4.34672,6.07013 -7.40795,7.74615 -7.40795,4.05583 0,-1.09146 1.17626,-3.71781 2.61392,-5.83632 1.43766,-2.1185 2.27766,-4.05751 1.86666,-4.30891 -0.41098,-0.25141 -3.61265,-0.81354 -7.1148,-1.2492 -4.90523,-0.61018 -7.04865,-1.47319 -9.33334,-3.75788 -5.11604,-5.11604 -3.42665,-9.52987 3.64756,-9.52987 2.22933,0 4.05333,-0.37755 4.05333,-0.83899 0,-0.46143 -2.42154,-2.64682 -5.38118,-4.85639 -5.61232,-4.19 -7.41882,-7.23557 -7.41882,-12.5074 0,-3.95025 1.68031,-3.96692 5.81588,-0.0577 1.78794,1.69007 4.9884,3.38012 7.11213,3.75566 3.55786,0.62913 3.96625,0.42953 5.19608,-2.53952 0.7341,-1.77228 1.66475,-3.22233 2.06811,-3.22233 0.40336,0 1.60152,-0.63479 2.66257,-1.41065 1.77705,-1.29941 1.8003,-1.65689 0.29488,-4.53334 -0.89887,-1.71747 -3.34225,-4.76422 -5.42974,-6.77057 l -3.79543,-3.64789 -7.31503,2.9448 c -6.70769,2.70031 -7.68428,2.83417 -11.76224,1.61238 -5.51272,-1.65165 -5.95572,-4.19473 -0.73071,-4.19473 2.59925,0 4.76371,-0.93568 7.2,-3.1125 l 3.4835,-3.1125 v -14.30422 c 0,-12.26739 -0.30343,-14.86768 -2.13097,-18.26121 -1.85771,-3.44956 -1.92611,-4.08647 -0.53333,-4.96693 0.8787,-0.55548 2.43763,-1.01733 3.4643,-1.02631 1.08506,-0.01 1.86667,-0.8257 1.86667,-1.94931 0,-2.77216 -3.68497,-10.00995 -6.30231,-12.3786 -1.22706,-1.11049 -2.23103,-2.6416 -2.23103,-3.4025 0,-1.8177 7.14923,-6.6738 17.66411,-11.99829 5.31071,-2.68922 10.55216,-6.40867 14.05439,-9.9733 4.88802,-4.97514 5.83774,-6.67929 7.60874,-13.65301 1.96533,-7.73897 1.96695,-8.00799 0.0563,-9.34628 -5.35156,-3.74837 -5.55388,-17.98538 -0.48232,-33.93888 4.67868,-14.717596 9.79062,-23.508765 19.23212,-33.074062 13.90634,-14.088697 29.87252,-20.669517 56.69981,-23.370108 19.9783,-2.011132 29.86273,-2.032619 39.30019,-0.08543 4.10666,0.847308 10.34666,2.042239 13.86666,2.655397 3.52,0.613159 9.58991,2.767624 13.48869,4.787701 4.33118,2.24412 10.59421,4.329742 16.10031,5.361493 14.99768,2.810315 30.36191,8.64595 33.85976,12.860606 0.79645,0.959659 2.9263,2.364365 4.73299,3.121568 5.66503,2.374256 10.09443,6.967218 15.85066,16.435976 5.6264,9.255182 10.00893,14.126374 16.70255,18.564924 2.58817,1.716223 4.43776,4.316897 6.28159,8.832445 4.8306,11.83018 4.40608,43.46116 -0.62105,46.27449 -1.58057,0.88453 -1.57445,1.19177 0.0739,3.70745 2.21293,3.37736 2.3358,7.08473 0.23481,7.08473 -0.85936,0 -2.10382,-1.01153 -2.76548,-2.24785 -0.83372,-1.55783 -1.54393,-1.90694 -2.31359,-1.13727 -1.71666,1.71666 3.9339,10.46247 8.70599,13.47496 4.87824,3.0795 6.46856,6.99666 6.46978,15.93599 4.9e-4,3.57913 0.49129,11.67888 1.09066,17.99946 0.81692,8.6146 0.77353,12.08283 -0.17324,13.8519 -0.69464,1.29797 -1.16102,4.88068 -1.03637,7.96159 0.15469,3.82367 -0.8063,8.82621 -3.02766,15.76085 -1.78991,5.58756 -3.25434,11.11346 -3.25434,12.27979 0,1.17384 -0.71431,2.12057 -1.6,2.12057 -0.88,0 -1.6,0.27626 -1.6,0.6139 0,2.58126 18.58896,31.18244 33.65693,51.78493 32.49933,44.43646 51.69519,81.61466 61.20684,118.54427 7.34388,28.51311 7.06676,45.89524 -1.06649,66.89509 l -3.08738,7.97152 3.12433,3.22848 c 5.20985,5.38353 6.43244,9.8079 6.43244,23.27801 0,11.84441 0.0774,12.2366 3.42884,17.3676 5.37115,8.22321 20.62429,22.69151 32.21688,30.55921 5.81566,3.94698 11.45135,8.50698 12.52374,10.13333 2.39804,3.63674 2.62394,12.9865 0.41689,17.25448 -2.93025,5.66648 -13.07614,13.46145 -30.54223,23.46524 -32.47754,18.60169 -53.33105,33.13208 -72.01857,50.18142 -17.80996,16.24869 -27.43899,19.82445 -51.09222,18.9732 -10.7821,-0.38804 -15.20657,-1.0132 -19.89023,-2.81044 -8.24833,-3.16508 -14.95026,-9.31604 -18.09299,-16.60556 -2.87734,-6.67395 -2.58573,-6.53209 -21.18504,-10.30597 -14.66216,-2.97501 -33.02236,-3.5738 -63.44411,-2.06914 -48.51903,2.39976 -50.28067,2.59071 -59.79481,6.4811 -4.68938,1.91752 -10.38442,4.15802 -12.65563,4.97889 -2.27122,0.82087 -7.75794,4.65704 -12.19273,8.52483 -11.43018,9.9688 -16.46329,12.08783 -28.47779,11.98965 -5.28,-0.0431 -12.24,-0.73035 -15.46667,-1.52714 z m 24.51322,-1.6689 c 5.77091,-1.23764 9.87392,-4.06908 25.8799,-17.85943 4.99293,-4.30179 9.57026,-8.90169 10.17184,-10.22202 1.85373,-4.0685 2.58648,-15.74719 1.43179,-22.82032 -1.51683,-9.29149 -5.18697,-16.75034 -11.99789,-24.38348 -3.1823,-3.56647 -7.49989,-9.30486 -9.59464,-12.75196 -17.42055,-28.66716 -51.42942,-81.45736 -58.79147,-91.25894 -9.88945,-13.16646 -22.89429,-26.26747 -28.29551,-28.50473 -5.13825,-2.12833 -12.12961,-0.68204 -17.86468,3.69564 -2.64239,2.01698 -5.08326,3.66724 -5.42414,3.66724 -0.81634,0 -3.95685,3.68928 -8.08518,9.49795 -1.8364,2.58388 -2.75406,4.3365 -2.03924,3.89471 1.45064,-0.89653 -4.35068,11.10202 -7.5784,15.67401 -1.13897,1.61333 -2.79906,2.93333 -3.68907,2.93333 -1.15597,0 -0.5024,-1.59965 2.28799,-5.6 2.14841,-3.08 2.56547,-3.92 0.92677,-1.86667 -8.56957,10.73795 -16.83932,15.91381 -28.395661,17.77224 l -4.522292,0.72724 3.050862,1.25171 c 2.883691,1.18312 2.663801,1.28785 -4.013015,1.91134 -9.092851,0.8491 -14.022191,2.36108 -19.309069,5.92266 -6.40707,4.31621 -7.86741,8.01913 -6.654081,16.87247 0.548413,4.00163 0.747011,10.39567 0.44133,14.20901 -0.340549,4.24831 0.08918,10.17654 1.109657,15.30803 1.377525,6.9269 1.442651,9.37023 0.376715,14.13333 -0.7088,3.16726 -1.762632,5.75864 -2.341848,5.75864 -0.579217,0 -0.728178,0.52577 -0.331025,1.16837 0.397153,0.64261 0.202627,2.20261 -0.432279,3.46667 -0.634907,1.26406 -1.844141,5.76424 -2.687189,10.0004 -2.055914,10.3306 -0.652492,16.46915 4.824476,21.10219 2.337238,1.97711 2.326385,1.91765 -0.167868,-0.91958 l -2.666666,-3.03334 3.915415,2.29643 c 2.15348,1.26304 4.55348,3.07007 5.333333,4.01561 1.277047,1.54838 1.152982,1.59001 -1.248748,0.41903 -2.553534,-1.24498 -2.576161,-1.22767 -0.533334,0.40806 3.281052,2.62717 20.125921,7.42892 44.799997,12.77054 34.95249,7.56677 38.75799,8.6318 67.12914,18.78718 35.06939,12.55302 42.78031,14.17368 54.98408,11.55644 z m 241.8096,0.0403 c 12.40043,-1.66694 21.28145,-6.26612 32.87952,-17.02715 9.33656,-8.66273 26.76894,-22.1702 39.19766,-30.37234 3.37334,-2.22616 6.13334,-4.27482 6.13334,-4.55257 0,-0.27775 -1.32,0.33943 -2.93334,1.37151 l -2.93333,1.8765 2.66667,-2.94812 c 1.46666,-1.62146 4.54158,-4.14399 6.83313,-5.60562 5.75074,-3.66801 28.59552,-14.32015 27.73896,-12.93422 -0.44927,0.72692 0.10614,0.69708 1.56585,-0.0842 1.24414,-0.66583 2.26206,-1.67372 2.26206,-2.23974 0,-0.56603 0.36,-0.9723 0.8,-0.90283 2.23641,0.35312 3.51109,-0.25813 2.83147,-1.35779 -0.46955,-0.75977 -0.29282,-0.94206 0.46142,-0.47593 2.32139,1.4347 16.13699,-9.1492 18.93567,-14.50629 2.03519,-3.89568 1.94179,-13.62101 -0.15962,-16.62122 -0.91542,-1.30694 -5.82915,-5.13373 -10.91939,-8.504 -10.60139,-7.01921 -29.35642,-24.95053 -34.24039,-32.73658 -3.15742,-5.03359 -3.30944,-5.79175 -3.31512,-16.53333 -0.01,-18.22059 -3.00081,-24.66406 -11.50378,-24.78094 -2.73549,-0.0377 -5.31921,0.60932 -6.42296,1.60819 -1.0156,0.91911 -4.42881,6.49596 -7.58491,12.39301 -3.15611,5.89705 -6.02579,10.78316 -6.37705,10.85803 -0.35127,0.0749 -1.61973,0.2446 -2.81882,0.37715 -1.19907,0.13257 -4.61076,1.98725 -7.58153,4.12154 -8.47477,6.08852 -12.46222,7.34602 -22.97972,7.24703 -13.59137,-0.12794 -17.62123,-1.43083 -26.25972,-8.48999 -4.90708,-4.00989 -7.66555,-8.29419 -7.66555,-11.90563 0,-1.22088 -0.72,-2.49607 -1.6,-2.83376 -2.1647,-0.83068 -2.01193,-2.85855 0.52934,-7.02662 2.74866,-4.50822 2.71076,-8.50952 -0.10475,-11.0575 -1.70881,-1.54645 -4.26345,-2.12081 -10.74148,-2.41498 -9.57064,-0.43464 -17.15521,1.70222 -19.1284,5.38917 -0.65635,1.22639 -0.99619,5.90258 -0.78783,10.84046 0.27558,6.53092 0.0358,8.61762 -0.96692,8.41707 -1.03243,-0.20649 -1.36963,5.33002 -1.49418,24.53333 -0.0884,13.64 -0.0648,26.06825 0.0528,27.61835 0.2704,3.56632 -2.46403,23.67706 -5.85322,43.04831 -5.76151,32.93051 -5.5201,44.96807 1.1787,58.77411 3.84552,7.92551 7.55421,11.39596 15.87908,14.85905 7.87588,3.2763 21.59276,4.30371 34.42626,2.57854 z m -195.4419,-26.82517 c 3.82169,-1.5009 9.71658,-2.3307 21.33333,-3.00303 69.80272,-4.03987 80.20966,-3.98403 102.98575,0.55256 7.33334,1.46068 13.33334,2.6578 13.33334,2.66029 0,0.002 -0.15262,-6.11568 -0.33915,-13.59591 -0.29071,-11.65831 0.19219,-16.72299 3.38172,-35.46711 2.04647,-12.02666 4.03841,-24.74666 4.42651,-28.26666 0.38812,-3.52 0.91538,-7.16653 1.17168,-8.1034 0.25632,-0.93688 -4.463,3.03788 -10.48737,8.83281 -12.40613,11.93362 -20.30218,17.52132 -35.54704,25.15512 -16.96652,8.49593 -29.02317,12.20511 -49.00635,15.07662 -25.76095,3.70176 -43.56402,2.33124 -60.44721,-4.65336 -1.51194,-0.62548 -1.39508,0.20087 0.77468,5.47781 2.19226,5.33166 2.55882,7.9996 2.58054,18.78199 0.0177,8.77973 -0.4545,13.71596 -1.56665,16.37771 -1.48355,3.55063 -1.46538,3.75694 0.26667,3.02932 1.02225,-0.42943 4.23505,-1.71408 7.13955,-2.85476 z M 556.8,638.32492 c 0,-0.29333 -0.96,-0.0195 -2.13333,0.6084 -1.17334,0.62795 -2.13334,1.38173 -2.13334,1.67506 0,0.29333 0.96,0.0195 2.13334,-0.60839 1.17333,-0.62795 2.13333,-1.38173 2.13333,-1.67507 z m 5.33333,-3.2 c 0,-0.29333 -0.96,-0.0195 -2.13333,0.6084 -1.17333,0.62795 -2.13333,1.38173 -2.13333,1.67506 0,0.29333 0.96,0.0195 2.13333,-0.60839 1.17333,-0.62795 2.13333,-1.38173 2.13333,-1.67507 z M 333.86667,624.97354 c 18.62755,-3.1417 30.0783,-6.75786 45.53238,-14.37915 11.33619,-5.59052 15.59578,-8.36552 21.95035,-14.29999 4.33655,-4.04986 8.98824,-9.43286 10.33711,-11.96222 1.45536,-2.72909 4.3801,-5.84594 7.19365,-7.66617 2.60765,-1.68701 5.18638,-4.23827 5.73051,-5.66944 0.54414,-1.43116 1.01041,-13.73088 1.03617,-27.33269 0.0547,-28.89022 0.99722,-39.34231 3.83541,-42.53377 3.23253,-3.63488 9.98109,-6.14786 16.57845,-6.17336 5.45,-0.021 6.28145,-0.33344 8.25147,-3.10009 3.94703,-5.54308 4.64115,-12.5789 4.05429,-41.0953 -0.48087,-23.36661 -0.89883,-28.39491 -3.29483,-39.63872 -4.14843,-19.46749 -8.07085,-30.20661 -19.10449,-52.30578 -5.53332,-11.08262 -11.59562,-24.02324 -13.47181,-28.75695 -3.3023,-8.33189 -3.5116,-8.59203 -6.55329,-8.1456 -1.74576,0.25622 -3.14204,1.11837 -3.14204,1.94008 0,2.13655 -2.33662,1.83386 -9.16898,-1.18773 -7.83483,-3.46494 -11.7434,-3.36242 -20.33531,0.53333 -7.80262,3.53788 -8.24388,3.66751 -7.30326,2.14555 0.37078,-0.59993 -0.0474,-0.78621 -0.96999,-0.43215 -0.89192,0.34226 -1.51685,1.16537 -1.38873,1.82912 0.12812,0.66377 -0.84706,1.37162 -2.16706,1.57301 -3.67553,0.56079 -2.85579,-1.46985 1.50743,-3.73416 2.14909,-1.11528 4.60764,-3.08234 5.46344,-4.37123 1.46041,-2.1995 1.39525,-2.34347 -1.06053,-2.34347 -1.69927,0 -3.11683,0.93483 -4.04368,2.66667 -1.92293,3.59303 -5.03401,3.36706 -7.24961,-0.5266 -2.33336,-4.1006 -5.09172,-4.16676 -5.89679,-0.14143 -0.8869,4.43455 -3.41092,4.91266 -6.08791,1.15318 -2.89927,-4.07165 -4.21056,-3.97127 -8.4102,0.64383 -4.03253,4.43145 -7.04283,4.50695 -6.98011,0.17506 0.0404,-2.79079 -0.17237,-2.90404 -5.45614,-2.90404 -3.88307,0 -6.29491,0.62668 -8.2103,2.13333 -1.49165,1.17333 -3.73813,2.13333 -4.99218,2.13333 -2.02812,0 -2.20269,0.41258 -1.57971,3.73334 0.3861,2.05809 0.26217,3.73333 -0.27617,3.73333 -0.5371,0 -3.3257,-1.48979 -6.19689,-3.31065 -4.01961,-2.54916 -7.52554,-3.65693 -15.24263,-4.81623 -5.51226,-0.82809 -10.90795,-1.9796 -11.99042,-2.55891 -1.3025,-0.69708 -2.19169,-0.69159 -2.62916,0.0162 -0.85874,1.3895 -4.80178,1.39187 -4.80178,0.003 0,-0.58666 -2.61551,-1.06666 -5.81223,-1.06666 h -5.81225 l 1.60807,3.84863 c 0.88442,2.11673 1.45993,3.93256 1.2789,4.03515 -0.18104,0.10262 -1.18651,0.8439 -2.23439,1.64733 -1.67505,1.2843 -2.28717,1.09486 -5.06667,-1.56806 -1.73878,-1.66587 -3.16143,-4.13904 -3.16143,-5.49595 0,-2.70608 -1.03435,-3.13941 -2.94146,-1.23231 -0.93527,0.93528 -1.63977,0.89868 -2.90441,-0.15088 -1.41393,-1.17345 -1.56673,-1.11752 -0.99775,0.36522 0.36952,0.96297 1.10051,1.75087 1.62441,1.75087 0.5239,0 0.95255,0.92765 0.95255,2.06145 0,3.21214 -4.03178,3.89278 -7.32818,1.23714 -1.54284,-1.24294 -4.42392,-3.09051 -6.4024,-4.10573 l -3.59725,-1.84586 -3.99107,4.63398 c -2.97974,3.45972 -4.86571,7.42696 -7.44264,15.65594 -1.89837,6.06209 -3.20095,11.42749 -2.89463,11.92311 0.3063,0.49562 -0.0579,3.84775 -0.80953,7.44917 -0.95503,4.57651 -3.30587,9.70586 -7.80784,17.03609 -12.5084,20.36649 -16.4575,29.76029 -23.24804,55.30057 -3.62593,13.63772 -4.01107,16.45542 -4.47869,32.76669 -0.28139,9.81523 -0.18932,19.56387 0.2046,21.66363 0.39729,2.11778 2.39126,5.67184 4.47796,7.98157 4.88532,5.40747 32.24174,28.59339 50.26874,42.60525 26.3842,20.50769 26.67776,20.89379 27.68304,36.4104 0.81907,12.64256 0.0847,13.68663 -12.35341,17.56392 l -9.56321,2.98111 9.59252,11.80745 c 10.78891,13.28006 14.90022,16.84176 22.26401,19.28761 12.30365,4.08662 32.79086,4.24434 55.42602,0.42672 z M 283.65185,507.19999 c -1.92002,-17.9411 -1.01377,-75.42423 1.25282,-79.46667 1.24306,-2.21698 1.20952,2.65994 -0.20543,29.86667 -0.76017,14.61642 -0.85213,27.50047 -0.25358,35.52689 0.51653,6.92645 0.57492,13.16645 0.12974,13.86667 -0.44517,0.7002 -0.86077,0.79311 -0.92355,0.20644 z m -6.53207,-5.45207 c -2.13548,-4.91075 -1.7353,-44.94728 0.6007,-60.09879 1.03601,-6.71964 2.35909,-12.95964 2.9402,-13.86666 1.20569,-1.88191 0.92969,1.82324 -1.6252,21.81752 -1.91022,14.94916 -2.1934,39.08408 -0.56211,47.90851 1.2812,6.93069 0.66118,8.8726 -1.35359,4.23942 z M 434.69902,366.66666 c -0.91698,-1.32 -5.48764,-7.56 -10.157,-13.86667 -4.66938,-6.30666 -8.06807,-11.46666 -7.55264,-11.46666 2.60249,0 14.65621,14.78062 19.35472,23.73333 2.27477,4.33442 1.06909,5.50705 -1.64508,1.6 z M 298.95679,344.92045 c 2.19063,-2.55782 12.38184,-8.33737 13.22128,-7.49794 0.31206,0.31206 -1.76034,1.80013 -4.60534,3.30682 -2.845,1.50667 -6.37273,3.56261 -7.8394,4.56874 -2.65396,1.82061 -2.65766,1.81881 -0.77654,-0.37762 z m -8.82346,-8.92046 c -1.42222,-0.91911 -1.42222,-1.02749 0,-0.97536 0.88,0.0322 2.56,0.47116 3.73334,0.97536 l 2.13333,0.91673 -2.13333,0.0587 c -1.17334,0.0322 -2.85334,-0.40665 -3.73334,-0.97536 z M 300,336.33137 c 1.02667,-0.26828 2.70667,-0.26828 3.73333,0 1.02667,0.2683 0.18667,0.48782 -1.86666,0.48782 -2.05334,0 -2.89334,-0.21952 -1.86667,-0.48782 z m 6.93333,-1.03781 c 0.73334,-0.2959 1.93334,-0.2959 2.66667,0 0.73333,0.2959 0.13333,0.53802 -1.33333,0.53802 -1.46667,0 -2.06667,-0.24212 -1.33334,-0.53802 z M 59.395322,603.53332 c -0.340508,-0.85091 -0.593262,-0.59817 -0.644445,0.64445 -0.04631,1.12444 0.20579,1.75444 0.560234,1.4 0.354444,-0.35444 0.39234,-1.27446 0.08421,-2.04445 z M 254.31068,586.04839 c 8.10276,-2.32608 9.15599,-3.769 9.15599,-12.54361 0,-12.43263 -2.47781,-15.58657 -28.26667,-35.98006 -7.06475,-5.58671 -40.48212,-33.08594 -50.81341,-41.81446 -1.54737,-1.30732 -4.50574,-3.27011 -6.57416,-4.36176 -4.97896,-2.62775 -11.99701,-11.30293 -16.08401,-19.88184 -3.01064,-6.31953 -3.30303,-7.87766 -3.30276,-17.6 2e-4,-6.64668 0.76355,-14.01314 2.02548,-19.54623 1.79825,-7.88459 2.26221,-8.81757 4.14067,-8.32635 1.58791,0.41525 1.81116,0.24888 0.89518,-0.6671 -3.18566,-3.18566 0.35736,-16.16486 9.55207,-34.99228 11.06833,-22.66391 18.52004,-33.00137 23.7889,-33.00137 2.50838,0 2.77204,0.39341 2.77204,4.1364 0,4.86864 -1.34391,8.29625 -7.86311,20.05463 -2.66039,4.79842 -8.02539,16.79842 -11.92223,26.66667 -3.89685,9.86827 -7.45939,18.42229 -7.91676,19.00896 -1.5318,1.96481 -2.24377,20.17329 -1.1261,28.8 1.24218,9.58795 3.35401,16.68946 6.28356,21.12995 l 1.97698,2.99662 -0.49705,-5.17294 c -0.96038,-9.99481 1.70955,-30.14436 6.6103,-49.88696 4.65039,-18.73401 5.06187,-19.7825 16.95377,-43.2 9.75074,-19.20112 13.06671,-26.94048 16.58373,-38.70584 4.96878,-16.62185 10.53895,-30.62749 12.18081,-30.62749 0.6058,0 1.85925,0.67195 2.78544,1.49323 0.9262,0.82127 4.09705,2.90576 7.04634,4.6322 l 5.36236,3.13897 -0.029,-2.76553 c -0.0273,-2.60309 0.3137,-2.78495 5.80526,-3.09608 4.58481,-0.25974 6.12677,0.0694 7.2,1.53721 1.25859,1.72122 1.36573,1.67946 1.36573,-0.53242 0,-1.32848 0.47627,-2.1058 1.06667,-1.74092 0.58666,0.36258 1.07401,0.0309 1.08299,-0.73704 0.0124,-1.05914 0.21432,-1.08477 0.83625,-0.10614 0.47358,0.74517 2.83389,1.21322 5.5877,1.10807 2.62228,-0.10016 5.4174,0.21942 6.21136,0.71012 1.11739,0.69058 1.28574,0.31968 0.74504,-1.6414 -0.59095,-2.14332 -0.51823,-2.24604 0.47206,-0.66691 1.7499,2.79043 3.50303,2.3531 2.13798,-0.53333 l -1.135,-2.4 1.76091,2.4 c 2.09521,2.85563 3.79774,3.15837 2.99933,0.53333 -0.31227,-1.02666 0.19813,-0.54666 1.13421,1.06667 0.93608,1.61333 2.16663,2.93333 2.73457,2.93333 1.41578,0 1.29625,-1.44302 -0.2474,-2.98666 -0.76247,-0.76247 -0.83534,-1.28 -0.18025,-1.28 0.60487,0 1.74198,1.2 2.52691,2.66666 0.78494,1.46667 2.14044,2.66667 3.01224,2.66667 1.28713,0 1.22217,-0.40099 -0.34557,-2.13334 -1.06186,-1.17333 -1.4628,-2.13333 -0.89101,-2.13333 0.5718,0 2.08301,1.2 3.35826,2.66667 1.27526,1.46666 2.87621,2.66666 3.55768,2.66666 0.71041,0 0.41535,-0.91017 -0.6916,-2.13333 -2.74156,-3.0294 -0.91437,-2.6436 2.97351,0.62784 2.3204,1.95249 4.0837,2.60143 6.02065,2.21575 2.64094,-0.52586 7.05454,1.55216 5.85164,2.75507 -0.32326,0.32324 -0.0758,0.90411 0.54991,1.29081 0.66503,0.41102 1.13763,-0.20928 1.13763,-1.49318 0,-1.20796 0.6946,-2.19629 1.54356,-2.19629 0.84895,0 3.80045,-1.2 6.55886,-2.66667 5.28657,-2.81089 13.85784,-3.59213 18.79908,-1.71348 1.74602,0.66383 3.12417,0.50193 4.53998,-0.53333 2.33409,-1.70674 6.53427,-1.96924 7.46306,-0.46643 0.34674,0.56104 1.34051,0.74759 2.20839,0.41457 1.15125,-0.44178 1.41208,-0.0687 0.9646,1.37991 -0.33733,1.09199 0.15256,0.66543 1.08863,-0.9479 1.32697,-2.28702 2.49746,-2.93333 5.31234,-2.93333 1.98572,0 3.8353,0.6 4.1102,1.33333 0.3482,0.92887 1.04015,0.6862 2.28107,-0.8 1.74439,-2.0892 1.75656,-2.08252 0.58829,0.32257 -0.65612,1.35074 -1.03434,3.27074 -0.84048,4.26667 0.23267,1.19531 1.18044,0.17932 2.78852,-2.98924 1.33983,-2.64 2.20966,-4.02 1.93295,-3.06667 -0.36606,1.26119 0.20022,1.73334 2.07892,1.73334 1.42012,0 2.58203,-0.49344 2.58203,-1.09655 0,-0.6031 0.88872,-0.0718 1.97495,1.1806 1.08623,1.25243 2.36271,1.92588 2.83662,1.49654 0.47392,-0.42932 0.56025,0.0594 0.19185,1.08607 -0.79952,2.22817 1.72216,2.56996 3.65951,0.49602 1.44321,-1.54497 8.86245,-0.94384 16.97844,1.37564 6.16566,1.76209 12.77847,0.68288 13.53467,-2.20885 1.05811,-4.04621 3.34745,-1.94639 6.1823,5.67052 1.58301,4.25334 8.32478,19.01334 14.98172,32.8 12.93165,26.78173 16.20823,36.20112 19.59973,56.3447 4.62619,27.47689 5.66492,72.53908 1.84106,79.869 -2.16023,4.14094 -2.19037,4.5863 -0.31026,4.5863 0.80882,0 2.07851,-1.46765 2.82152,-3.26144 0.74302,-1.7938 3.36163,-5.33029 5.81914,-7.85888 4.1458,-4.26573 7.17805,-5.80796 14.68875,-7.47087 1.7164,-0.38002 2.93333,-1.36189 2.93333,-2.36675 0,-0.94451 1.2461,-5.13536 2.76911,-9.313 6.17419,-16.93594 8.33562,-39.54354 5.29831,-55.41809 -1.53398,-8.01741 -6.04291,-20.72557 -8.75719,-24.68164 -1.35625,-1.97676 -1.44357,-1.90481 -1.44357,1.18946 0,6.11397 -7.00289,12.13103 -14.08037,12.09818 -4.06236,-0.0189 -5.10179,-0.59755 -7.58146,-4.22101 -2.03315,-2.97094 -2.4963,-14.07178 -0.7759,-18.59676 2.13213,-5.60792 12.10319,-4.496 18.68258,2.08341 2.02993,2.02993 3.39223,2.91279 3.02735,1.96191 -1.51489,-3.94775 -23.16462,-23.87083 -31.61452,-29.09316 -2.771,-1.71256 -3.92437,-3.18354 -3.92437,-5.00505 0,-6.70234 15.50485,-0.42485 28.17425,11.40696 4.39391,4.10344 9.0659,9.23513 10.38218,11.40375 1.31628,2.16863 3.00479,4.31854 3.75223,4.77758 2.27828,1.3992 8.5798,13.60392 11.68535,22.63204 2.66196,7.73858 2.93979,9.97382 2.98308,24 0.0685,22.19827 -3.10367,40.94095 -8.7558,51.73333 -0.92174,1.76 -1.70861,5.36 -1.74859,8 l -0.0727,4.8 -6.56037,0.62795 c -7.1288,0.68235 -10.41056,2.36623 -17.5857,9.02323 l -4.65393,4.31784 -0.32806,12.08575 -0.32805,12.08575 5.50319,5.30436 c 3.02675,2.9174 7.49438,6.1815 9.92805,7.25353 6.02734,2.65505 16.05961,3.60693 22.50575,2.1354 5.63927,-1.28734 15.57816,-7.42498 22.28419,-13.76133 3.46539,-3.27431 10.30164,-11.99524 10.30164,-13.14164 0,-0.19331 -1.56,-0.34682 -3.46667,-0.34116 l -3.46667,0.0107 -0.65977,-6.93333 c -0.36288,-3.81334 -1.02105,-7.79108 -1.46259,-8.83946 -1.16787,-2.77283 -5.81099,-4.8414 -15.19874,-6.77122 -10.76183,-2.21229 -14.38026,-4.05915 -13.94502,-7.11757 0.30057,-2.112 1.0463,-2.36933 7.70171,-2.65767 5.20656,-0.22557 9.58865,0.3475 14.93333,1.9529 14.46878,4.34605 21.96442,10.59319 21.96442,18.30593 0,3.94829 0.20102,4.25536 2.4,3.66606 1.32,-0.35375 3.20511,-0.64974 4.18913,-0.65775 2.16525,-0.0176 7.75746,-13.81022 10.16205,-25.0636 3.94887,-18.4805 -1.55842,-48.43016 -14.76009,-80.26825 -11.09823,-26.76565 -26.47238,-53.05776 -49.43973,-84.54972 -14.24114,-19.52692 -25.9729,-37.1984 -31.51221,-47.46667 -2.53186,-4.69333 -4.76639,-8.73829 -4.96562,-8.9888 -0.94118,-1.1834 -3.46254,3.93985 -2.98014,6.05547 0.68303,2.99548 -1.15207,3.14665 -2.71635,0.22378 -2.2126,-4.13428 5.69248,-13.01763 10.08433,-11.33232 1.13533,0.43567 1.67196,0.0273 1.67196,-1.27231 0,-1.05265 1.2,-5.34858 2.66667,-9.5465 1.85788,-5.31769 2.66666,-9.88414 2.66666,-15.05633 0,-4.08306 0.48,-7.7204 1.06667,-8.08298 1.2279,-0.75888 1.47193,-9.06284 0.26667,-9.07422 -0.44,-0.004 -0.96534,-6.12416 -1.1674,-13.6 C 469.1197,179.28294 467.5855,172.8 464.64182,172.8 c -2.42497,0 -7.89632,-6.36518 -9.85647,-11.46667 C 453.82734,158.84 452.56398,156.8 451.9779,156.8 c -0.58608,0 0.15485,-0.96 1.64649,-2.13334 1.49165,-1.17333 3.29516,-2.13333 4.00779,-2.13333 0.96495,0 0.93329,-0.43667 -0.12399,-1.71061 -1.01176,-1.21912 -2.55336,-1.55856 -5.36533,-1.1814 -2.1701,0.29107 -4.35002,0.18177 -4.84426,-0.2429 -0.49423,-0.42466 -2.9356,-1.35142 -5.42527,-2.05943 -3.6834,-1.04749 -5.20006,-2.32292 -8.14146,-6.84648 -4.47014,-6.87461 -14.67597,-17.04718 -14.07688,-14.03101 0.22633,1.13951 0.69927,3.51183 1.05098,5.27183 l 0.63947,3.2 -1.55794,-3.2 c -0.85688,-1.76 -1.5796,-4.23531 -1.60606,-5.50067 -0.0294,-1.41017 -2.0565,-3.9822 -5.2369,-6.64498 l -5.18879,-4.3443 -0.17849,9.31165 c -0.29855,15.57536 -2.6686,45.9304 -3.94159,50.48309 -0.26217,0.93764 -1.78745,2.29011 -3.3895,3.0055 -5.05188,2.2559 -11.13379,6.84363 -16.17438,12.20073 -7.23526,7.68957 -7.21577,7.43172 -1.01329,13.41011 l 5.52487,5.32527 -0.65405,7.24347 c -1.49163,16.51979 -5.03711,21.70407 -19.5871,28.64075 -5.70263,2.71871 -12.89655,6.56034 -15.98649,8.53696 -5.38424,3.44426 -17.46395,9.86365 -16.35573,8.69175 2.43935,-2.57951 27.13035,-18.92175 30.3382,-20.07996 9.55398,-3.44949 16.68073,-13.3043 18.26656,-25.25883 0.73087,-5.50953 0.69574,-5.60073 -3.94213,-10.23861 -4.22664,-4.22665 -6.16578,-5.15329 -20.03531,-9.57425 -8.91462,-2.84157 -18.30699,-6.64731 -22.39154,-9.07295 -10.73044,-6.37236 -13.59183,-6.98448 -31.27172,-6.68979 l -9.3026,0.15506 -10.3837,7.0895 c -5.71104,3.89924 -11.17545,7.13924 -12.14314,7.2 -3.06796,0.19267 -18.93948,15.66839 -20.77573,20.25762 -3.74479,9.35915 1.2089,17.56688 21.49825,35.62034 15.75875,14.02214 17.09074,14.88542 24.91003,16.14469 9.27422,1.49356 9.64719,2.67006 0.56616,1.78587 -9.36872,-0.9122 -10.87466,-1.89821 -30.02929,-19.66171 -16.31559,-15.13066 -19.57071,-19.78607 -19.57071,-27.98973 0,-2.61059 0.88249,-6.39201 1.96107,-8.40316 l 1.96107,-3.65662 -3.9786,-3.7934 c -7.32833,-6.98723 -9.51652,-20.80692 -7.45894,-47.10749 1.13342,-14.48753 3.01691,-31.13373 4.81475,-42.55258 l 0.5878,-3.73333 -1.50708,3.2 c -0.8289,1.76 -1.27783,3.57189 -0.99762,4.02643 0.2802,0.45453 -0.11086,0.69453 -0.86903,0.53334 -0.8279,-0.17604 -1.65557,1.19803 -2.0722,3.44023 l -0.69372,3.73333 L 243.34042,124 c -0.15475,-3.82021 -1.25098,-4.33706 -3.79756,-1.79048 -0.92191,0.9219 -1.67619,1.1619 -1.67619,0.53334 0,-0.62858 -0.4013,-1.14286 -0.89179,-1.14286 -0.49049,0 -1.72311,2.99014 -2.73919,6.64477 -1.91685,6.8945 -3.48021,9.70083 -4.91144,8.81627 -0.45872,-0.2835 -1.11884,0.22671 -1.46693,1.13382 -0.42733,1.11358 -0.20378,1.39763 0.68823,0.87451 0.72661,-0.42611 -2.25499,2.81405 -6.62578,7.20037 -4.3708,4.38631 -8.77704,8.03765 -9.79164,8.11408 -1.94632,0.14661 -18.67794,9.466 -19.56147,10.8956 -0.28399,0.45951 0.43233,1.69401 1.59183,2.74334 1.15949,1.04933 2.10818,2.7592 2.10818,3.7997 0,1.0405 0.74927,2.6411 1.66505,3.55687 2.46587,2.46587 1.64102,9.32144 -1.29669,10.77714 -1.85357,0.91847 -2.08371,1.52229 -1.18933,3.12045 0.60993,1.08988 1.16417,9.00731 1.23163,17.59428 0.10187,12.96886 -0.18092,16.07686 -1.67017,18.35386 l -1.79285,2.74121 4.23579,-1.45935 c 2.32968,-0.80264 5.39735,-1.16781 6.81704,-0.81149 3.31357,0.83165 10.16177,9.16656 11.15235,13.57346 0.98594,4.38633 0.39365,5.98552 -2.64471,7.14069 -1.35749,0.51612 -3.1256,2.2851 -3.92913,3.93108 -1.34744,2.76012 -1.86792,2.96607 -6.69812,2.65035 -2.88044,-0.18827 -6.12394,-0.81691 -7.20779,-1.39697 -3.5681,-1.90959 0.0281,2.48401 4.75897,5.81419 2.35044,1.65454 4.51575,3.93454 4.81182,5.06667 0.29605,1.13213 0.99658,2.05843 1.55673,2.05843 0.56015,0 0.38416,0.62416 -0.39107,1.38702 -0.77524,0.76285 -3.55521,1.50853 -6.1777,1.65706 -2.6225,0.14853 -4.94139,0.44327 -5.15309,0.65496 -1.06472,1.06472 2.28469,4.75229 5.25792,5.78877 4.26075,1.4853 6.59318,1.50882 5.69617,0.0574 -0.3812,-0.61678 1.15048,-0.33319 3.40372,0.6302 6.64463,2.84098 7.44625,2.94705 4.63012,0.61266 -1.46666,-1.21578 -4.25882,-2.74829 -6.2048,-3.4056 -1.94597,-0.65731 -3.27543,-1.45782 -2.95434,-1.77891 0.32108,-0.32109 3.74671,0.9733 7.61248,2.87641 8.58836,4.22804 10.302,3.58004 2.44609,-0.92497 -6.81418,-3.90759 -6.11482,-4.34557 1.10059,-0.68924 2.82101,1.4295 7.5442,5.2416 10.49597,8.47131 4.25225,4.65264 5.76099,7.32824 7.26457,12.88288 1.04373,3.85586 1.63224,7.27611 1.30781,7.60055 -0.32444,0.32444 -0.90112,-1.25227 -1.28152,-3.5038 -0.38039,-2.25153 -1.15487,-4.80388 -1.72104,-5.67188 -0.69492,-1.06537 -0.79841,-0.0521 -0.3185,3.1185 0.8114,5.36046 -1.10689,5.44735 -2.28064,0.10336 -0.38361,-1.74655 -1.08207,-3.41323 -1.55214,-3.70375 -1.76167,-1.08878 -29.84724,36.67444 -38.42889,51.67061 -7.80823,13.64464 -12.45303,24.1612 -22.86345,51.76647 -9.50755,25.21113 -11.70016,30.06494 -24.91793,55.16122 -8.6298,16.3852 -9.08346,18.79297 -5.945,31.55289 0.96759,3.93391 1.87131,7.29628 2.00827,7.47195 0.13696,0.17566 2.03358,-0.89165 4.2147,-2.3718 4.74242,-3.21829 9.51627,-4.24917 16.54826,-3.57349 13.4173,1.28924 30.43013,22.0336 68.29501,83.27458 l 14.3745,23.24869 4.26667,-0.67178 c 2.34667,-0.36948 6.62647,-1.34922 9.51068,-2.17719 z m 50.28545,-267.68232 c -1.1388,-0.86134 -1.59054,-1.56608 -1.00387,-1.56608 0.58666,0 1.99841,0.70474 3.1372,1.56608 1.1388,0.86134 1.59054,1.56607 1.00387,1.56607 -0.58666,0 -1.99841,-0.70473 -3.1372,-1.56607 z m 84.7372,-5.83274 c 0,-0.58667 0.72,-1.06667 1.6,-1.06667 0.88,0 1.6,0.48 1.6,1.06667 0,0.58666 -0.72,1.06666 -1.6,1.06666 -0.88,0 -1.6,-0.48 -1.6,-1.06666 z M 250.4,310.85656 c -1.61333,-0.87525 -2.93333,-2.29603 -2.93333,-3.1573 0,-0.86126 -0.48,-1.56593 -1.06667,-1.56593 -0.59933,0 -0.98502,-2.45355 -0.88031,-5.6 0.17817,-5.3539 0.2043,-5.40078 0.59467,-1.06667 0.22456,2.49333 0.8607,4.53333 1.41364,4.53333 0.55293,0 1.00533,0.75429 1.00533,1.6762 0,2.88388 2.8786,4.7238 7.39048,4.7238 2.38857,0 4.34286,0.48 4.34286,1.06667 0,1.60466 -6.5283,1.20098 -9.86667,-0.6101 z m 10.93333,-0.45657 c 0,-0.58666 0.72,-1.06666 1.6,-1.06666 0.88,0 1.6,0.48 1.6,1.06666 0,0.58667 -0.72,1.06667 -1.6,1.06667 -0.88,0 -1.6,-0.48 -1.6,-1.06667 z m 129.06667,-3.2 c 0,-0.58666 1.95428,-1.06666 4.34286,-1.06666 4.18932,0 7.39047,-1.8151 7.39047,-4.19048 0,-0.62857 0.44662,-1.14286 0.99248,-1.14286 0.54587,0 1.20049,-1.08 1.45474,-2.4 0.33429,-1.73557 0.50248,-1.44027 0.60752,1.06667 0.0799,1.90667 -0.33474,3.46667 -0.9214,3.46667 -0.58667,0 -1.06667,0.51428 -1.06667,1.14286 0,2.48503 -3.22484,4.19047 -7.92381,4.19047 -2.68191,0 -4.87619,-0.48 -4.87619,-1.06667 z m 19.54141,-6.4 c 0,-3.81333 0.1936,-5.37333 0.43022,-3.46666 0.2366,1.90666 0.2366,5.02666 0,6.93333 -0.23662,1.90667 -0.43022,0.34667 -0.43022,-3.46667 z m -152.26598,4.56123 c -2.80309,-0.71462 -4.87543,-2.9486 -4.87543,-5.25571 0,-1.6889 0.1849,-1.64955 1.57511,0.33526 0.86632,1.23683 2.78632,2.55279 4.26667,2.92433 1.48035,0.37154 2.69155,1.14639 2.69155,1.72188 0,1.09907 -0.32648,1.12355 -3.6579,0.27424 z m -17.46748,-2.96123 c 0.0218,-1.76 0.2608,-2.35087 0.53124,-1.31303 0.27044,1.03783 0.25266,2.47783 -0.0396,3.2 -0.2922,0.72216 -0.51347,-0.12697 -0.49173,-1.88697 z m 174.93333,-1.06666 c 0.0218,-1.76 0.2608,-2.35087 0.53124,-1.31304 0.27045,1.03784 0.25266,2.47784 -0.0396,3.2 -0.29219,0.72217 -0.51346,-0.12696 -0.49172,-1.88696 z m -179.10505,-4.53334 c -0.68853,-3.37333 -1.5234,-7.33333 -1.85527,-8.8 -0.48267,-2.13315 -0.29222,-2.002 0.95191,0.65549 1.47631,3.15341 3.48799,14.27785 2.58194,14.27785 -0.23469,0 -0.99005,-2.76 -1.67858,-6.13334 z m 182.24236,3.2 c -0.0799,-1.32 -0.62526,-2.4 -1.21192,-2.4 -1.22769,0 -1.42052,-5.34056 -0.25034,-6.93333 0.43102,-0.58667 1.50367,-1.06667 2.38367,-1.06667 1.20738,0 1.53351,-1.0795 1.32907,-4.39919 -0.33735,-5.47752 1.31989,-7.11584 5.87621,-5.8091 2.63891,0.75683 3.65638,0.56081 5.04318,-0.97159 1.77471,-1.96102 13.44137,-8.56155 15.10085,-8.54344 0.50455,0.005 -1.48264,1.39441 -4.41598,3.08645 -5.43831,3.13699 -11.41345,8.63687 -9.38321,8.63687 0.6171,0 1.74251,-0.74767 2.5009,-1.66148 1.598,-1.92547 8.75443,-6.23966 13.01565,-7.84636 4.49616,-1.69529 3.48822,-0.51894 -1.83202,2.13812 -6.29892,3.14583 -12.49476,8.32712 -11.63029,9.72586 0.43584,0.70519 1.03113,0.50978 1.61266,-0.52935 0.50699,-0.90595 3.44057,-3.16584 6.51907,-5.02198 l 5.59724,-3.37479 -6.4,5.8632 -6.4,5.86319 -3.2317,-1.87026 c -1.77743,-1.02864 -4.53743,-2.19799 -6.13333,-2.59853 -4.36368,-1.09521 -3.77568,2.13009 0.78481,4.30484 4.4461,2.12019 5.53341,4.40465 3.1716,6.66359 -1.61161,1.54141 -1.68854,1.46128 -0.94972,-0.98938 0.73832,-2.44903 0.56582,-2.38375 -2.11368,0.8 -1.60469,1.90667 -3.44669,3.46667 -4.09333,3.46667 -0.64665,0 -0.24398,-0.70474 0.89481,-1.56608 1.96106,-1.48327 1.89056,-1.56786 -1.33317,-1.6 -4.02035,-0.0401 -5.4168,1.51673 -2.75205,3.06808 1.03901,0.60489 1.32248,1.11439 0.62995,1.13223 -0.69253,0.0178 -1.46716,1.11243 -1.72141,2.43243 l -0.46226,2.4 z m 9.45474,-9.86666 c 0,-0.58667 -0.48,-1.06667 -1.06666,-1.06667 -0.58667,0 -1.06667,0.48 -1.06667,1.06667 0,0.58666 0.48,1.06666 1.06667,1.06666 0.58666,0 1.06666,-0.48 1.06666,-1.06666 z m -3.2,-1.06667 c 0,-0.58667 -0.48,-1.06667 -1.06666,-1.06667 -0.58667,0 -1.06667,0.48 -1.06667,1.06667 0,0.58667 0.48,1.06667 1.06667,1.06667 0.58666,0 1.06666,-0.48 1.06666,-1.06667 z m -182.15253,7.46667 c 0,-2.05334 0.21952,-2.89334 0.48782,-1.86667 0.26829,1.02667 0.26829,2.70667 0,3.73333 -0.2683,1.02667 -0.48782,0.18667 -0.48782,-1.86666 z m 170.66667,-1.06667 c 0,-2.05333 0.21952,-2.89333 0.48782,-1.86667 0.26828,1.02667 0.26828,2.70667 0,3.73334 -0.2683,1.02666 -0.48782,0.18666 -0.48782,-1.86667 z m -173.90619,-1.6 c 0.0218,-1.76 0.2608,-2.35087 0.53124,-1.31303 0.27045,1.03783 0.25266,2.47783 -0.0396,3.2 -0.29219,0.72216 -0.51346,-0.12697 -0.49172,-1.88697 z m 200.32539,-24 c 2.05333,-1.12415 4.21333,-2.04391 4.8,-2.04391 0.58666,0 -0.61334,0.91976 -2.66667,2.04391 -2.05333,1.12415 -4.21333,2.04392 -4.8,2.04392 -0.58667,0 0.61333,-0.91977 2.66667,-2.04392 z m -227.2,-2.13333 c -0.88,-0.56871 -1.12,-1.034 -0.53334,-1.034 0.58667,0 1.78667,0.46529 2.66667,1.034 0.88,0.5687 1.12,1.03399 0.53333,1.03399 -0.58666,0 -1.78666,-0.46529 -2.66666,-1.03399 z m 108.8,0.36277 c 0.88,-0.29451 3.4,-1.21272 5.6,-2.04048 2.2,-0.82776 4,-1.27535 4,-0.99463 0,0.82408 -7.56779,3.74674 -9.4636,3.65479 -1.43821,-0.0698 -1.46163,-0.17617 -0.1364,-0.61968 z M 294.4,241.52979 c -5.57333,-1.42921 -11.55908,-2.47808 -13.30165,-2.33084 -2.37329,0.20053 -3.26953,-0.23554 -3.57163,-1.7378 -0.91131,-4.53181 3.75452,-4.84448 18.29308,-1.22588 8.88234,2.21078 11.32986,2.44589 16,1.53692 3.03245,-0.59022 12.23353,-1.74282 20.44687,-2.56134 8.21333,-0.8185 16.49333,-1.81579 18.4,-2.21619 3.18602,-0.66907 3.46666,-0.51056 3.46666,1.95788 0,3.48605 -0.98216,3.79164 -16.37633,5.09515 -7.12635,0.60342 -17.037,1.79801 -22.02367,2.65464 -10.9362,1.87868 -9.02524,1.9837 -21.33333,-1.17254 z m -7.09618,-49.03619 c -1.47244,-3.83711 7.51556,-8.57727 10.91467,-5.75627 1.39017,1.15375 1.21997,1.72037 -1.30992,4.36102 -3.2328,3.37432 -8.54896,4.14657 -9.60475,1.39525 z m 6.62564,-2.12496 c 2.0051,-1.5798 1.98891,-1.62195 -0.51257,-1.33334 -1.42072,0.16392 -2.78072,0.89803 -3.02223,1.63136 -0.59753,1.8144 1.02759,1.67739 3.5348,-0.29802 z M 320,191.54867 c -7.02009,-3.70131 -6.39788,-6.96744 1.33333,-6.99901 4.72055,-0.0193 8.56822,3.18454 8.06559,6.71593 -0.45913,3.22584 -3.63605,3.32152 -9.39892,0.28308 z m 6.4,-1.64448 c 0,-1.28142 -3.5403,-3.23753 -5.8595,-3.23753 -2.23325,0 -0.99979,2.00944 1.96865,3.20714 3.08271,1.2438 3.89085,1.25011 3.89085,0.0304 z M 440,152.53333 c -1.40666,-0.60446 -1.58833,-0.93669 -0.53333,-0.97536 0.88,-0.0322 2.32,0.40666 3.2,0.97536 1.94983,1.26007 0.26569,1.26007 -2.66667,0 z m 0.90773,-2.8034 c -7.65519,-3.72732 -13.63946,-9.14698 -16.40273,-14.85513 -2.95779,-6.10998 -1.98322,-7.57527 1.06472,-1.60082 3.02327,5.92609 9.87672,12.39638 17.06203,16.10813 7.26274,3.75174 5.85165,4.03643 -1.72402,0.34782 z M 235.85599,131.2 c 0.0495,-0.88 0.4743,-2.8 0.94401,-4.26667 l 0.85402,-2.66667 0.09,2.66667 c 0.0495,1.46667 -0.3753,3.38667 -0.94401,4.26667 -0.91911,1.42222 -1.024,1.42222 -0.94401,0 z m 179.76071,-1.29103 c -0.35983,-1.34327 -0.61257,-3.40231 -0.56165,-4.57564 0.0509,-1.17333 0.53192,-0.26088 1.06888,2.02766 1.03993,4.43221 0.59553,6.66463 -0.50723,2.54798 z M 240.20795,126.4 c 0.0218,-1.76 0.2608,-2.35087 0.53124,-1.31304 0.27044,1.03784 0.25266,2.47784 -0.0396,3.2 -0.2922,0.72217 -0.51347,-0.12696 -0.49173,-1.88696 z m 171.79438,-2.13334 c 0.0118,-2.34666 0.23028,-3.18106 0.48541,-1.85423 0.25514,1.32684 0.24545,3.24684 -0.0215,4.26667 -0.26698,1.01983 -0.47574,-0.0658 -0.4639,-2.41244 z m -3.2,-3.2 c 0.0118,-2.34666 0.23028,-3.18106 0.48541,-1.85423 0.25514,1.32684 0.24545,3.24684 -0.0215,4.26667 -0.26698,1.01983 -0.47574,-0.0658 -0.4639,-2.41244 z M 58.328655,571.53332 c -0.340508,-0.85091 -0.593262,-0.59816 -0.644445,0.64445 -0.04631,1.12444 0.20579,1.75444 0.560235,1.4 0.354444,-0.35444 0.392339,-1.27445 0.08421,-2.04445 z m -1.066667,-7.46667 c -0.340507,-0.85091 -0.593262,-0.59816 -0.644445,0.64445 -0.04631,1.12444 0.20579,1.75444 0.560235,1.4 0.354444,-0.35444 0.392339,-1.27445 0.08421,-2.04445 z m 4.071345,-19 c 1.061852,-1.17333 1.69064,-2.13333 1.397307,-2.13333 -0.293333,0 -1.402122,0.96 -2.463973,2.13333 -1.061852,1.17334 -1.69064,2.13334 -1.397307,2.13334 0.293333,0 1.402122,-0.96 2.463973,-2.13334 z M 534.32502,497.33332 c 0.0412,-0.73333 -0.40502,-1.33333 -0.99169,-1.33333 -0.58666,0 -1.03292,1.56 -0.99169,3.46667 0.0628,2.90509 0.22347,3.12108 0.99169,1.33333 0.50421,-1.17333 0.95047,-2.73333 0.99169,-3.46667 z m -0.99169,-4.93606 c 0,-0.22149 -0.84,-1.06149 -1.86666,-1.86667 -1.6918,-1.32679 -1.72953,-1.28906 -0.40273,0.40273 1.39346,1.7768 2.26939,2.34185 2.26939,1.46394 z M 473.6,486.93332 c 1.37787,-1.46666 2.26521,-2.66666 1.97187,-2.66666 -0.29333,0 -1.66067,1.2 -3.03854,2.66666 -1.37786,1.46667 -2.2652,2.66667 -1.97187,2.66667 0.29333,0 1.66067,-1.2 3.03854,-2.66667 z m 50.58431,-0.50902 c -1.97048,-1.97048 -13.58955,-5.35752 -17.9513,-5.23293 -4.0977,0.11705 -3.93976,0.22025 2.56699,1.67723 3.81333,0.85389 8.85333,2.19987 11.2,2.99107 5.37548,1.81242 5.44093,1.82125 4.18431,0.56463 z m -348.08828,-7.22431 c -5.45936,-8.96841 -6.79458,-14.51369 -7.31985,-30.4 -0.26672,-8.06667 -0.91504,-14.66667 -1.44071,-14.66667 -0.52567,0 -0.76567,1.56 -0.53333,3.46667 0.23235,1.90667 0.0415,5.86667 -0.42418,8.8 -1.56121,9.83491 2.67327,25.62744 9.14747,34.11556 3.98362,5.2228 4.21957,4.6788 0.5706,-1.31556 z m 303.39886,3.13934 c -0.32842,-0.32842 -1.18911,-6.8e-4 -1.91267,0.7283 -1.04561,1.05346 -0.92309,1.17598 0.59712,0.59712 1.05197,-0.40057 1.64397,-0.99701 1.31555,-1.32542 z m 7.71755,-0.93889 c -1.01983,-0.26698 -2.93983,-0.27666 -4.26667,-0.0215 -1.32684,0.25514 -0.49244,0.47358 1.85423,0.48542 2.34667,0.0118 3.43227,-0.19692 2.41244,-0.46389 z m 5.55489,-12.60045 c 0,-0.58667 -0.46529,-0.34667 -1.034,0.53333 -0.5687,0.88 -1.03399,2.08 -1.03399,2.66667 0,0.58667 0.46529,0.34667 1.03399,-0.53333 0.56871,-0.88 1.034,-2.08 1.034,-2.66667 z m 3.10341,-9.06667 c -0.0181,-0.88 -0.68001,0.08 -1.47074,2.13334 -1.87546,4.87008 -1.84778,6.78619 0.0385,2.66666 0.8059,-1.76 1.45039,-3.92 1.43222,-4.8 z m 0.85791,-4.46666 c -0.3405,-0.85092 -0.59326,-0.59817 -0.64444,0.64444 -0.0463,1.12444 0.2058,1.75445 0.56024,1.4 0.35444,-0.35444 0.39233,-1.27445 0.0842,-2.04444 z m 1.0733,-7 c -0.2683,-1.02667 -0.48782,-0.18667 -0.48782,1.86666 0,2.05334 0.21952,2.89334 0.48782,1.86667 0.26829,-1.02667 0.26829,-2.70667 0,-3.73333 z m 3.20391,-19.1797 c -0.27045,-1.03784 -0.50951,-0.44697 -0.53125,1.31303 -0.0218,1.76 0.19953,2.60913 0.49173,1.88697 0.29218,-0.72217 0.30996,-2.16217 0.0396,-3.2 z m -0.6098,-11.21335 c -0.11674,-4.25716 -0.67405,-10.38623 -1.23847,-13.62015 -1.25105,-7.16814 -7.96606,-23.03234 -9.02434,-21.32 -0.41524,0.67189 0.4804,3.97445 1.99034,7.33903 3.33917,7.44066 5.57604,17.07953 6.54587,28.20684 0.89723,10.29425 2.01475,9.9022 1.7266,-0.60572 z M 178.55951,406.12759 c 2.28773,-6.59685 6.77845,-17.66356 9.97937,-24.59268 3.20092,-6.92913 5.5857,-12.83257 5.2995,-13.11876 -0.7468,-0.74679 -11.04602,19.61162 -14.22791,28.12419 -1.47875,3.95614 -3.87237,9.6312 -5.31914,12.61126 -2.32715,4.79339 -2.59721,8.99288 -0.57721,8.97599 0.37723,-0.003 2.55767,-5.40316 4.84539,-12 z m 297.25587,-14.57888 c 3.83057,-3.83056 3.88892,-5.40213 0.35647,-9.60021 -5.13023,-6.09692 -10.32943,-3.36115 -10.32943,5.43527 0,7.59911 4.6125,9.52541 9.97296,4.16494 z m -1.6222,-30.21519 c -6.0557,-5.44081 -16.18369,-12.4607 -18.04806,-12.50943 -0.50686,-0.0132 2.02528,1.94372 5.62695,4.34883 3.60168,2.40511 8.81446,6.94302 11.58395,10.08426 3.19442,3.6232 5.40744,5.33936 6.05285,4.69394 0.64543,-0.64543 -1.26149,-3.06492 -5.21569,-6.6176 z M 222.06222,282.43555 c -0.7654,-0.7654 -1.26222,-0.82838 -1.26222,-0.16 0,1.42376 1.26145,2.68521 1.97333,1.97333 0.30312,-0.3031 -0.0168,-1.1191 -0.71111,-1.81333 z m 3.01993,-1.35291 c -1.98165,-2.04454 -3.84082,-3.47954 -4.13147,-3.18888 -0.70182,0.70182 5.27972,6.90623 6.65813,6.90623 0.59199,0 -0.545,-1.67281 -2.52666,-3.71735 z m 35.8777,-78.98123 c 0.31497,-0.8208 -0.37731,-2.82939 -1.53839,-4.46356 -6.34422,-8.92912 -9.89944,-36.97451 -6.26612,-49.43034 2.08819,-7.15881 6.43531,-14.01488 10.35383,-16.32961 3.6465,-2.15404 13.61337,-2.30696 18.45695,-0.28318 4.1357,1.72801 11.2036,9.67986 14.72586,16.56757 2.18827,4.27911 2.50802,6.41571 2.50802,16.75887 v 11.85449 l 13.07835,-0.12116 c 10.41703,-0.0965 12.96743,-0.41023 12.53333,-1.54174 -0.29975,-0.78131 -0.54779,-1.74131 -0.55118,-2.13333 -0.003,-0.39201 -2.76338,-0.74318 -6.13333,-0.78036 -10.70237,-0.1181 -16.09263,-4.85772 -10.88468,-9.57084 2.95911,-2.67797 9.47004,-2.52738 13.46405,0.3114 l 3.02679,2.15133 0.17871,-6.10823 c 0.21047,-7.19382 4.59255,-17.77935 9.82901,-23.74335 1.88136,-2.14275 5.89351,-5.12818 8.9159,-6.63431 4.67229,-2.32829 6.86164,-2.72625 14.61915,-2.65724 13.90472,0.12367 17.67292,2.08306 24.98957,12.9941 6.78541,10.1188 9.35075,17.62611 10.00318,29.27364 l 0.54982,9.81556 4.07505,-2.07893 c 3.16062,-1.61243 4.20014,-2.85759 4.63249,-5.5489 0.864,-5.37817 2.69779,-33.16265 3.00108,-45.47032 l 0.27271,-11.06704 -8.08419,-5.56606 c -9.23615,-6.35919 -24.6028,-12.445521 -32.27644,-12.783855 -2.83836,-0.125144 -5.47836,-0.702454 -5.86667,-1.282913 -1.04503,-1.562117 -3.43196,-2.259356 -14.02908,-4.097987 -31.81948,-5.520771 -59.32776,-3.370268 -76.81029,6.004767 -9.06965,4.863618 -17.74853,13.611338 -16.56476,16.696168 0.33853,0.88221 -0.44615,10.295 -1.74373,20.91731 -2.75983,22.59256 -3.32,52.84643 -1.11329,60.12731 0.75802,2.50103 2.84193,6.21442 4.63092,8.25197 2.72956,3.10878 3.58983,3.52421 5.34871,2.58288 1.1528,-0.61695 2.35369,-1.79331 2.66867,-2.61411 z m 35.27577,-59.2709 c -1.04374,-0.60753 -3.08509,-2.98553 -4.53632,-5.28444 -1.73354,-2.74608 -4.55849,-5.14111 -8.23563,-6.98228 -8.69024,-4.35122 -12.7038,-7.73733 -12.32465,-10.39793 0.27857,-1.9548 1.13,-2.34623 5.68418,-2.61316 8.79629,-0.51558 16.97804,4.19581 23.16182,13.33754 4.07835,6.02918 4.49254,8.36553 1.93621,10.92186 -2.47197,2.47197 -3.01982,2.5701 -5.68561,1.01841 z m -1.81242,-10.52049 c -1.59442,-2.97922 -7.46915,-7.11403 -11.2232,-7.89924 -2.67045,-0.55856 -2.40569,-0.24596 1.6,1.88901 2.64,1.40709 5.96367,3.80526 7.38593,5.32927 3.08763,3.30852 3.75166,3.51063 2.23727,0.68096 z m 89.96848,4.73274 c -6.47363,-7.32802 -13.26048,-12.24051 -19.76402,-14.30571 -6.78829,-2.15561 -6.66639,-6.47039 0.18279,-6.47039 8.04082,0 14.98012,2.1906 19.29877,6.09224 8.24981,7.45321 13.81782,21.6411 8.493,21.6411 -1.20228,0 -4.63123,-2.90554 -8.21054,-6.95724 z m 0.16685,-7.50454 c -2.84432,-3.72909 -8.50847,-7.93024 -10.69186,-7.93024 -0.58667,0 0.37333,0.88152 2.13333,1.95895 1.76,1.07742 4.88,3.87252 6.93333,6.21134 4.57038,5.20581 5.65659,5.04538 1.6252,-0.24005 z m -114.69186,65.95926 c 0,-0.2881 -1.44154,-2.34391 -3.20342,-4.56846 -5.42953,-6.85535 -7.41386,-12.48718 -7.43983,-21.11533 -0.0258,-8.58427 1.44763,-12.56553 5.96579,-16.11951 3.2906,-2.58839 7.54852,-2.83927 12.57111,-0.7407 7.09203,2.96324 11.96163,13.24159 11.14401,23.52183 -0.2125,2.67191 -0.23907,4.85802 -0.0591,4.85802 0.18003,0 1.68725,-0.70324 3.34937,-1.56276 3.67979,-1.90289 4.51932,-4.87445 4.44829,-15.74474 -0.0632,-9.68376 -1.48142,-13.04056 -8.79731,-20.8236 -7.78868,-8.28607 -10.24867,-9.8689 -15.33793,-9.8689 -5.73531,0 -8.39492,2.22658 -10.56903,8.84821 -0.92366,2.81319 -2.75772,6.57646 -4.07568,8.36284 -5.00386,6.78229 -1.99303,36.55163 4.63872,45.86508 2.06719,2.90308 2.26028,2.95658 4.75979,1.31884 1.43287,-0.93884 2.60521,-1.94271 2.60521,-2.23082 z m 111.69239,-6.95496 c 5.98347,-6.62345 6.55388,-7.6894 7.22943,-13.51007 1.04201,-8.97792 -0.89,-16.91644 -5.91851,-24.31891 -2.30902,-3.39911 -4.19938,-6.57887 -4.20077,-7.06611 -0.001,-0.48725 -1.71067,-3.45931 -3.79838,-6.60457 -4.40807,-6.64103 -8.12992,-8.35721 -18.07083,-8.33259 -9.5595,0.0237 -14.00946,2.59069 -18.80932,10.85039 -2.16081,3.71836 -4.94414,7.8415 -6.18519,9.16253 -3.09364,3.29303 -4.33882,8.27308 -4.33882,17.35291 0,9.79697 1.12064,12.07891 7.27073,14.8053 l 4.99593,2.21475 -0.34769,-8.34189 c -0.29504,-7.0785 0.0531,-9.21746 2.29907,-14.1232 2.83019,-6.18193 5.15462,-7.99384 11.91529,-9.28798 12.57933,-2.40798 22.93333,8.34387 22.93333,23.81453 0,6.77434 -1.98168,11.28503 -6.8268,15.5391 -2.47985,2.17733 -3.43004,3.62508 -2.55889,3.89883 0.76213,0.23949 2.10569,0.68445 2.98569,0.9888 3.24112,1.12096 5.06982,-0.006 11.42573,-7.04182 z m -102.69321,-0.85184 c 3.13921,-2.37012 5.99205,-5.37012 6.33966,-6.66666 1.06242,-3.96265 0.64168,-11.77949 -0.81582,-15.15736 -1.29854,-3.00944 -1.35158,-2.83769 -0.89056,2.88407 0.66704,8.27874 -0.25292,11.5254 -3.25278,11.4796 -1.90096,-0.029 -3.18436,-1.70076 -6.37968,-8.31011 -2.2,-4.55057 -4,-9.63528 -4,-11.29937 0,-2.99268 0.0588,-3.01997 5.39662,-2.50706 l 5.39661,0.51855 -2.99661,-1.97581 c -6.48966,-4.27892 -12.92319,-1.08031 -15.25659,7.58525 -1.32509,4.92101 -0.21102,12.60633 2.62141,18.08365 1.61473,3.12253 6.7928,9.67457 7.64581,9.67457 0.26636,0 3.05273,-1.93919 6.19193,-4.30932 z m 84.65379,2.80455 c 7.62356,-3.98274 11.04154,-11.34911 9.37871,-20.21281 l -0.69776,-3.71937 -2.58514,2.58514 c -3.79566,3.79566 -4.40199,3.58179 -9.88212,-3.48564 -3.83579,-4.94684 -4.45297,-9.19477 -1.6,-11.0126 1.4973,-0.95403 1.05286,-1.0797 -2.24615,-0.63508 -8.91671,1.20171 -13.43388,7.86932 -13.44919,19.85179 -0.0126,9.82035 0.6702,11.50664 5.69902,14.07577 8.22132,4.2001 11.26315,4.70492 15.38263,2.5528 z m -69.62475,-8.9559 c -0.32842,-0.32841 -1.18911,-6.8e-4 -1.91267,0.7283 -1.04561,1.05346 -0.92309,1.17598 0.59712,0.59712 1.05197,-0.40056 1.64397,-0.997 1.31555,-1.32542 z m -14.45331,-16.26658 c -1.36334,-3.29139 -4.0345,-4.83984 -5.61776,-3.25657 -0.64816,0.64816 -0.19471,2.1777 1.24502,4.19963 1.24547,1.74909 2.26449,3.43483 2.26449,3.74607 0,0.31125 0.5819,1.91716 1.29312,3.56868 l 1.29312,3.00277 0.37945,-4.13722 c 0.2087,-2.27547 -0.17715,-5.48098 -0.85744,-7.12336 z m 35.51205,1.49424 c -0.72216,-0.29218 -2.16216,-0.30996 -3.2,-0.0396 -1.03783,0.27044 -0.44696,0.5095 1.31304,0.53124 1.76,0.0218 2.60913,-0.19953 1.88696,-0.49172 z m 51.9797,-1.69453 c 0,-1.70416 -4.36513,-6.13913 -6.04246,-6.13913 -0.90021,0 -0.35513,1.48756 1.51926,4.14609 2.75884,3.91298 4.5232,4.6904 4.5232,1.99304 z m 94.31338,-21.33913 c 2.29285,-5.65927 2.90216,-21.63132 1.14484,-30.01016 -1.93764,-9.2386 -5.33324,-16.346123 -8.25185,-17.272454 -4.02667,-1.278014 -10.4394,-8.209129 -15.7884,-17.064691 -5.19396,-8.598837 -13.49129,-17.51936 -16.29548,-17.51936 -0.80218,0 -2.37291,-1.012485 -3.4905,-2.249966 -4.60138,-5.094997 -20.08858,-10.993597 -37.57261,-14.310258 -5.32556,-1.010246 -10.2812,-2.692759 -12.63409,-4.289468 -4.41303,-2.994768 -13.05317,-5.810943 -17.88555,-5.829634 -1.8002,-0.007 -5.91307,-0.721266 -9.13974,-1.58734 -6.91557,-1.856218 -20.29875,-2.02681 -37.33333,-0.475877 -29.58702,2.693787 -48.37609,12.004298 -62.81271,31.125485 -9.53155,12.624423 -16.99668,35.264481 -15.04138,45.617053 1.66066,8.7926 1.49978,8.65789 9.92587,8.31076 l 7.54303,-0.31076 2.70227,-5.25888 c 7.52525,-14.644869 24.7668,-24.598697 47.47392,-27.407446 24.26244,-3.001134 62.92641,2.23201 88.03729,11.915794 17.99908,6.941182 48.29055,30.566472 54.30369,42.353182 1.27125,2.49188 2.66162,4.55187 3.08969,4.57776 0.42809,0.0259 3.17833,0.71349 6.11166,1.52801 2.93334,0.81451 7.39783,1.51332 9.9211,1.55293 4.20365,0.0659 4.70536,-0.21826 5.99228,-3.39468 z m -165.31572,-72.617027 0.71013,-5.683693 -4.32057,-1.697164 c -5.90382,-2.319092 -5.61163,-4.602124 0.73748,-5.762073 l 5.05801,-0.924076 0.89001,-5.591315 c 0.51177,-3.215175 1.44505,-5.591316 2.19609,-5.591316 0.71835,0 2.36343,2.176309 3.65572,4.836242 l 2.34963,4.836242 5.32959,-0.706995 c 6.41216,-0.850603 7.04866,0.721742 2.18027,5.385944 -2.99072,2.865293 -3.07128,3.168097 -1.6,6.013261 1.81158,3.503194 2.01071,6.301972 0.44839,6.301972 -0.60551,0 -2.71538,-0.674565 -4.68862,-1.499033 -3.49584,-1.460657 -3.67781,-1.406042 -7.10832,2.133334 -5.23775,5.403995 -6.70489,4.888467 -5.83781,-2.05133 z m 12.29112,-3.40601 c 3.30536,1.709266 3.36081,1.700014 2.25005,-0.375462 -1.63359,-3.052389 -1.40895,-5.535036 0.71299,-7.87975 1.79873,-1.987577 1.74522,-2.026461 -1.86666,-1.356541 -3.41763,0.633885 -3.83668,0.418905 -5.17926,-2.656997 -1.5614,-3.577254 -2.93545,-3.185591 -3.51557,1.002087 -0.25159,1.816075 -1.39193,2.923809 -3.86207,3.751648 l -3.50508,1.174683 3.36551,1.270336 c 3.18408,1.201857 3.32511,1.488369 2.61609,5.315019 l -0.7494,4.044682 3.17227,-3.021079 c 3.11161,-2.963313 3.23706,-2.987571 6.56113,-1.268626 z m -76.35478,64.176037 c 2.37864,-5.69288 3.23632,-10.60977 1.76518,-10.11939 -0.69254,0.23085 -1.30627,0.88772 -1.36383,1.45972 -0.0576,0.572 -0.74155,3.15629 -1.52,5.74286 -0.77844,2.58657 -1.41535,5.10657 -1.41535,5.6 0,1.91049 1.10234,0.74325 2.534,-2.68319 z"
     id="path2174"
     inkscape:connector-curvature="0" />
</svg>
