<?xml version="1.0" encoding="UTF-8" standalone="no"?>
<!-- Created with Inkscape (http://www.inkscape.org/) -->

<svg
   xmlns:dc="http://purl.org/dc/elements/1.1/"
   xmlns:cc="http://creativecommons.org/ns#"
   xmlns:rdf="http://www.w3.org/1999/02/22-rdf-syntax-ns#"
   xmlns:svg="http://www.w3.org/2000/svg"
   xmlns="http://www.w3.org/2000/svg"
   xmlns:sodipodi="http://sodipodi.sourceforge.net/DTD/sodipodi-0.dtd"
   xmlns:inkscape="http://www.inkscape.org/namespaces/inkscape"
   version="1.1"
   id="svg1081"
   width="3457.0635"
   height="3016.7854"
   viewBox="0 0 3457.0635 3016.7854"
   sodipodi:docname="flat_luug_line.svg"
   inkscape:version="0.92.2 5c3e80d, 2017-08-06">
  <metadata
     id="metadata1087">
    <rdf:RDF>
      <cc:Work
         rdf:about="">
        <dc:format>image/svg+xml</dc:format>
        <dc:type
           rdf:resource="http://purl.org/dc/dcmitype/StillImage" />
        <dc:title />
      </cc:Work>
    </rdf:RDF>
  </metadata>
  <defs
     id="defs1085" />
  <sodipodi:namedview
     pagecolor="#ffffff"
     bordercolor="#666666"
     borderopacity="1"
     objecttolerance="10"
     gridtolerance="10"
     guidetolerance="10"
     inkscape:pageopacity="0"
     inkscape:pageshadow="2"
     inkscape:window-width="3836"
     inkscape:window-height="2094"
     id="namedview1083"
     showgrid="false"
     fit-margin-top="0"
     fit-margin-left="0"
     fit-margin-right="0"
     fit-margin-bottom="0"
     inkscape:zoom="0.43213778"
     inkscape:cx="2312.6452"
     inkscape:cy="1359.5397"
     inkscape:window-x="1920"
     inkscape:window-y="28"
     inkscape:window-maximized="0"
     inkscape:current-layer="g1640" />
  <g
     id="g1640"
     transform="translate(784.21786,169.62438)">
    <path
       style="fill:#690000;stroke-width:1.33333337"
       d="m 1437.4519,2846.1149 c -45.1085,-6.123 -86.6633,-20.9255 -118.5425,-42.2271 -41.4025,-27.6651 -66.3039,-61.768 -77.0225,-105.4835 -1.6848,-6.8717 -4.001,-13.5833 -5.147,-14.9145 -6.543,-7.6007 -94.7224,-39.6149 -140.7502,-51.1007 -39.6875,-9.9034 -80.7232,-16.6365 -132.0403,-21.6646 -31.826,-3.1183 -41.6308,-3.5164 -85.29296,-3.463 -81.4544,0.1 -146.3072,6.5142 -194,19.1884 -20.8639,5.5446 -28.7982,8.6807 -31.8828,12.6023 -1.4356,1.8251 -4.4998,8.99 -6.8091,15.9219 -17.3833,52.1786 -68.4188,113.096 -119.3081,142.4096 -31.0906,17.9088 -62.7572,25.849 -108,27.0802 -69.821,1.9 -118.451,-9.9088 -267.3334,-64.9164 -90.306301,-33.3654 -83.555201,-31.3538 -142.9172011,-42.5865 -68.1687999,-12.8991 -243.5200989,-55.5796 -282.4161989,-68.74 -25.4383,-8.6071 -50.4161,-20.2247 -64.6736,-30.0809 -28.5006,-19.7024 -45.1325,-50.8866 -46.9445,-88.0192 -1.1819,-24.2188 1.6566,-39.4727 16.9754,-91.2226 14.3633,-48.522 17.3893,-66.301 17.2298,-101.2316 -0.1091,-23.8633 -4.3024,-83.017 -6.0058,-84.7205 -0.8731,-0.8731 -14.6798,-1.5083 -37.3168,-1.7168 -33.3326,-0.3071 -37.6186,-0.071 -59.2645,3.2675 -38.7056,5.9692 -52.62,6.9428 -98,6.857 -46.2613,-0.088 -64.0104,-1.6066 -92.6666,-7.9316 -18.6174,-4.1092 -43.9973,-12.3866 -56.6554,-18.4776 -31.7354,-15.2709 -56.4372,-40.1824 -68.4448,-69.0258 l -7.8489,-17.834 c -6.8622,-15.6457 -7.6188,-33.1497 -5.6406,-51.486 l 7.9546,-45.8454 5.3846,-24.9332 c 8.4016,-33.4493 26.8567,-94.3773 36.2235,-119.5886 18.685,-50.2916 35.1995,-76.3586 57.5891,-90.9006 13.1931,-8.5688 26.1996,-11.9629 48.7712,-12.7269 24.5141,-0.8299 35.1173,0.5539 114.6667,14.9641 34.1,6.1771 74.1885,13.0595 89.0857,15.2942 14.8971,2.2346 29.6764,4.6436 32.8428,5.3532 3.1664,0.7096 13.5151,1.8805 22.997,2.6021 9.482,0.7216 55.3027,4.2879 101.8239,7.9251 99.4391,7.7745 106.5839,8.2344 106.5839,6.8597 0,-0.5739 -5.25,-2.3535 -11.6667,-3.9545 -27.5094,-6.8639 -156.6866,-43.767 -182.3333,-52.0886 -18.9257,-6.1408 -39.2571,-11.4972 -62.7352,-16.5281 -93.7773,-20.0943 -166.7219,-47.0156 -217.9315,-80.4309 -52.9244,-34.5343 -82.672,-72.5424 -89.3952,-114.2192 -2.6362,-16.3422 -0.9768,-50.6559 3.1668,-65.483 7.7336,-27.673 24.0853,-57.4913 63.2462,-115.3333 40.5623,-59.9119 68.9108,-91.4505 95.1785,-105.8889 23.7391,-13.0487 55.9946,-13.7053 92.926,-1.8919 17.9822,5.7522 132.5124,57.6172 146.1694,66.1929 9.7408,6.1167 89.1811,42.2348 104.7083,47.6066 4.7667,1.649 23.3667,9.415 41.3334,17.2577 55.3621,24.1663 92.365699,39.5171 94.279399,39.1113 1.0058,-0.2133 -3.6057,-4.452 -10.2477,-9.4196 -6.642,-4.9674 -35.616299,-28.0296 -64.387399,-51.249 -31.7181,-25.598 -64.3833,-50.6122 -82.9777,-63.5422 -46.0186,-31.9999 -68.7891,-49.493 -100,-76.823 -44.7861,-39.2173 -79.1385,-77.3677 -104.6471,-116.2169 -27.1558,-41.3579 -40.104,-82.2953 -38.3146,-121.137 2.0896,-45.35908 24.0296,-80.89008 72.0886,-116.74468 13.8047,-10.299 69.9785,-46.8077 98.2065,-63.8266 31.7435,-19.1385 62.169,-33.2859 84,-39.0588 16.0462,-4.2431 38.6888,-4.7547 51.8845,-1.1722 11.3716,3.0873 25.3497,10.2518 36.793,18.8586 13.7949,10.3753 42.259599,40.1947 68.675399,71.9437 49.4433,59.4258 97.5645,115.67798 119.1778,139.31508 12.3959,13.5567 28.4214,31.8567 35.6122,40.6667 15.5412,19.0405 37.919001,43.0151 39.087801,41.8769 0.4564,-0.4444 -2.7639,-6.2809 -7.1562,-12.97 -15.773001,-24.0209 -37.101001,-58.361 -40.715401,-65.5553 -2.0263,-4.0334 -6.2155,-10.3334 -9.3092,-14 -13.6559,-16.1845 -44.151,-59.44148 -62.9777001,-89.33338 -48.4992999,-77.0041 -83.5614999,-159.66343 -91.0565999,-214.66664 -1.0512,-7.71462 -1.4189,-21.76116 -1.0295,-39.33334 0.5358,-24.1813 1.0144,-28.8709 4.1496,-40.66666 12.5757,-47.31316 45.5489,-79.00919 102.1976,-98.23901 23.9663,-8.13552 121.172601,-33.59286 151.713201,-39.73211 45.6917,-9.18492 76.1905,-7.90827 97.1181,4.06527 9.2624,5.29942 22.6224,19.75573 30.8469,33.37825 6.8148,11.28763 10.2504,18.98793 62.9959,141.19426 34.0065,78.78971 33.6607,78.02806 55.3881,121.99488 9.216,18.6491 17.1042,36.1795 17.5295,38.9563 0.9681,6.3221 13.0457,32.3822 15.0077,32.3822 0.8148,0 1.1576,-1.3159 0.7816,-3 -0.3685,-1.65 -3.3912,-21.6 -6.7173,-44.3334 -4.2891,-29.3158 -6.9813,-43.69611 -9.2598,-49.45995 -9.0486,-22.89069 -24.7913,-109.92581 -30.9675,-171.20669 -3.3197,-32.93867 -3.3149,-100.83973 0.01,-128.65893 7.706,-64.49203 24.0691,-105.50368 54.063,-135.50043 12.5119,-12.51311 27.134,-22.74169 37.9429,-26.54227 l 6.882,-2.41982 0.9642,-34.43928 c 1.0218,-36.49696 3.9956,-77.85321 7.1572,-99.53341 12.9454,-88.770189 53.6805,-171.343629 114.5606,-232.223799 54.9403,-54.940271 137.1515,-99.400911 216.6514,-117.167301 25.4412,-5.68552 47.4056,-8.53977 84.32694,-7.38779 36.0198,1.12385 49.58432,2.69599 66.33962,5.05304 84.8854,11.94125 142.58,34.59191 195.1832,76.628071 17.2775,13.80673 49.4363,45.83871 62.6168,62.36987 16.6776,20.9173697 32.2348,45.55177 45.3571,71.82205 36.1204,72.311699 53.642,150.226059 58.1697,258.666669 0.8114,19.43333 1.9626,35.8211 2.5582,36.41728 0.5956,0.59617 5.4817,1.69352 10.858,2.43856 52.0638,7.21492 86.9825,32.79937 109.839,80.47749 25.9424,54.11533 33.2311,131.21016 22.3116,236 -5.801,55.66977 -19.4592,130.23809 -28.8176,157.33334 -3.6596,10.5953 -5.1686,19.3333 -3.3389,19.3333 3.3349,0 33.3188,-65.18824 70.8336,-153.99998 45.2665,-107.16314 51.8939,-120.48093 68.8781,-138.41235 9.6824,-10.22246 18.5924,-15.91984 30.9817,-19.81086 13.9667,-4.38641 46.4346,-4.37016 69.9028,0.0351 16.0103,3.00524 84.0403,19.96193 129.4842,32.27432 57.7344,15.64232 82.7858,28.1015 105.4076,52.4237 16.8096,18.07328 28.9031,42.72002 33.216,67.69512 3.3945,19.65666 2.1129,60.24808 -2.6401,83.61827 -14.7787,72.66428 -60.9523,165.94688 -127.4645,257.51006 -8.2568,11.3667 -17.8522,23.9739 -21.3233,28.016 -6.2253,7.2496 -12.0132,17.3773 -12.0132,21.0207 0,1.0281 -1.1133,2.8654 -2.4739,4.0829 -1.3606,1.2176 -14.658,21.1138 -29.5496,44.2138 -14.8916,23.1 -31.5004,48.528 -36.9084,56.5065 -5.4081,7.9785 -9.4509,14.8785 -8.984,15.3333 1.4646,1.4266 74.7047,-73.8852 84.4504,-86.839 5.1038,-6.7838 17.8715,-21.6452 28.3726,-33.0253 18.4553,-20.0002 87.5721,-100.70638 128.4389,-149.97548 24.7223,-29.8053 60.3449,-65.8229 73.8556,-74.6744 37.3171,-24.4482 76.3433,-21.834 134.7984,9.0294 35.4845,18.7353 127.5981,78.1478 146.8927,94.7445 26.0244,22.3855 44.6062,51.4738 51.2541,80.23378 3.5039,15.1586 3.518,50.3969 0.027,65.3333 -16.9607,72.5502 -85.9775,157.3572 -194.8398,239.417 -19.8136,14.9354 -49.7966,36.0238 -58.6666,41.2627 -2.9334,1.7326 -15.2334,11.3163 -27.3334,21.2974 -40.5761,33.4701 -51.2161,42.0572 -74.3333,59.991 -20.9771,16.2736 -25.0853,20.0319 -21.8976,20.0319 0.6063,0 22.3563,-9.2112 48.3333,-20.4695 25.977,-11.2582 49.631,-21.2269 52.5643,-22.1526 10.2513,-3.2351 83.0944,-36.0695 93.7967,-42.2792 11.1464,-6.4675 96.9929,-47.46 121.5366,-58.0348 47.3796,-20.414 83.3902,-26.6643 109.3334,-18.9768 33.9894,10.0716 69.227,46.0848 119.172,121.7944 42.5764,64.54 54.5545,88.0768 60.2648,118.4186 3.1093,16.5222 2.0376,51.4834 -2.0142,65.6999 -14.0304,49.2288 -58.6368,92.4831 -131.4226,127.4388 -40.8587,19.6225 -77.4016,32.1369 -136.1236,46.6163 -48.0316,11.8433 -57.7606,13.9449 -64.554,13.9449 -2.8435,0 -7.1543,1.1419 -9.5795,2.5373 -8.302,4.7772 -123.9217,39.0667 -200.7429,59.5346 -26.9543,7.1816 -18.8203,7.2316 67,0.412 146.9544,-11.6776 151.3894,-12.2182 260.3778,-31.7327 89.1216,-15.9575 93.3626,-16.5117 120.2888,-15.7215 17.7582,0.5212 23.7996,1.2158 31.3334,3.6024 33.292,10.5466 53.0164,36.4987 76.8513,101.1158 7.3787,20.0037 28.2243,88.8945 35.2097,116.3616 l 4.6056,18.1094 11.8632,54.3242 c 1.7507,13.7536 3.4078,27.2679 -2.2499,43.6883 0.2296,7.1437 -4.9649,18.3077 -8.4032,28.0713 -17.5892,42.2512 -61.9987,68.278 -123.889,83.518 -23.0657,5.6797 -40.1632,7.9024 -71.9877,9.3585 -40.5498,1.8553 -88.5883,-1.038 -140.6668,-8.4721 -9.9097,-1.4147 -33.438,-2.0442 -91.6315,-2.4516 -43.064,-0.3015 -78.6086,-0.2376 -78.9881,0.142 -0.3796,0.3794 1.3201,3.1453 3.7772,6.1462 29.5117,36.045 35.1955,73.0216 17.0295,110.7896 -10.7035,22.2531 -33.3546,46.936 -64.2359,69.9983 -15.7945,11.7953 -130.3023,88.3525 -185.4711,124.0017 -38.1656,24.662 -51.0313,33.9822 -118.0788,85.5379 -85.3613,65.638 -95.2679,73.5379 -122.4012,97.6072 -39.6607,35.1821 -55.7724,47.0025 -82,60.1591 -21.7485,10.9097 -41.1898,17.1201 -71.3333,22.7865 -14.0397,2.6392 -77.9163,3.8677 -93.2044,1.7925 z m 67.3964,-38.5832 c 39.6483,-3.9242 69.7712,-14.1566 100.0183,-33.9747 7.4175,-4.8599 30.2992,-23.3484 51.0083,-41.2147 25.7285,-22.1966 62.7342,-51.6945 117.5022,-93.6629 78.538,-60.1831 81.4487,-62.2556 165.2792,-117.6872 157.5704,-104.1911 179.1842,-120.1225 195.2471,-143.9169 25.6719,-38.0278 8.3527,-67.2587 -93.6177,-158.0076 -37.6652,-33.5202 -47.2124,-43.2478 -60.0076,-61.1399 -24.7385,-34.5931 -36.3264,-65.72 -46.3175,-124.4175 -8.1687,-47.9901 -13.0251,-61.7432 -27.8837,-78.9644 -9.096,-10.5422 -23.3831,-22.621 -31.7462,-26.8394 -7.3445,-3.7047 -24.3353,-7.6382 -40.6218,-9.4042 -16.3132,-1.7689 -47.1058,-1.8261 -50.3432,-0.093 -1.3468,0.7208 -6.1308,8.2608 -10.6311,16.7556 -27.1561,51.2608 -51.4909,86.3859 -80.5164,116.2185 -46.6481,47.9454 -100.7512,75.672 -162.2285,83.139 -23.6215,2.8689 -46.2894,-0.9392 -67.3334,-11.3122 -19.1949,-9.4616 -34.5734,-26.0778 -46.9924,-50.7748 -18.5312,-36.8524 -29.7022,-83.0316 -32.1849,-133.0476 -0.5745,-11.5744 -1.6512,-21.6509 -2.3927,-22.3924 -2.2005,-2.2005 -15.435,3.558 -22.5301,9.8034 -15.3268,13.4912 -24.5397,35.5385 -29.976,71.7354 -2.0761,13.8235 -2.9688,29.5838 -3.9213,69.2312 -0.6784,28.2334 -1.8447,66.0334 -2.5918,84 -0.747,17.9667 -2.2874,63.5667 -3.4232,101.3334 -3.0504,101.4357 -3.4464,104.4744 -26.675,204.6666 -15.5566,67.0998 -19.7196,89.6618 -23.3468,126.5275 -2.1667,22.0219 3.0533,74.8453 10.0933,102.1392 10.6123,41.1431 40.9364,75.2379 86.6076,97.3769 42.5493,20.6258 90.2339,28.8018 139.5253,23.9231 z M 452.70374,2779.7151 c 50.1625,-10.0958 89.6374,-37.3648 127.1175,-87.8114 16.7904,-22.5994 27.2841,-42.8834 33.164,-64.1048 2.4721,-8.9227 2.8449,-13.9068 2.9086,-38.9006 0.085,-33.4737 -2.6906,-52.1845 -10.7818,-72.6666 -11.4139,-28.8934 -27.1478,-51.4572 -69.9133,-100.2622 -37.9075,-43.2609 -37.4556,-42.6485 -106.5628,-144.4045 -14.1942,-20.9 -62.4747,-90.5 -107.2901,-154.6667 -44.8154,-64.1666 -88.6003,-127.1666 -97.2999,-140 -45.6847,-67.3929 -74.4007,-96.4334 -107.5066,-108.7214 -19.310401,-7.1675 -43.321301,-4.5787 -68.969501,7.4361 -21.779,10.2023 -36.7889,26.0481 -52.9135001,55.8603 -32.6997999,60.4574 -46.0708999,77.7977 -74.5851999,96.7256 -25.101299,16.6622 -36.369899,20.5204 -105.414799,36.0917 -27.8667,6.2847 -56.7574,13.456 -64.2018,15.9361 -30.1047,10.03 -45.5284,20.9974 -54.8482,39.0011 -14.0859,27.2107 -16.2065,51.264 -10.6859,121.2067 4.7345,59.9845 3.5615,121.7116 -3.0495,160.4638 -3.679,21.5654 -8.0079,38.0332 -17.8934,68.0691 -13.9492,42.3825 -14.8591,50.3952 -8.0098,70.5329 15.3553,45.1466 43.515,60.4288 169.3553,91.9098 74.495,18.636 161.784999,38.443 223.999999,50.828 41.5642,8.274 68.695801,16.8866 140.666601,44.6536 92.4217,35.657 142.4974,49.921 194.0001,55.261 17.9574,1.8619 53.6415,0.596 68.714,-2.4376 z m 449.82796,-350.877 c 143.2922,-10.6546 260.5264,-66.9451 354.3644,-170.1496 8.9969,-9.895 18.5277,-20.8784 21.1794,-24.4076 4.7651,-6.3416 4.8322,-6.61 5.7179,-22.8998 1.5335,-28.1984 4.6899,-108.3252 5.5604,-141.1494 0.9845,-37.1223 3.8683,-78.1108 6.8012,-96.6667 4.4661,-28.2561 13.8303,-49.5491 28.3135,-64.3813 14.5969,-14.9486 28.828,-22.5602 57.4029,-30.7026 2.5891,-0.7377 3.6887,-2.6037 5.6469,-9.5828 4.13,-14.7193 10.2224,-25.097 21.2576,-36.2098 8.4886,-8.5484 12.396,-11.3055 24.0095,-16.9411 16.0975,-7.8116 27.6365,-11.2436 49.8709,-14.8327 31.0376,-5.01 67.1698,-7.0474 114.3334,-6.447 54.9633,0.6996 57.417,-0.419 11.9953,-5.4683 -20.0084,-2.2243 -50.3696,-4.5731 -74.9953,-5.8017 -5.6928,-0.284 -6.0211,-0.5163 -6.4108,-4.5383 -0.2259,-2.3313 1.3601,-9.5313 3.5246,-16 25.3132,-75.6501 34.9146,-130.1305 31.0518,-176.1957 -5.1582,-61.5136 -18.7367,-109.7328 -45.313,-160.9119 -8.7976,-16.9421 -25.4101,-43.6045 -28.2698,-45.372 -0.7598,-0.4695 3.0338,7.75 8.4302,18.2657 33.1438,64.585 47.6019,125.096 47.6394,199.3846 0.02,40.9149 -4.0091,66.4433 -16.6711,105.6106 -8.6713,26.8234 -25.7471,64.7275 -32.7553,72.7096 -5.2219,5.9472 -13.0938,7.6308 -33.325,7.1272 l -15.2344,-0.3792 -0.8197,-48.6666 c -1.4992,-88.9982 -11.0044,-149.7603 -35.8755,-229.3334 -16.8068,-53.7722 -56.4178,-149.7856 -76.1857,-184.6666 -15.4755,-27.3071 -40.2948,-62.8573 -56.0423,-80.2727 -6.5266,-7.218 -7.1185,-8.7145 -11.7564,-29.7273 -4.491,-20.3481 -10.5898,-43.9275 -13.9996,-54.1259 -1.7394,-5.2025 -13.0505,-31.9026 -25.1357,-59.3333 -12.0852,-27.4308 -23.5673,-54.0741 -25.5157,-59.2075 -14.7528,-38.86738 -27.9011,-81.46578 -39.5076,-127.99998 -6.6498,-26.6602 -26.9214,-124.50384 -33.2462,-160.46622 -0.948,-5.38976 -2.456,-10.08064 -3.3512,-10.42418 -2.2165,-0.85055 -12.0753,4.31588 -27.1377,14.22125 -16.6483,10.94833 -31.9305,22.62295 -68.3279,52.19775 -44.802,36.404 -62.5858,48.5841 -94.0289,64.3998 -50.68086,25.4924 -93.88416,34.9222 -144.47476,31.5337 -53.4328,-3.5788 -88.7834,-19.3828 -123.7541,-55.326 -6.1375,-6.3082 -11.5743,-11.4694 -12.0819,-11.4694 -0.5076,0 -2.0069,4.7764 -3.332,10.6141 -4.5973,20.2547 -18.9557,47.7267 -30.2913,57.9562 -12.1163,10.9341 -26.4989,11.6653 -41.5613,2.113 -3.4836,-2.2092 -7.0999,-4.0166 -8.0364,-4.0166 -1.1382,0 -3.5884,8.9526 -7.3896,27 -10.8398,51.4644 -24.7238,102.81788 -37.0033,136.86568 -7.1986,19.9599 -32.3272,73.3119 -49.047,104.1343 -14.9786,27.6125 -18.2351,35.3462 -30.0347,71.3261 l -9.5384,29.0849 -11.8073,14.2658 c -29.6405,35.8118 -55.0248,82.3866 -85.0181,155.9898 -15.591,38.26 -23.4701,61.1492 -36.9471,107.3333 -31.1046,106.5919 -43.116,171.5866 -45.647,247 l -0.8614,25.6667 h -3.5182 c -8.5024,0 -19.0526,-19.0532 -30.6393,-55.3333 -19.322,-60.5011 -21.1608,-148.6168 -4.7677,-228.473 3.735,-18.1942 9.758,-43.3458 11.4384,-47.7656 0.6472,-1.7021 0.7165,-3.0948 0.1541,-3.0948 -2.8755,0 -18.4415,53.5083 -24.8463,85.4092 -8.9939,44.7972 -11.8579,75.2627 -11.0504,117.5494 0.5418,28.374 1.2032,36.9785 4.1794,54.3748 12.1701,71.135 32.6699,122.9638 64.3395,162.6666 10.4928,13.1543 54.4064,57.2219 76.5559,76.8242 8.3841,7.42 52.7438,41.8669 98.5771,76.5488 45.8334,34.6818 89.3869,68.3818 96.7858,74.8889 26.1108,22.9635 39.6862,42.4293 46.1773,66.2135 2.2021,8.0686 2.7947,14.2181 2.8452,29.5246 0.057,17.515 -0.272,20.3366 -3.5056,30 -8.7107,26.0312 -31.0534,52.0058 -60.636,70.4923 -3.1167,1.9476 -5.6667,4.3613 -5.6667,5.3639 0,2.5486 8.7718,9.4609 27.792,21.9002 32.1604,21.0331 74.6603,39.2298 123.5414,52.8951 44.318,12.3896 81.013,17.8748 142,21.226 13.6678,0.7511 74.6409,-0.5075 93.87526,-1.9377 z m 1400.2085,-176.344 c 0.3667,-0.9558 -11.3521,-86.3811 -26.0419,-189.834 -14.6897,-103.453 -26.7086,-188.771 -26.7086,-189.5956 0,-1.9983 -7.1043,-1.8984 -31.4307,0.4418 -88.5215,8.5163 -258.2449,19.5831 -260.8211,17.007 -0.689,-0.689 -1.0641,-3.8404 -0.8338,-7.0032 l 0.4188,-5.7506 25.3333,-5.6033 c 30.2762,-6.6965 93.3384,-22.7504 136.6667,-34.7912 56.9409,-15.8237 132.4711,-39.3261 133.9205,-41.6713 0.3643,-0.5895 -31.1588,-74.8096 -70.0513,-164.9336 -38.8924,-90.124 -72.5084,-168.161 -74.7021,-173.4155 -2.1938,-5.2545 -4.7583,-9.8491 -5.699,-10.21 -0.9408,-0.3611 -6.9343,1.6804 -13.4678,4.6146 -17.3407,7.788 -99.1396,42.682 -113.5811,48.4518 -1.0113,0.4664 -32.9329,11.0689 -34.3481,11.5149 -4.6577,1.8926 -8.1433,4.7441 -8.7843,4.348 -1.9089,-1.1797 -1.3388,-3.5396 1.615,-6.6837 1.5292,-1.6278 3.562,-5.2332 4.5173,-8.0122 1.3492,-3.9242 3.1845,-5.8266 8.2197,-8.5197 13.9326,-7.4515 156.3724,-120.1045 157.4093,-124.4886 0.2099,-0.8871 -3.3901,-5.1816 -8,-9.5434 -18.6008,-17.6001 -268.1028,-241.33 -270.2771,-242.359 -1.898,-0.8983 -9.4868,6.1586 -40.1474,37.3333 -20.794,21.1427 -48.7956,49.2411 -62.2259,62.4411 -13.4303,13.2 -24.414,24.9317 -24.4081,26.0707 0,1.1388 3.192,7.1388 7.0804,13.3333 57.0673,90.912 103.9489,181.765 128.2793,248.596 25.3299,69.5764 35.8016,123.3212 37.5395,192.6666 1.3808,55.0984 -4.7411,103.9154 -21.6915,172.9714 -1.3011,5.3009 -2.0865,9.9172 -1.7452,10.2584 0.3412,0.3412 6.9003,1.6188 14.5759,2.839 27.2486,4.3322 41.7741,10.7982 57.426,25.5632 15.6033,14.7195 27.8904,32.7899 35.6081,52.368 5.6551,14.3459 9.0251,29.2744 14.2188,62.989 7.0516,45.7738 10.9602,59.3442 24.869,86.3444 14.563,28.2702 28.0024,42.991 79.4402,87.0146 17.4588,14.9423 38.612,33.2767 47.0072,40.7432 14.3687,12.7792 15.62,13.5863 21.3334,13.7599 3.3381,0.1013 15.9694,0.5923 28.0693,1.0905 12.1,0.4984 46.4689,1.0154 76.3752,1.149 43.6285,0.1948 54.5069,-0.1 55.0421,-1.4948 z m -2663.41716,-15.5688 c 1.7188,-1.0876 1.9321,-6.474 1.5175,-38.313 -0.5615,-43.11 1.2356,-60.5282 8.5218,-82.5941 9.2118,-27.898 19.4986,-42.4175 39.2464,-55.3956 25.3011,-16.6276 49.4815,-24.9833 105.3809,-36.4152 53.4278,-10.9263 71.3078,-16.1357 92.2291,-26.8715 19.832799,-10.177 35.547399,-27.2678 58.461399,-63.5806 22.9362,-36.3479 41.7881,-63.5827 51.7360999,-74.7416 l 10.595,-11.8847 0.6982,-51.4487 c 0.6899,-50.8353 2.1247,-72.1109 7.0213001,-104.1153 6.7993,-44.4401 25.0628,-116.4553 39.8352,-157.0751 17.1372,-47.1221 44.6918,-100.9869 83.177101,-162.5974 22.5992,-36.1789 150.6278,-224.6755 185.42,-272.9941 38.1708,-53.0107 57.2734,-81.2041 74.9828,-110.66698 15.1117,-25.1409 40.917,-73.6987 41.9735,-78.9813 0.912,-4.5597 -16.5982,-43.446 -19.8559,-44.0954 -3.1382,-0.6257 -6.2225,1.0749 -160.2737,88.3688 -79.2001,44.8791 -148.6501,84.14008 -154.3334,87.24658 -5.683301,3.1066 -10.333301,6.4792 -10.333301,7.4946 0,2.9194 15.602601,27.9306 51.964701,83.3003 50.0065,76.1466 48.845,74.3015 47.5765,75.5699 -1.4736,1.4737 -11.3325,-3.1873 -19.5412,-9.2384 -4.7667,-3.5139 -28.7394,-27.0759 -53.2727,-52.3601 -24.533301,-25.2843 -45.552001,-45.9714 -46.708101,-45.9714 -1.1561,0 -57.3409,49.65 -124.8551,110.3334 -141.603099,127.2762 -153.860799,138.5574 -153.746399,141.4979 0.046,1.1928 7.3965,8.2119 16.3334,15.598 27.3491,22.6035 105.389799,83.9355 133.535299,104.9451 14.6409,10.9288 28.3464,21.3235 30.4567,23.0992 3.7633,3.1665 10.2403,14.2401 10.2513,17.5264 0.01,2.5955 -6.5341,1.9601 -10.2973,-1 -1.8645,-1.4667 -4.3757,-2.6667 -5.5803,-2.6667 -1.2046,0 -3.3736,-0.822 -4.8201,-1.8265 -1.4465,-1.0047 -11.1112,-5.1601 -21.4771,-9.2345 -10.3658,-4.0743 -51.055999,-21.0322 -90.422599,-37.6842 -41.0317,-17.3562 -72.0663,-29.7737 -72.7254,-29.0988 -0.6324,0.6475 -9.2208,19.7774 -19.0854,42.5107 -17.9265,41.3123 -120.7389,279.0583 -127.667,295.2201 -2.0166,4.7044 -3.4029,9.2407 -3.0805,10.0807 0.95,2.4756 82.833,27.2347 151.8279,45.9084 60.4156,16.3517 135.598499,34.7908 141.854499,34.7908 2.5811,0 2.7705,0.5232 2.0501,5.6667 -1.2217,8.724 -1.4342,9 -6.9294,9 -2.8097,0 -5.8143,0.7058 -6.677,1.5685 -1.2024,1.2024 -2.1204,1.0956 -3.9333,-0.4573 -1.8605,-1.5938 -9.6164,-2.3706 -36.364899,-3.6416 -57.2807,-2.7222 -72.8367,-3.791 -186.6666,-12.826 -23.1,-1.8336 -44.0973,-3.4784 -46.6606,-3.6554 l -4.6605,-0.3216 -2.3908,16 c -13.2594,88.7354 -51.4735,364.0147 -50.647,364.8411 0.5895,0.5896 8.5614,1.2617 17.7154,1.4937 9.1539,0.2322 21.1435,0.5426 26.6435,0.6899 5.5,0.1473 10.9,-0.3016 12,-0.9977 z M 1648.6563,1795.565 c 0,-0.7333 -0.9,-1.3333 -2,-1.3333 -1.1,0 -2,0.6 -2,1.3333 0,0.7333 0.9,1.3333 2,1.3333 1.1,0 2,-0.6 2,-1.3333 z m 58.9054,-601.6666 c 43.5549,-63.4651 83.3008,-126.1358 82.0546,-129.3829 -0.3864,-1.007 -10.8104,-7.421 -23.1645,-14.2535 -25.1367,-13.9018 -258.8865,-146.60758 -283.7531,-161.09378 -8.7766,-5.1129 -16.6453,-9.0323 -17.486,-8.7097 -1.9238,0.7382 -4.5564,6.4077 -4.5564,9.8124 0,5.2995 33.3232,55.7188 81.8656,123.86608 51.4395,72.2142 93.3816,132.8676 120.157,173.7614 12.3638,18.8833 23.1454,34.3333 23.9589,34.3333 0.8136,0 10.2292,-12.75 20.9239,-28.3333 z M 606.44684,896.40522 c 6.6757,-2.7893 13.5205,-11.8412 22.2909,-29.4783 5.4147,-10.8887 8.6608,-19.4262 10.1233,-26.624 2.051,-10.0946 2.0099,-11.9524 -0.8694,-39.3029 -3.3946,-32.24558 -3.0795,-47.97118 1.3314,-66.43883 3.8718,-16.21043 9.3719,-26.00363 21.3222,-37.96519 12.7082,-12.72021 24.6725,-18.82276 50.6778,-25.84904 21.039,-5.68441 26.7444,-8.3263 39.4474,-18.26566 10.62,-8.30956 21.0824,-20.59235 30.8773,-36.24959 3.6701,-5.86667 12.4957,-19.66121 19.6127,-30.65453 14.1528,-21.86152 23.5676,-38.62027 25.9901,-46.26383 1.2853,-4.05546 1.192,-5.62773 -0.5321,-8.96176 -2.8171,-5.44757 -10.4014,-10.37285 -18.9023,-12.27526 -11.3189,-2.53307 -17.7463,1.44576 -39.4207,24.40298 -17.2712,18.29346 -18.5666,19.33942 -49.121,39.66053 -58.6236,38.98954 -67.1439,46.32067 -93.8579,80.75854 -20.6793,26.65856 -24.3916,31.98197 -29.7536,42.66666 -11.4856,22.88691 -32.1917,102.61398 -34.4964,132.82438 -1.0712,14.0436 1.9544,25.6569 9.8788,37.9175 6.0567,9.3708 11.7829,14.5068 20.9444,18.7853 7.8088,3.6468 8.6817,3.7261 14.4571,1.313 z m 240.1078,-11.6203 c 3.6108,-0.6813 6.8608,-1.5345 7.2223,-1.896 1.7872,-1.7872 -1.884,-1.9255 -13.8017,-0.52 -13.3854,1.5786 -66.4794,0.9517 -72.3188,-0.8539 -1.7474,-0.5403 -3,-0.3637 -3,0.4231 0,0.7429 4.95,2.0191 11,2.8361 6.05,0.817 12.5,1.7374 14.3333,2.0454 5.3699,0.9022 49.3923,-0.6814 56.5649,-2.0347 z m 14.1018,-3.8865 c 0,-0.7334 -0.6,-1.3334 -1.3334,-1.3334 -0.7333,0 -1.3333,0.6 -1.3333,1.3334 0,0.7333 0.6,1.3333 1.3333,1.3333 0.7334,0 1.3334,-0.6 1.3334,-1.3333 z m -26.6268,-12.7035 c 38.5717,-4.7249 71.27766,-16.1919 107.69156,-37.7574 21.6223,-12.8057 41.8205,-27.4728 82.9519,-60.237 37.5851,-29.93921 53.9096,-41.61604 75.3166,-53.87353 15.4156,-8.82691 21.0288,-13.72831 25.3037,-22.09528 7.3229,-14.33252 12.3924,-44.54295 9.994,-59.55656 -4.6287,-28.97404 -19.7312,-38.61819 -111.2977,-71.07198 -48.6375,-17.23852 -60.6059,-21.63328 -97.3857,-35.75986 -39.79736,-15.28549 -59.50836,-21.86444 -79.28096,-26.46149 -49.8058,-11.57973 -104.9108,0.61828 -163.2694,36.14128 -16.8211,10.23892 -54.5662,36.39684 -67.6691,46.89558 -29.2087,23.4034 -53.9404,56.92843 -58.6855,79.55086 -1.3292,6.3374 -1.2703,8.62792 0.3424,13.2928 1.6994,4.91605 3.2978,6.4451 12.5115,11.96937 5.8099,3.48333 11.5099,6.32469 12.6667,6.31412 1.1569,-0.0107 3.6762,-2.86056 5.5986,-6.33333 4.6275,-8.35943 37.0618,-50.63242 47.0968,-61.38308 4.359,-4.6698 12.759,-12.35994 18.6667,-17.0892 10.8739,-8.70476 61.3727,-43.9206 76.0747,-53.05148 4.7481,-2.94888 16.4006,-13.5242 28.6666,-26.01647 22.7875,-23.20792 27.9968,-26.64926 42,-27.74572 6.0747,-0.47565 9.7648,0.0519 15.3334,2.19187 17.5941,6.76159 26.4338,17.90491 24.856,31.33321 -1.1135,9.47458 -12.9872,32.49977 -29.4951,57.19567 -7.4452,11.13809 -16.7064,25.53238 -20.5804,31.98732 -11.982,19.96469 -36.0872,43.01686 -52.6373,50.3378 -3.3919,1.50038 -13.01,4.48033 -21.3736,6.6221 -26.064,6.67452 -35.8287,11.33102 -47.4039,22.60558 -8.5759,8.35318 -17.4969,25.88405 -14.5581,28.60814 4.402,4.08028 41.3016,17.42784 63.1924,22.85838 20.2013,5.0114 56.4093,8.43534 76,7.1868 42.2656,-2.69368 85.9788,-14.38763 126.66656,-33.88524 40.2179,-19.27238 86.802,-49.07128 126,-80.59944 19.6092,-15.77226 23.3505,-17.81026 34.0212,-18.53203 15.7848,-1.06771 25.9788,4.50055 25.9788,14.19033 0,7.0387 -4.1139,11.22652 -19.5481,19.89975 -6.7182,3.77523 -21.1182,13.07699 -32,20.67057 -25.6324,17.88687 -80.4218,53.35358 -95.7852,62.00448 -34.6595,19.5162 -80.30006,35.9153 -127.99996,45.99148 -19.4679,4.1124 -20.9047,4.2247 -54,4.2184 -30.3893,-0.01 -35.4808,-0.3287 -47.9447,-3.0418 -18.2944,-3.98217 -39.2085,-10.8112 -60.2841,-19.68438 -9.3889,-3.95294 -17.9784,-7.18716 -19.0877,-7.18716 -1.4918,0 -2.0168,1.51321 -2.0168,5.81288 0,5.33904 0.9358,6.94217 11.4816,19.66666 46.5798,56.204 80.7282,73.5058 149.2249,75.6071 4.4219,0.1357 15.5219,-0.6698 24.6667,-1.7901 z m 611.99066,-6.2965 c 0.017,-0.9167 1.1887,-9.4649 2.6042,-18.9959 1.4153,-9.5311 2.0858,-17.8168 1.49,-18.4127 -1.2343,-1.2342 -21.1178,3.5348 -23.1308,5.5479 -1.2024,1.2025 5.1896,14.5715 13.9582,29.194 2.6502,4.4193 5.0232,5.6654 5.0784,2.6667 z m -983.38936,-3.3334 c 4.9874,-12.5599 19.4535,-56.8301 18.9765,-58.073 -0.7591,-1.9781 -30.3557,-9.42103 -31.6927,-7.97007 -0.5286,0.57371 1.3537,15.74307 4.1828,33.70977 2.8292,17.9667 5.1623,33.1167 5.1847,33.6667 0.078,1.9182 2.4293,0.9821 3.3487,-1.3334 z m 352.3184,-75.67111 c 14.4549,-2.34437 47.4768,-10.64545 66.3737,-16.68512 42.44536,-13.56595 69.72916,-27.37991 119.33326,-60.41901 16.436,-10.94728 15.2627,-10.07322 14.5196,-10.8162 -0.3252,-0.3253 -6.5752,3.27205 -13.8888,7.9941 -19.9608,12.88782 -20.2856,13.08774 -34.6308,21.31595 -44.1617,25.33067 -85.31086,41.40851 -127.39126,49.77452 -48.2137,9.58536 -100.0094,6.73929 -146.3496,-8.04161 -11.864,-3.78423 -18.6916,-4.56075 -12.9141,-1.46878 5.4559,2.91996 39.0171,13.60772 49.3217,15.70687 23.4787,4.78277 64.5958,6.05013 85.6263,2.63928 z M 1031.9897,684.3823 c 4.4,-2.97596 13.0457,-9.02728 19.2129,-13.44738 6.1671,-4.4201 16.3215,-11.03654 22.5655,-14.70321 11.7902,-6.92365 14.6882,-10 9.4204,-10 -5.0794,0 -13.3042,4.85205 -25.6028,15.10363 -6.4556,5.38105 -17.364,13.93408 -24.2411,19.00672 -6.8769,5.07264 -12.5452,9.7084 -12.596,10.30168 -0.1107,1.29493 0.9073,0.72785 11.2411,-6.26144 z m 61.8456,-137.15059 c 10.5234,-13.99034 25.9325,-39.3899 34.1756,-56.33333 14.3973,-29.59327 18.3774,-45.30796 18.4049,-72.66667 0.055,-54.65946 -22.7081,-104.65437 -58.7881,-129.11856 -41.1628,-27.91052 -89.031,-26.50397 -133.0246,3.90876 -18.5055,12.7929 -37.3721,34.66318 -47.6875,55.28007 -8.2828,16.55404 -15.8082,43.37753 -20.24616,72.16563 -2.5488,16.5323 -3.957,48.78058 -2.4308,55.65913 l 1.1602,5.22835 17.14806,5.73542 c 17.0443,5.70071 20.3435,6.0781 18.8379,2.15476 -0.4327,-1.12752 -1.3635,-7.61285 -2.0686,-14.41185 -2.2772,-21.96145 1.8156,-44.14707 12.0782,-65.47031 5.3085,-11.02985 8.558,-15.69768 17.5547,-25.21741 18.295,-19.35819 33.3159,-26.96564 55.7072,-28.21328 19.4658,-1.08461 33.774,3.45928 49.1402,15.60553 13.1526,10.39658 26.426,32.36992 31.428,52.0271 9.2356,36.29577 -1.7176,80.58902 -26.276,106.25585 -4.3447,4.54071 -7.6695,8.94559 -7.3884,9.7886 0.4784,1.43509 31.8434,14.3082 35.3864,14.52353 0.8929,0.0543 3.9929,-3.05132 6.8888,-6.90132 z m -478.84556,-0.8579 c 1.65,-1.41326 3,-2.99691 3,-3.51924 0,-0.52234 -3.5623,-4.75783 -7.9163,-9.4122 -20.8568,-22.29598 -30.6506,-52.53252 -29.0705,-89.74856 1.6609,-39.11852 18.4825,-66.71818 46.4307,-76.18047 27.7492,-9.39488 56.059,7.7032 73.9204,44.64496 9.291,19.21628 11.5068,28.7904 12.283,53.07341 0.3692,11.55 1.1234,21 1.6759,21 0.5524,0 3.7759,-1.22589 7.1631,-2.72421 4.3373,-1.91864 6.4097,-3.72548 7.0082,-6.1102 0.4675,-1.86231 0.5124,-14.5864 0.1,-28.27579 -0.8186,-27.17049 -3.3345,-41.78838 -11.6266,-67.55646 -15.8103,-49.13088 -37.5154,-76.1858 -67.3566,-83.95842 -23.0578,-6.00582 -48.244,1.34064 -64.6228,18.84975 -40.9159,43.73924 -35.9012,152.2876 10.2607,222.1014 9.044,13.67787 10.9699,14.48064 18.7509,7.81603 z"
       id="path1642"
       inkscape:connector-curvature="0"
       sodipodi:nodetypes="cscccccccccssscccsccccccsccccccccccsssscccsccsccccscccccsccccccccccsccscccssccsccscccscsscscsssscccscssscsscscscccccscscccccsssccscccsccccccccccscssccccccccccscsccscssscscccccssccccccscccccccscsccccccccccccccscssssscccscscccccscscccsscccccccccccscccccccccsccccccccccscccscccsccsscccsscscccscscccccccccscscsccscccccscsccccccccccccssccssccccccssscccccccccccccscccscccscsscccssccccccsccccsccsscssccccccccscssssscccccsccsccccsccccccccccccccccccsscssccsssssccccccscccccccccccccscccscsccsscscscssccccsscccccccccccccccscscccscccscccscccccccccccccsccccccccccccscsccssccccccscc" />
  </g>
</svg>
