<?xml version="1.0" encoding="UTF-8" standalone="no"?>
<!-- Created with Inkscape (http://www.inkscape.org/) -->

<svg
   xmlns:dc="http://purl.org/dc/elements/1.1/"
   xmlns:cc="http://creativecommons.org/ns#"
   xmlns:rdf="http://www.w3.org/1999/02/22-rdf-syntax-ns#"
   xmlns:svg="http://www.w3.org/2000/svg"
   xmlns="http://www.w3.org/2000/svg"
   xmlns:sodipodi="http://sodipodi.sourceforge.net/DTD/sodipodi-0.dtd"
   xmlns:inkscape="http://www.inkscape.org/namespaces/inkscape"
   version="1.1"
   id="svg923"
   width="1573"
   height="1417"
   viewBox="0 0 1573 1417"
   sodipodi:docname="normal_back.svg"
   inkscape:version="0.92.2 5c3e80d, 2017-08-06">
  <metadata
     id="metadata929">
    <rdf:RDF>
      <cc:Work
         rdf:about="">
        <dc:format>image/svg+xml</dc:format>
        <dc:type
           rdf:resource="http://purl.org/dc/dcmitype/StillImage" />
        <dc:title></dc:title>
      </cc:Work>
    </rdf:RDF>
  </metadata>
  <defs
     id="defs927" />
  <sodipodi:namedview
     pagecolor="#ffffff"
     bordercolor="#666666"
     borderopacity="1"
     objecttolerance="10"
     gridtolerance="10"
     guidetolerance="10"
     inkscape:pageopacity="0"
     inkscape:pageshadow="2"
     inkscape:window-width="3836"
     inkscape:window-height="2120"
     id="namedview925"
     showgrid="false"
     inkscape:zoom="0.921684"
     inkscape:cx="676.27525"
     inkscape:cy="660.69693"
     inkscape:window-x="1920"
     inkscape:window-y="0"
     inkscape:window-maximized="0"
     inkscape:current-layer="svg923" />
  <path
     style="fill:#000000"
     d="M 485,1384.5 V 1353 h 5.59362 c 4.7186,0 5.67397,0.3073 6.10726,1.9642 0.44669,1.7081 0.70106,1.7767 1.95138,0.5264 2.4196,-2.4196 8.7539,-3.6341 13.45034,-2.5789 5.72291,1.2859 8.9078,3.8676 11.86848,9.6207 3.35737,6.524 3.53132,20.5009 0.3432,27.5761 -4.03077,8.9452 -13.97653,13.1486 -22.59282,9.5485 L 498,1398.1021 v 8.9489 c 0,5.2993 -0.40783,8.949 -1,8.949 -0.60317,0 -1,-4.1667 -1,-10.5 0,-5.775 0.30792,-10.5 0.68428,-10.5 0.37635,0 2.65726,0.9551 5.06868,2.1225 5.1104,2.4739 11.03263,2.1414 15.16046,-0.8512 7.50869,-5.4437 10.15167,-22.8402 4.99296,-32.8646 -1.42409,-2.7673 -3.86757,-5.648 -5.69702,-6.7164 -4.43605,-2.5908 -11.13693,-2.5206 -15.68763,0.1644 -3.78414,2.2327 -5.52173,2.1025 -5.52173,-0.4137 0,-1.0145 -1.18392,-1.441 -4,-1.441 h -4 v 30.5 c 0,19.6667 -0.35519,30.5 -1,30.5 -0.6455,0 -1,-11.1667 -1,-31.5 z m 516.25,29.385 c -4.01766,-2.573 -4.09925,-4.7644 -0.3277,-8.8018 l 2.9223,-3.1284 3.7173,2.5226 c 5.1342,3.4842 9.7677,3.3469 13.515,-0.4005 1.6077,-1.6077 2.9231,-3.6097 2.9231,-4.449 0,-1.353 -0.3928,-1.3617 -3.4679,-0.077 -7.3742,3.0812 -15.1477,1.165 -20.2155,-4.983 -3.95365,-4.7965 -5.32159,-9.6237 -5.29464,-18.684 0.0317,-10.6434 3.6388,-18.0975 10.47564,-21.6479 4.0135,-2.0842 13.611,-2.0502 16.831,0.06 2.1442,1.405 2.5635,1.4279 3.0475,0.1667 0.3988,-1.0393 2.1614,-1.4624 6.0925,-1.4624 H 1037 l -0.01,25.75 c 0,25.1062 -0.063,25.8451 -2.308,29.554 -2.9651,4.8981 -7.2771,7.7035 -11.6869,7.6035 -3.3343,-0.076 -3.3742,-0.1174 -0.8426,-0.8822 4.8534,-1.4662 8.6299,-4.3021 10.7483,-8.0714 1.9648,-3.4958 2.0943,-5.2173 2.0943,-27.8401 v -24.1138 h -4 c -2.8161,0 -4,0.4265 -4,1.441 0,2.5272 -1.8704,2.7147 -4.8803,0.4894 -5.7493,-4.2506 -16.6047,-2.2772 -20.9274,3.8045 -5.89471,8.2934 -5.61031,25.0496 0.5494,32.37 4.9677,5.9037 11.9676,7.3572 18.7583,3.8951 5.2239,-2.6633 5.5,-2.5829 5.5,1.6 0,2.7608 -0.7926,4.3926 -3.4,7 -4.0856,4.0856 -8.9754,4.5282 -15.1386,1.3701 l -3.9614,-2.0299 -1.75,2.1407 c -0.9625,1.1774 -1.75,2.4438 -1.75,2.8143 0,0.9121 5.5622,4.1391 8.8426,5.1301 2.5285,0.7638 2.4876,0.8061 -0.8426,0.8719 -1.944,0.038 -4.9448,-0.8562 -6.75,-2.0122 z m 205.1091,0.1923 c -1.7275,-1.0534 -3.4579,-2.4281 -3.8453,-3.055 -0.6188,-1.0012 4.02,-9.0223 5.2178,-9.0223 0.2528,0 1.6541,0.841 3.114,1.8688 7.8527,5.5287 15.2155,3.5014 17.6832,-4.8688 0.7326,-2.485 0.7243,-2.4887 -1.3858,-0.6042 -1.2337,1.1018 -4.1937,2.0948 -7.0673,2.371 -10.7035,1.0284 -19.1011,-7.0614 -20.5829,-19.8285 -2.2056,-19.0037 10.0158,-32.4765 24.8818,-27.4294 3.5656,1.2106 5.1076,1.3358 6.1185,0.4968 0.7433,-0.6169 3.524,-0.983 6.1792,-0.8137 l 4.8277,0.308 0.2788,24 c 0.3144,27.066 -0.2221,30.048 -6.3785,35.4534 -2.7396,2.4054 -4.3571,3.0325 -7.6851,2.9797 l -4.2152,-0.067 4.3731,-1.3639 c 5.465,-1.7046 9.8404,-5.8117 11.1277,-10.4455 0.5434,-1.9562 0.9906,-13.7943 0.9936,-26.3068 l 0.01,-22.75 h -3.9648 c -2.9414,0 -4.2411,0.5163 -5.0352,2 -0.9898,1.8494 -1.2467,1.8845 -3.4125,0.4654 -6.1739,-4.0453 -14.4514,-3.6738 -19.4733,0.874 -5.2533,4.7573 -7.881,15.0609 -6.1832,24.2452 1.3458,7.28 4.4197,11.8839 9.6347,14.4302 5.15,2.5146 8.979,2.5116 13.9267,-0.011 4.9619,-2.5297 6.2643,-1.4728 4.6841,3.8012 -1.5352,5.1241 -4.1647,7.3265 -9.4598,7.9234 -3.2315,0.3642 -5.472,-0.073 -8.6315,-1.685 -4.1006,-2.092 -4.3209,-2.1061 -5.6444,-0.3602 -0.7574,0.9992 -1.3915,2.3676 -1.409,3.041 -0.033,1.2643 4.5624,4.0031 8.9617,5.3414 2.2735,0.6915 2.1811,0.77 -0.9935,0.8446 -1.925,0.045 -4.9134,-0.7796 -6.6409,-1.833 z M 642,1403.143 c 0,-1.0214 4.88647,-15.9839 10.85883,-33.25 l 10.85883,-31.393 6.14117,-0.2977 c 4.45942,-0.2162 6.14117,0.051 6.14117,0.9745 0,0.6997 -5.01237,15.7961 -11.13861,33.5477 L 653.72278,1405 h -5.86139 C 642.81708,1405 642,1404.7411 642,1403.143 Z m 13.05656,-8.643 c 1.49993,-4.4 6.34638,-18.4625 10.7699,-31.25 l 8.04275,-23.25 h -4.2112 -4.2112 l -10.39259,30.25 c -5.71592,16.6375 -10.60063,30.8413 -10.85492,31.5639 -0.34554,0.982 0.62296,1.2346 3.83389,1 l 4.29622,-0.3139 z m 37.97167,8.75 c 0.0155,-0.9625 4.91546,-15.925 10.88873,-33.25 l 10.86049,-31.5 6.11128,-0.2977 c 4.76334,-0.2321 6.11127,0.017 6.11127,1.128 0,1.1287 -11.63087,35.6501 -20.69339,61.4197 L 704.812,1405 h -5.906 c -4.96885,0 -5.90152,-0.2777 -5.87777,-1.75 z m 10.43318,-1.1876 c 0.3187,-0.5156 5.28009,-14.6906 11.02533,-31.5 L 724.93263,1340 l -4.21632,0.01 -4.21631,0.01 -10.38428,30.2396 c -5.71136,16.6318 -10.597,30.8021 -10.85699,31.4896 -0.56635,1.4976 7.28536,1.7967 8.20268,0.3124 z M 402.5,1400.2672 c -3.54113,-0.8866 -7.68875,-4.4747 -9.11314,-7.8837 C 392.45473,1390.1526 392,1384.9552 392,1376.5321 V 1364 h -4.89301 c -5.17007,0 -6.10699,-0.8438 -6.10699,-5.5 0,-4.6562 0.93692,-5.5 6.10699,-5.5 H 392 v -5.5477 -5.5477 l 6.25,0.2977 6.25,0.2977 0.30089,5.2104 0.30088,5.2104 8.19912,0.2896 8.19911,0.2896 v 5 5 l -8.25,0.2904 -8.25,0.2905 v 10.3488 c 0,13.8824 0.94329,15.1778 10.78582,14.8113 l 6.9557,-0.2589 0.667,4.1712 c 0.36685,2.2941 0.25503,4.5832 -0.2485,5.0867 -2.1896,2.1896 -14.99369,3.446 -20.66002,2.0272 z m 14.82922,-2.2036 c 4.72427,-1.0964 4.60836,-0.9691 3.95907,-4.3493 -0.53091,-2.7639 -0.58067,-2.7805 -6.36476,-2.1261 -5.56943,0.6301 -5.96711,0.5221 -8.90872,-2.4195 l -3.07906,-3.0791 0.28213,-11.7948 0.28212,-11.7948 8.25,-0.2904 8.25,-0.2905 v -3.4191 -3.4191 l -8.25,-0.2905 -8.25,-0.2904 -0.30226,-5.25 -0.30226,-5.25 H 398.5 394.10452 l -0.30226,5.25 -0.30226,5.25 -5,0.5 c -4.77778,0.4778 -5,0.6333 -5,3.5 0,2.8667 0.22222,3.0222 5,3.5 l 5,0.5 0.5,14.1805 c 0.43571,12.3573 0.76919,14.543 2.59366,17 3.49097,4.7012 11.79848,6.4572 20.73556,4.3831 z m 33.88701,0.9482 c -6.5678,-2.9809 -8.16672,-7.4117 -8.19427,-22.707 l -0.022,-12.1952 -4.75,-0.3048 -4.75,-0.3048 -0.30226,-5.25 -0.30226,-5.25 h 5 5 l 0.30226,-5.25 0.30226,-5.25 6.25,-0.2977 6.25,-0.2977 v 5.5072 5.5073 l 8.25,0.2905 8.25,0.2904 v 5 5 l -8.33736,0.2919 -8.33737,0.2918 0.33737,10.925 c 0.42784,13.8551 0.99415,14.6022 10.78701,14.2306 l 6.87094,-0.2607 0.69381,4.1066 c 0.81312,4.8129 0.1239,5.7469 -5.14214,6.9687 -6.3089,1.4637 -13.55083,1.0481 -18.15603,-1.0421 z m 17.11299,-0.9482 c 4.76572,-1.1061 4.9109,-1.2587 4.13537,-4.3487 -0.59914,-2.3871 -0.97174,-2.5129 -7.01452,-2.368 -5.4223,0.1301 -6.72517,-0.189 -8.66592,-2.1221 -2.13023,-2.1219 -2.28415,-3.099 -2.28415,-14.5 V 1362.5 l 8.25,-0.2904 8.25,-0.2905 v -3.4191 -3.4191 l -8.25,-0.2905 -8.25,-0.2904 -0.30226,-5.25 -0.30226,-5.25 H 449.5 445.10452 l -0.30226,5.25 -0.30226,5.25 -4.75,0.3048 c -4.67273,0.2998 -4.75,0.3599 -4.75,3.6952 0,3.3353 0.0773,3.3954 4.75,3.6952 l 4.75,0.3048 0.5171,14 c 0.40728,11.0265 0.88657,14.5489 2.25661,16.5846 3.53551,5.253 11.62864,7.1668 21.05551,4.979 z m 78.17078,1.4937 c -5.47435,-2.0187 -11.5,-8.578 -11.5,-12.5186 V 1384 h 6.02144 c 5.45834,0 6.12835,0.2347 7.16471,2.5092 2.48131,5.4459 15.31385,5.8258 15.31385,0.4534 0,-2.2383 -0.734,-2.655 -8.05917,-4.5753 -4.43255,-1.162 -9.15755,-2.6795 -10.5,-3.3722 -6.56447,-3.3873 -10.12535,-9.7077 -8.44757,-14.9939 1.1577,-3.6475 6.42103,-8.8378 10.24056,-10.0984 5.6331,-1.8591 16.32213,-1.434 21.49652,0.8549 5.24247,2.319 8.76966,6.7942 8.76966,11.1267 V 1369 h -5.81194 c -5.29816,0 -6.00802,-0.2652 -8.02994,-3 -1.87974,-2.5425 -2.88881,-3 -6.61663,-3 -2.66542,0 -5.01783,0.6192 -5.97006,1.5714 -3.2629,3.2629 -1.32088,4.8717 8.52174,7.0596 13.48499,2.9975 18.40683,6.9733 18.40683,14.869 0,8.549 -6.93794,13.5948 -19.5,14.1818 -4.93567,0.2306 -8.86764,-0.1539 -11.5,-1.1245 z m 22.17069,-3.2311 c 2.39302,-1.22 4.52772,-3.3585 5.69136,-5.7014 1.67298,-3.3684 1.71995,-4.1224 0.46254,-7.4261 -1.79092,-4.7055 -6.42135,-7.3417 -16.82123,-9.5765 C 550.2041,1371.9462 547,1369.8188 547,1366.3164 c 0,-2.9286 4.31155,-5.3164 9.59967,-5.3164 4.5752,0 5.53544,0.3719 7.74688,3 2.04238,2.4272 3.30034,3 6.58889,3 3.29993,0 4.06456,-0.3509 4.06456,-1.8651 0,-5.5307 -8.55468,-10.2599 -18.55897,-10.2599 -10.79586,0 -17.89558,4.801 -17.89558,12.1015 0,6.2242 5.46618,10.6145 15.99152,12.8441 7.3237,1.5513 10.20597,2.8306 11.39864,5.0591 3.2072,5.9927 -7.29793,10.4149 -15.49772,6.5238 -1.8504,-0.8781 -3.63624,-2.4531 -3.96852,-3.5 -0.47423,-1.4942 -1.55731,-1.9035 -5.03676,-1.9035 -3.29253,0 -4.43261,0.3896 -4.43261,1.5147 0,2.5087 6.23134,8.4697 10.5,10.0444 5.33164,1.9668 16.12764,1.3381 21.17069,-1.2329 z m 32.78386,2.2193 C 596.3222,1393.4131 599.85108,1384 606.90749,1384 c 5.72963,0 10.09251,3.6745 10.09251,8.5 0,7.3782 -10.23312,11.3578 -15.54545,6.0455 z m 11.05432,-0.9283 c 1.27036,-0.9289 1.89113,-2.6087 1.89113,-5.1172 0,-6.1522 -6.98897,-8.911 -11.4,-4.5 -5.83406,5.8341 2.77496,14.5411 9.50887,9.6172 z m 196.70736,1.463 c -6.5729,-3.0882 -8.16679,-7.5183 -8.19427,-22.7754 l -0.022,-12.1952 -4.75,-0.3048 -4.75,-0.3048 v -5 -5 l 4.69957,-0.3027 4.69957,-0.3028 0.30043,-5.1972 0.30043,-5.1973 6.25,-0.2977 6.25,-0.2977 v 5.5072 5.5073 l 8.25,0.2905 8.25,0.2904 v 5 5 l -8.35918,0.2922 -8.35918,0.2922 0.37436,10.9373 c 0.47404,13.8495 1.033,14.5879 10.76427,14.2189 6.36264,-0.2412 6.88393,-0.1012 7.44699,2 1.90918,7.1248 -0.0425,8.7579 -11.2445,9.4091 -6.19146,0.36 -8.42711,0.065 -11.90653,-1.5695 z m 17.11299,-1.0166 c 4.77267,-1.1077 5.05464,-1.398 4.29532,-4.4234 -0.57969,-2.3097 -0.99351,-2.4438 -7.08594,-2.2966 -5.51652,0.1333 -6.807,-0.179 -8.75445,-2.1188 -2.13023,-2.1219 -2.28415,-3.099 -2.28415,-14.5 V 1362.5 l 8.25,-0.2904 8.25,-0.2905 v -3.4191 -3.4191 l -8.25,-0.2905 -8.25,-0.2904 -0.30226,-5.25 -0.30226,-5.25 H 807.5 803.10452 l -0.30226,5.25 -0.30226,5.25 -4.75,0.3048 c -4.68854,0.3008 -4.75,0.3494 -4.75,3.75 V 1362 h 5 5 v 12.4798 c 0,16.5888 2.13376,21.909 9.54168,23.7908 3.26821,0.8301 9.73713,0.733 13.78754,-0.207 z m 77.08597,1.515 c -3.81063,-1.6592 -7.08099,-5.6997 -8.46942,-10.464 -0.60791,-2.086 -0.9249,-10.381 -0.74958,-19.6146 l 0.30381,-16 6.16319,-0.2955 6.16319,-0.2954 0.33681,16.6353 c 0.32968,16.2832 0.38894,16.6776 2.79944,18.628 2.7905,2.2578 7.18909,1.9053 10.19762,-0.8174 1.55667,-1.4088 1.82742,-3.7338 2.06562,-17.7381 L 922.5,1353.5 h 6 6 l 0.26843,23.25 0.26843,23.25 h -6.01843 c -5.89518,0 -6.01874,-0.056 -6.03374,-2.75 -0.009,-1.529 -0.34152,-2.2509 -0.75,-1.6258 -0.40408,0.6182 -2.30969,2.0791 -4.23469,3.2462 -4.00608,2.429 -9.96779,2.7184 -14.58481,0.7082 z m 11.97978,-1.5387 c 1.38884,-0.528 3.47793,-1.9128 4.64242,-3.0773 2.44905,-2.449 4.96261,-1.9395 4.96261,1.006 0,1.7033 0.64607,2.0314 4,2.0314 h 4 v -21.5 -21.5 h -4.5 -4.5 v 15.8257 c 0,15.415 -0.0623,15.8842 -2.40171,18.082 -1.32094,1.2409 -4.16464,2.4927 -6.31933,2.7817 -3.19947,0.4291 -4.45486,0.064 -6.84829,-1.9938 L 905.5,1387.1763 905.16214,1371.0881 904.82428,1355 H 900.41214 896 v 15.3508 c 0,19.5744 1.4183,24.1207 8.5,27.2467 3.59935,1.5888 7.46677,1.7458 10.89497,0.4424 z m 39.02022,1.5387 c -3.90601,-1.7007 -7.11719,-5.7582 -8.43744,-10.6612 -0.56596,-2.1018 -0.90499,-10.9306 -0.75339,-19.6195 L 945.5,1353.5 l 5.90724,-0.3046 c 4.04896,-0.2088 6.16754,0.1058 6.73469,1 0.45509,0.7175 0.83434,8.3817 0.84276,17.0315 0.0152,15.5951 0.0359,15.7405 2.47467,17.3384 1.62828,1.0669 3.45183,1.3935 5.39631,0.9664 5.63028,-1.2366 6.06512,-2.6079 6.36792,-20.0813 L 973.5,1353.5 l 6.25,-0.2977 6.25,-0.2977 V 1376.4523 1400 h -6 c -5.73333,0 -6,-0.1111 -6,-2.5 v -2.5 l -2.03993,2.0399 c -4.04876,4.0488 -11.57531,5.1378 -17.54488,2.5387 z m 16.01171,-3.955 c 4.29573,-3.2766 5.5731,-3.3049 5.5731,-0.1236 0,2.2979 0.36534,2.5 4.51989,2.5 h 4.51989 l -0.26989,-21.25 -0.26989,-21.25 -4.75,-0.3048 -4.75,-0.3048 v 15.8805 c 0,15.4729 -0.0616,15.9384 -2.40171,18.1368 -3.51973,3.3066 -9.40742,3.8273 -12.82377,1.1342 l -2.72549,-2.1485 -0.27451,-16.1967 L 956.5,1355.5 l -4.83523,-0.3083 -4.83522,-0.3082 0.33522,16.8082 c 0.29346,14.7142 0.58865,17.2444 2.36925,20.3083 4.22052,7.2624 13.91723,8.9441 20.89288,3.6236 z m 91.0276,2.9219 c -5.3492,-5.3492 -1.591,-14.5455 5.9443,-14.5455 5.1126,0 9.0012,3.6721 9.0012,8.5 0,7.5454 -9.5732,11.4178 -14.9455,6.0455 z m 10.5597,-1.3559 c 4.4568,-3.6089 1.4742,-11.1896 -4.4025,-11.1896 -3.7971,0 -6.6117,2.767 -6.6117,6.5 0,5.7706 6.3437,8.4716 11.0142,4.6896 z m 37.4772,1.9454 c -4.8968,-2.2246 -9.8604,-7.6929 -11.5044,-12.6743 -0.7496,-2.2713 -1.0538,-6.9659 -0.7843,-12.1015 0.3832,-7.3002 0.8267,-8.9408 3.4133,-12.6249 4.2402,-6.0395 10.2674,-9.1093 17.885,-9.1093 14.6368,0 23.4155,10.3527 22.2731,26.2665 -1.0065,14.0198 -9.092,22.1402 -21.992,22.0865 -2.9292,-0.012 -7.0677,-0.8331 -9.2907,-1.843 z m 16.0086,-1.2512 c 5.6833,-1.5701 10.9513,-7.4281 12.5053,-13.906 1.5783,-6.579 0.6344,-15.0673 -2.2452,-20.1908 -5.8148,-10.346 -21.8377,-12.4027 -30.7076,-3.9417 -4.4215,4.2178 -6.0486,8.9855 -6.025,17.6547 0.043,15.5778 11.6148,24.4884 26.4725,20.3838 z m -11.6185,-7.3869 c -7.4546,-4.0511 -7.9605,-21.826 -0.7646,-26.8662 2.8911,-2.025 8.7513,-2.1118 11.5228,-0.1705 3.3958,2.3785 4.6173,6.7793 4.1962,15.118 -0.3598,7.1247 -0.5999,7.8217 -3.6264,10.5259 -3.5815,3.2001 -7.1867,3.6434 -11.328,1.3928 z m 10.1954,-3.42 c 2.6426,-2.6426 2.9231,-3.5589 2.9231,-9.5496 0,-10.2124 -3.136,-14.3821 -10.048,-13.3602 -7.9234,1.1715 -9.3717,21.7251 -1.7464,24.7853 3.9024,1.5662 5.8391,1.1567 8.8713,-1.8755 z M 331.23634,1367.25 331.5,1334.5 h 6 6 l 0.28182,11.7593 0.28181,11.7593 2.17521,-2.0265 c 4.69131,-4.3706 14.11771,-4.6094 20.36519,-0.5159 5.21635,3.4179 6.34981,8.2679 6.37401,27.2738 L 373,1400 h -6.43119 -6.43119 l -0.31881,-15.8981 c -0.27994,-13.9598 -0.55106,-16.1543 -2.2238,-18 -2.30713,-2.5456 -8.11871,-2.8242 -11.3725,-0.5452 -2.14346,1.5013 -2.22251,2.1416 -2.22251,18 V 1400 h -6.51366 -6.51367 z M 342,1382.4545 c 0,-15.1717 0.059,-15.6044 2.45455,-18 3.56784,-3.5678 11.21022,-3.5035 14.62114,0.1231 2.31543,2.4618 2.4387,3.2702 2.7447,18 l 0.3204,15.4224 h 4.4296 H 371 l -0.022,-15.75 c -0.0186,-13.3057 -0.31675,-16.3993 -1.92142,-19.9337 -3.48984,-7.6866 -13.36404,-10.0257 -20.99751,-4.9741 -2.20893,1.4618 -4.47588,2.6578 -5.03767,2.6578 -0.63847,0 -1.0214,-4.4987 -1.0214,-12 v -12 h -4.5 -4.5 v 31 31 h 4.5 4.5 z m 412.16041,15.8417 C 752.04285,1394.3316 738,1356.5811 738,1354.8531 c 0,-1.5939 0.82198,-1.8531 5.87756,-1.8531 3.49031,0 6.29265,0.5077 6.89955,1.25 0.56209,0.6875 2.94973,7.445 5.30587,15.0166 2.35613,7.5716 4.60951,13.4216 5.00751,13 0.398,-0.4216 2.56017,-6.7635 4.80483,-14.0931 2.24465,-7.3296 4.33803,-13.7421 4.65195,-14.25 0.88865,-1.4378 12.43085,-1.1477 12.98745,0.3265 0.25958,0.6875 -3.29473,11.15 -7.89845,23.25 l -8.37041,22 -6.07304,0.2962 c -5.01088,0.2443 -6.24083,-0.018 -7.03241,-1.5 z m 19.47261,-21.5462 8.10187,-21.25 -4.47493,-0.3092 c -2.46121,-0.17 -4.68037,-0.1037 -4.93146,0.1474 -0.25109,0.2511 -2.62717,7.5902 -5.28017,16.3092 -3.13182,10.2925 -5.29866,15.8526 -6.178,15.8526 -0.87361,0 -3.13583,-5.6795 -6.37302,-16 l -5.01866,-16 -4.73932,-0.3048 C 742.1327,1355.0276 740,1355.0924 740,1355.3393 c 0,0.3632 12.92154,34.4395 15.51314,40.9107 0.527,1.3159 1.85633,1.75 5.35942,1.75 h 4.65859 z M 845,1394.5211 V 1389 h 6.5 6.5 v -21.4523 -21.4523 l -6.25,-0.2977 -6.25,-0.2977 v -5.5 -5.5 h 13 13 l 0.26599,27.2027 0.26598,27.2027 6.23402,0.2973 6.23401,0.2973 v 5 5 l -19.75,0.2711 -19.75,0.2712 z m 38,0.027 v -3.4523 l -6.25,-0.2977 -6.25,-0.2977 -0.26607,-27.25 -0.26607,-27.25 H 858.48393 847 v 4 4 h 6.51843 6.51843 l -0.26843,23.25 -0.26843,23.25 -6.25,0.2977 -6.25,0.2977 v 3.4523 3.4523 h 18 18 z m 272.4485,4.1786 c -0.2688,-0.7005 -0.3672,-11.163 -0.2186,-23.25 l 0.2701,-21.9763 h 5.9902 c 5.8292,0 6.0039,0.078 6.5,2.9063 0.4687,2.6719 0.6249,2.7674 1.937,1.1841 2.7012,-3.2598 7.3989,-4.9343 13.7138,-4.8881 8.0804,0.059 8.5925,0.4608 7.8229,6.1364 -1.0907,8.0439 -0.6229,7.6613 -9.3684,7.6613 -7.0144,0 -8.2269,0.2796 -10.5122,2.4243 -2.5447,2.3881 -2.5833,2.6384 -2.5833,16.75 v 14.3257 h -6.5314 c -4.3673,0 -6.6933,-0.422 -7.0201,-1.2737 z M 1167,1384.5158 c 0,-13.4745 0,-13.4866 2.9076,-16.7384 2.7494,-3.0771 3.3428,-3.2739 10.9046,-3.6173 l 7.9971,-0.3632 0.4347,-4.1485 c 0.239,-2.2816 0.3203,-4.2975 0.1806,-4.4797 -0.1397,-0.1823 -2.6877,-0.3533 -5.6622,-0.38 -5.8453,-0.053 -8.771,1.0658 -12.9311,4.9427 -3.1534,2.9387 -4.8313,2.2969 -4.8313,-1.8479 0,-2.9092 -0.1266,-2.9893 -4.25,-2.691 l -4.25,0.3075 -0.2699,21.25 -0.2699,21.25 h 5.0199 5.0199 z m -666.5,6.3295 c -3.95302,-2.1622 -4.5,-3.9203 -4.5,-14.4638 0,-9.8674 0.095,-10.311 2.63486,-12.3089 2.87488,-2.2614 8.27461,-2.7266 11.51554,-0.9921 1.1104,0.5943 2.65582,2.6048 3.43426,4.4679 1.86212,4.4567 1.81796,14.7723 -0.0789,18.4406 -2.79671,5.4082 -8.26411,7.4497 -13.00571,4.8563 z m 9.07266,-3.1541 c 2.07571,-1.7855 2.79604,-3.4729 3.1776,-7.4439 1.00023,-10.4096 -1.84598,-16.2473 -7.92152,-16.2473 -5.66927,0 -6.83075,2.1147 -6.81343,12.405 0.0162,9.603 0.29369,10.5906 3.48469,12.4001 3.02798,1.717 5.11651,1.4288 8.07266,-1.1139 z m 501.94104,2.1409 c -5.5428,-4.3599 -7.1025,-13.7361 -3.5768,-21.5014 1.0412,-2.2931 2.8017,-4.6556 3.9123,-5.25 3.2413,-1.7347 8.6409,-1.2696 11.5159,0.9919 2.5278,1.9883 2.6349,2.4729 2.6349,11.9182 0,11.504 -0.3066,12.5993 -4.0715,14.5462 -3.954,2.0447 -7.1985,1.8251 -10.4148,-0.7049 z m 8.802,-0.9818 c 3.371,-1.7743 3.6526,-2.7163 3.669,-12.2716 0.018,-10.3358 -1.1743,-12.5787 -6.6851,-12.5787 -4.6943,0 -7.95,3.4861 -8.848,9.474 -0.899,5.9952 0.7822,11.7781 4.2073,14.4724 2.9811,2.3448 4.5642,2.5317 7.6568,0.9039 z m 196.0649,1.2917 c -3.7435,-2.3447 -5.3806,-6.5606 -5.3806,-13.857 0,-5.7116 0.9423,-8.3493 4.2993,-12.035 2.9621,-3.2521 9.8966,-3.145 13.2462,0.2045 2.2611,2.2612 2.4545,3.2021 2.4545,11.9443 0,8.4072 -0.2567,9.7851 -2.25,12.0792 -3.0513,3.5117 -8.2932,4.2169 -12.3694,1.664 z m 10.8694,-2.8749 c 1.4159,-1.276 1.75,-3.2657 1.75,-10.4221 0,-7.5117 -0.3015,-9.1465 -2,-10.845 -2.8812,-2.8812 -8.0583,-2.6313 -11.0303,0.5323 -3.1638,3.3677 -4.0093,13.5566 -1.5239,18.3629 2.6644,5.1524 8.516,6.2363 12.8042,2.3719 z m -622.893,-21.2475 c -5.22111,-2.1342 -6.86487,-8.8329 -3.28442,-13.3847 2.8847,-3.6673 9.8921,-3.7611 13.47287,-0.1804 6.34104,6.3411 -1.69303,17.0377 -10.18845,13.5651 z m 9.643,-5.3408 c 1.33637,-2.3866 1.3329,-2.9788 -0.0318,-5.4288 -1.22484,-2.1989 -2.35842,-2.8107 -5.65623,-3.0529 -3.35617,-0.2465 -4.42124,0.1209 -5.71815,1.9725 -2.87297,4.1017 -1.3663,8.5427 3.40623,10.04 2.71621,0.8522 6.47455,-0.8066 8,-3.5308 z m 366.5,-103.3552 c -19.84728,-4.4105 -27.40453,-7.3006 -39.10365,-14.9543 -10.12183,-6.6218 -18.82726,-15.8546 -27.17599,-28.8222 -11.67524,-18.1345 -13.22438,-20.2279 -15.85617,-21.427 -1.4317,-0.6523 -8.51183,-1.6337 -15.73364,-2.1809 -15.86952,-1.2023 -47.52377,-4.4101 -64.63055,-6.5496 -17.32134,-2.1662 -53.89871,-2.9315 -69.73013,-1.4589 -14.89541,1.3856 -40.73665,4.851 -68.26987,9.1552 -34.56919,5.4043 -38.27175,6.6648 -43.92966,14.956 -14.15025,20.7362 -42.56761,34.9847 -73.02529,36.615 -27.95048,1.4961 -57.9542,-5.4998 -101.54505,-23.6771 -43.45697,-18.1215 -54.68159,-20.9818 -121.47305,-30.954 -30.45085,-4.5465 -44.59529,-8.1975 -57.31845,-14.7953 -8.94254,-4.6373 -15.96018,-11.3456 -19.14027,-18.2967 -5.62459,-12.2941 -5.26756,-33.7985 0.99892,-60.1669 5.58033,-23.4813 6.5037,-52.4816 2.01321,-63.2288 l -1.47831,-3.5381 -17.80102,0.022 c -9.79057,0.012 -33.10103,0.6892 -51.80103,1.5042 -51.66145,2.2513 -108.567648,2.9802 -124.148049,1.5901 -16.814197,-1.5001 -22.481406,-2.995 -35.239785,-9.2953 -14.258487,-7.0411 -23.732186,-16.278 -30.4336077,-29.67305 -4.2462538,-8.48755 -4.6677563,-9.96597 -4.5616554,-16 L 1.2338058,969.5 2.1422513,975 c 1.2244421,7.41314 8.6689207,22.30158 14.3819007,28.7628 5.905272,6.6787 15.176733,13.3063 24.60608,17.5894 14.433892,6.5563 24.061381,7.6701 66.369768,7.6782 18.15,0 50.325,-0.6846 71.5,-1.5292 21.175,-0.8445 49.39275,-1.6403 62.7061,-1.7684 20.72017,-0.1993 24.4301,-0.01 25.76152,1.3144 0.85548,0.851 2.27095,4.901 3.14549,9 1.95621,9.169 1.34805,38.7242 -1.00733,48.9528 -0.82322,3.575 -2.64449,11.45 -4.04725,17.5 -4.62281,19.9378 -4.45318,40.1279 0.43014,51.1964 1.9166,4.3441 9.04752,12.1822 13.01462,14.3054 1.24735,0.6675 -0.4213,-1.4223 -3.70812,-4.644 -8.19996,-8.0377 -10.48919,-14.0626 -11.07508,-29.1478 -0.51261,-13.1987 0.54918,-21.462 5.29998,-41.2465 6.32778,-26.3518 6.38559,-27.6001 2.51208,-54.241 -4.14776,-28.5272 -4.99797,-46.88838 -2.55955,-55.27625 5.04614,-17.3581 13.70933,-27.76737 30.09662,-36.16261 5.46193,-2.79816 14.88078,-7.19551 20.93078,-9.77189 15.48483,-6.59418 24.20559,-11.0843 30.02524,-15.45934 4.83333,-3.63353 7.51605,-6.64008 28.60014,-32.05241 21.92143,-26.42155 32.37511,-33.69867 49.91037,-34.74409 20.75934,-1.23764 34.77502,4.72108 53.32418,22.67058 19.16039,18.54099 33.12349,40.07911 57.25412,88.31469 14.83134,29.64688 26.26951,48.69032 39.64225,66.00052 8.78137,11.3669 10.22788,12.0503 24.5304,11.589 10.24357,-0.3304 12.46615,-0.727 17.7133,-3.1608 10.08113,-4.6759 14.60846,-10.4798 16.6067,-21.2893 1.84654,-9.9889 -1.59136,-24.62766 -9.24851,-39.3806 C 618.21783,959.49932 581.02464,922.69016 544.11467,896.13146 491.99509,858.62864 476.06188,838.62612 466.84686,799.12957 463.909,786.5376 463.21115,759.3333 465.43267,744 471.05515,705.19265 485.87069,663.20435 508.57254,621.73852 517.93597,604.63584 523.07197,597 525.21209,597 c 0.98335,0 1.78791,0.66204 1.78791,1.47121 0,2.52158 -5.31509,16.08344 -16.31416,41.62677 -22.00642,51.10596 -26.54532,71.42375 -25.33346,113.40202 0.68659,23.783 1.98081,33.17328 6.04969,43.89368 2.99789,7.89863 9.76738,20.52922 13.04526,24.33998 l 2.22813,2.59036 1.64199,-6.53677 c 0.90309,-3.59523 3.00104,-15.48064 4.6621,-26.41201 8.63901,-56.85274 16.7028,-81.41739 57.73427,-175.87524 23.2413,-53.50341 41.63386,-101.83834 53.66826,-141.03806 7.979,-25.99006 10.57624,-37.16358 11.97842,-51.5321 0.71477,-7.32439 1.80577,-13.42526 2.56424,-14.33916 2.06961,-2.49373 7.23954,-1.91867 12.15382,1.35188 2.43179,1.61841 10.27144,7.77026 17.42144,13.67078 17.12827,14.13507 29.02886,21.79089 39,25.08927 7.47568,2.4729 9.24527,2.65129 27,2.72187 23.11538,0.0919 26.25233,-0.70924 47,-12.00295 7.7,-4.19139 24.8,-13.24044 38,-20.109 26.17607,-13.6206 36.29227,-19.91424 47,-29.24032 3.85,-3.35322 7.63123,-5.97874 8.40274,-5.83449 2.03246,0.38002 7.80235,14.51888 11.12763,27.26774 4.91381,18.83914 31.32892,94.2026 42.25957,120.56836 5.49899,13.2641 19.98706,45.20529 36.70696,80.92618 29.37914,62.76647 40.2899,90.98908 51.0305,132 5.3239,20.32808 7.554,26.59741 10.2537,28.82563 2.1093,1.74097 11.2637,4.1475 15.834,4.1625 2.123,0.007 4.6706,-0.81835 6.1723,-1.99957 6.7082,-5.27667 11.6519,-36.19641 9.6714,-60.48856 -3.5821,-43.93624 -21.9717,-89.621 -51.6521,-128.31777 C 989.26916,564.96893 986.10502,559 991.36732,559 c 3.25649,0 14.53638,11.99039 27.28148,29 34.9974,46.70717 52.6193,87.07923 58.9261,135 1.3181,10.01518 1.5194,17.07207 1.0125,35.5 -0.3479,12.65 -0.7349,24.28971 -0.86,25.86603 -0.2121,2.67343 0.7134,3.44728 13.7726,11.51593 27.1177,16.75472 39.5659,26.7456 47.9295,38.46809 6.538,9.16378 8.0215,13.61529 8.0479,24.14995 0.028,11.27242 -1.7272,12.15233 -4.9878,2.5 -3.6516,-10.81021 -7.4408,-17.15808 -14.3902,-24.10752 -8.1349,-8.13483 -18.1306,-14.74377 -35.9483,-23.76808 -62.6058,-31.70872 -101.26633,-20.15406 -104.75018,31.30722 -1.25213,18.49561 2.68524,38.84508 10.72673,55.43897 4.23315,8.73519 6.32205,11.68459 13.24635,18.70305 10.0284,10.1648 18.7272,14.78755 31.2646,16.6149 6.9012,1.00586 9.3572,0.92834 16.7774,-0.5296 15.0891,-2.96474 33.9814,-11.75513 50.584,-23.53613 9.4884,-6.73286 22.5786,-19.63869 26.7127,-26.33636 2.1417,-3.46982 4.5037,-6.05363 5.8406,-6.38919 1.3913,-0.34918 5.2301,0.73716 10.0958,2.85695 4.318,1.88119 11.3923,4.69852 15.7207,6.26072 21.8815,7.89746 29.5968,18.30846 40.2183,54.27066 11.7607,39.81924 15.7901,49.40614 27.4096,65.21441 18.6635,25.3916 28.3741,48.6714 26.5996,63.7692 -0.7162,6.0936 -4.3838,14.3033 -8.169,18.2855 -1.3356,1.4051 -2.4283,2.9102 -2.4283,3.3446 0,1.7447 7.4493,-8.2246 9.6387,-12.8993 3.0021,-6.4099 3.1276,-16.1362 0.3613,-28 -1.1,-4.7176 -2,-10.135 -2,-12.0387 V 1036 h 14.75 c 8.1125,10e-4 32.525,0.8864 54.25,1.9675 62.3855,3.1044 96.1418,4.1519 137.2581,4.259 42.8905,0.1118 47.1721,-0.3611 60.4788,-6.6805 26.301,-12.4903 41.8105,-33.2092 44.5756,-59.5478 0.2021,-1.925 0.4394,0.20223 0.5275,4.72717 0.1287,6.61611 -0.332,9.53426 -2.3524,14.90207 -6.6176,17.58126 -20.0113,31.70266 -39.0794,41.20256 -15.6309,7.7875 -14.5898,7.6767 -71.4082,7.6003 -48.1053,-0.065 -68.7583,-0.6743 -132.5,-3.9113 -15.4,-0.7821 -35.9875,-1.7292 -45.75,-2.1047 l -17.75,-0.6828 v 2.9302 c 0,1.6116 0.9404,7.1841 2.0899,12.3833 3.8687,17.4994 1.2803,28.8856 -9.0219,39.6868 -10.3134,10.813 -21.9715,18.4115 -55.989,36.4922 -48.4236,25.7377 -51.3429,27.8899 -101.2817,74.666 -36.4538,34.145 -58.6268,46.8353 -91.7235,52.496 -8.77392,1.5006 -21.94475,1.9644 -26.5738,0.9358 z m 24.6247,-3.4223 c 20.9489,-3.5526 35.7264,-9.1268 51.6565,-19.4853 9.0321,-5.8731 24.8842,-18.0907 27.3241,-21.0593 0.7671,-0.9333 -2.4303,1.3865 -7.1053,5.1551 -23.7178,19.1195 -44.3682,29.2692 -67.0275,32.944 -31.79736,5.1567 -56.92375,-2.5054 -78.55842,-23.9558 -14.46292,-14.3397 -25.51009,-33.6024 -28.44664,-49.6016 -1.99999,-10.8966 0.77401,-34.2304 7.98509,-67.1676 4.56916,-20.87 6.59313,-32.5185 5.7898,-33.3218 -0.78426,-0.7843 -5.1187,1.5904 -19.08263,10.4547 -15.66456,9.9439 -18.8337,11.7578 -32.50478,18.605 -33.61152,16.8345 -63.91176,24.1344 -104.74697,25.2357 -48.29252,1.3024 -76.33672,-6.0806 -116.24145,-30.6021 -7.0164,-4.3116 -14.19668,-8.5837 -15.95618,-9.4935 l -3.19909,-1.6544 1.95238,4.9533 c 1.07381,2.7243 4.87509,10.7858 8.44728,17.9145 9.81977,19.5964 10.77103,23.0129 11.35295,40.7752 0.78196,23.8682 -1.1825,30.9712 -13.2484,47.9026 -10.28752,14.4359 -18.5775,21.3057 -35.68446,29.5712 -8.61304,4.1615 -7.31574,4.4108 1.88687,0.3626 12.68286,-5.5791 25.11853,-15.3774 33.43919,-26.3472 2.67554,-3.5274 5.70309,-7.0008 6.72789,-7.7186 3.30526,-2.315 16.09392,-5.1908 39.11507,-8.7955 74.18652,-11.6165 95.02577,-12.6353 144.88728,-7.0836 12.863,1.4322 34.688,3.6366 48.5,4.8987 17.54815,1.6034 26.06294,2.7872 28.26725,3.9298 2.22906,1.1555 5.44843,5.3113 10.97336,14.1654 18.03837,28.9076 33.95831,41.6446 59.97483,47.9839 16.60583,4.0462 17.81674,4.098 33.52198,1.4346 z m 12.3753,-6.2981 c 17.4837,-4.2971 32.1671,-11.6761 51.1954,-25.7277 12.2501,-9.0462 22.0073,-17.7362 44.7771,-39.8794 30.0676,-29.2401 35.5888,-33.0703 87.5275,-60.7207 41.1689,-21.9169 50.7828,-29.0579 56.8538,-42.2298 6.7305,-14.6026 -1.0527,-39.2778 -20.9902,-66.5456 -13.6955,-18.73081 -18.3701,-28.67504 -26.3249,-56 -14.9397,-51.31818 -19.7944,-58.42083 -46.52,-68.06128 -3.9192,-1.41376 -10.0693,-3.89109 -13.6668,-5.50519 -3.5976,-1.61409 -6.9537,-2.67966 -7.4581,-2.36792 -0.5043,0.31173 -2.542,3.12449 -4.5281,6.25059 -10.8541,17.08453 -41.0167,38.2277 -67.6697,47.43479 -8.2122,2.83684 -10.4263,3.18056 -20.696,3.21285 -14.2288,0.0447 -21.6329,-2.20687 -32.2191,-9.79782 -21.78426,-15.62063 -33.89647,-45.93253 -32.43284,-81.16602 0.60281,-14.51151 2.32612,-22.177 6.93868,-30.86422 15.19166,-28.61168 53.10476,-29.8652 103.71326,-3.42907 27.5156,14.37318 42.8552,28.48964 46.9845,43.23783 1.9453,6.94797 3.4065,6.91793 2.598,-0.0534 -2.1212,-18.28902 -17.8059,-34.54709 -55.4,-57.42525 l -15.3176,-9.32157 0.8176,-10.07216 c 0.4496,-5.53968 0.7826,-19.29715 0.74,-30.57215 -0.062,-16.49774 -0.5151,-23.00544 -2.3195,-33.33312 -7.2851,-41.6994 -23.3073,-77.96933 -52.2787,-118.34539 -10.1207,-14.10472 -23.75749,-30.42566 -27.86652,-33.35155 l -3.15055,-2.24339 1.5082,2.91654 c 0.82952,1.6041 6.13476,8.97812 11.78947,16.38673 14.5863,19.11069 22.9179,32.24414 31.3828,49.47018 21.7172,44.19436 29.6197,86.92203 23.0193,124.46088 -2.4034,13.6686 -4.3135,19.04563 -8.117,22.8491 -3.4151,3.41516 -3.5205,3.44462 -10.6696,2.98182 -9.0937,-0.58869 -16.0063,-3.51014 -18.1599,-7.6749 -0.8699,-1.6821 -4.0651,-12.40904 -7.1005,-23.83764 -12.6532,-47.64088 -18.83889,-63.68191 -52.06936,-135.02824 -22.09526,-47.43885 -35.12772,-76.78238 -41.57368,-93.60613 -13.82789,-36.09034 -34.46426,-95.90527 -37.24424,-107.95314 -0.86402,-3.74454 -3.2455,-11.01549 -5.29216,-16.15766 l -3.72119,-9.34941 -6.52969,5.7765 c -9.5651,8.4618 -23.85861,17.35706 -47.33607,29.45861 -11.44351,5.89861 -27.19351,14.19263 -35,18.43115 -25.35806,13.76814 -28.90866,14.66354 -55.06077,13.8854 -26.99899,-0.80335 -35.17703,-4.457 -64.13284,-28.65223 -16.71026,-13.96296 -23.1828,-17.80132 -25.72727,-15.25685 -0.59446,0.59446 -1.44637,5.76449 -1.89314,11.48897 -1.02079,13.07936 -3.7377,25.73626 -9.97126,46.4517 -13.40182,44.53714 -30.76626,90.6445 -56.20209,149.23206 -40.34079,92.91889 -49.18888,119.69926 -57.15825,173 -4.09462,27.38563 -6.45476,37 -9.0828,37 -3.37537,0 -16.9528,-24.83015 -19.9357,-36.45804 -2.31797,-9.03585 -3.52773,-24.94826 -3.52865,-46.41362 -0.002,-36.8817 5.01556,-57.46422 25.74776,-105.62834 11.09203,-25.76851 15.46916,-36.61557 14.97495,-37.10978 -0.62521,-0.62522 -14.30601,23.60692 -21.56528,38.19755 -16.78449,33.73565 -27.2356,64.13452 -33.31835,96.91223 -3.02473,16.29911 -3.26814,45.7493 -0.48353,58.5 5.97873,27.37645 15.73439,45.89046 33.66375,63.88616 10.47991,10.51867 17.40254,16.16732 39.97986,32.6223 24.39861,17.78239 37.87873,29.22694 57.03519,48.42255 24.12185,24.17115 33.23417,37.18259 38.88302,55.52087 5.24405,17.02412 3.53669,30.60672 -5.02488,39.97442 -5.93163,6.4902 -11.97458,9.2691 -23.34961,10.7374 -10.26176,1.3247 -18.36339,0.4324 -22.71777,-2.502 -4.38854,-2.9574 -11.26486,-11.5595 -21.31296,-26.6617 -10.3041,-15.487 -18.88663,-30.85514 -33.80162,-60.52616 C 512.3164,917.89059 499.85969,898.95457 481.98246,880.8786 466.95546,865.68455 453.40785,858.59118 437,857.32632 c -14.585,-1.12434 -26.12441,3.30964 -38.36613,14.74205 -4.09333,3.82272 -14.17771,15.17321 -22.40973,25.22331 -15.56945,19.00803 -23.39364,26.96523 -30.75835,31.28124 -2.38815,1.39955 -12.35742,6.04799 -22.15394,10.32988 -22.32012,9.75573 -26.4962,11.88649 -33.32232,17.00202 -8.86133,6.64074 -13.93363,14.51612 -18.02498,27.98599 -1.94335,6.39804 -2.16121,8.83392 -1.69708,18.97479 0.29287,6.3989 1.97636,21.3094 3.74109,33.1344 3.93532,26.3695 3.74891,31.8601 -1.90426,56.0898 -2.25718,9.6744 -4.61055,21.3539 -5.22969,25.9545 -1.43432,10.6578 -0.62406,25.0012 1.77341,31.3937 2.79608,7.4554 11.14062,15.9121 19.73344,19.9988 12.41651,5.9053 23.06834,8.2611 63.61854,14.0702 53.46523,7.6593 72.59242,12.4708 103.75059,26.0986 44.71269,19.5563 64.20717,24.8042 96.67647,26.0255 19.11573,0.719 28.72481,-0.4239 39.35654,-4.681 18.60317,-7.4491 30.5675,-17.2539 42.18107,-34.5675 9.74338,-14.5256 10.50827,-17.2791 10.5231,-37.8826 0.0148,-20.5603 -0.76777,-23.5768 -12.06312,-46.5 -8.82917,-17.9182 -10.83098,-22.9937 -9.56736,-24.2573 1.14331,-1.1433 9.33811,2.9982 24.12811,12.1939 28.12754,17.4883 52.27166,25.9748 82.43828,28.9765 36.71912,3.6536 80.879,-2.2548 114.57632,-15.33 12.55522,-4.8717 32.99275,-15.6247 50.40322,-26.5193 16.59347,-10.3833 19.7545,-12.0638 22.69216,-12.0638 2.10042,0 2.16965,0.2899 1.61159,6.75 -0.3207,3.7125 -2.65567,16.3754 -5.18881,28.1398 -9.08423,42.1888 -10.82358,61.7862 -6.5776,74.1102 6.08908,17.6736 19.33487,37.383 32.05944,47.7036 6.96221,5.6469 18.37552,12.0209 26.5,14.7995 14.92588,5.1047 34.05958,5.5095 52,1.1001 z m -441.55025,-8.8999 c 5.8588,-1.093 4.34699,-1.2062 -16.5,-1.2354 -24.11257,-0.034 -32.08192,-0.8581 -48.44975,-5.0118 -13.44575,-3.4121 -15.03461,-3.7051 -10.5,-1.9361 5.48839,2.1411 21.42823,6.0496 30.5,7.4787 4.125,0.6498 8.175,1.3138 9,1.4754 4.25094,0.8329 30.35405,0.2732 35.94975,-0.7708 z m 9.77942,-2.3075 c -0.33229,-0.3323 -1.1948,-0.3678 -1.91667,-0.079 -0.79773,0.3192 -0.56078,0.5562 0.60417,0.6042 1.05416,0.043 1.64479,-0.193 1.3125,-0.5253 z M 493,1227.634 c 0,-0.2013 -2.8125,-1.3839 -6.25,-2.628 -3.4375,-1.2441 -15.475,-6.1935 -26.75,-10.9987 -24.77291,-10.5578 -31.82427,-13.1414 -46.33622,-16.9777 -14.33587,-3.7897 -32.93238,-7.1388 -64.11459,-11.5466 -21.27454,-3.0073 -30.27874,-4.5565 -46.54919,-8.0089 -2.24794,-0.477 -2.28778,-0.4355 -0.39517,0.4118 3.99767,1.7896 20.99081,4.9922 48.19808,9.0834 54.9381,8.2613 73.68749,13.1503 109.69709,28.6044 11.53946,4.9524 30.46831,12.3422 31.75,12.3953 0.4125,0.017 0.75,-0.1337 0.75,-0.335 z m 597,-19.134 c 1.8658,-1.925 3.1673,-3.5 2.8923,-3.5 -0.275,0 -2.0265,1.575 -3.8923,3.5 -1.8658,1.925 -3.1673,3.5 -2.8923,3.5 0.275,0 2.0265,-1.575 3.8923,-3.5 z m 41.0477,-38.4721 c 17.6096,-15.1561 30.5559,-23.5119 63.6436,-41.0765 26.1987,-13.9076 41.2973,-22.735 46.3087,-27.0743 2.9059,-2.5163 2.4816,-2.3663 -2.5,0.8836 -9.0191,5.8838 -17.7866,10.8348 -42,23.7172 -43.8146,23.3111 -55.0101,31.1937 -81.317,57.2543 -11.2805,11.1748 -12.948,13.017 -4.6056,5.0879 7.1926,-6.8362 16.4042,-15.2927 20.4703,-18.7922 z M 298.5,1176 c -2.74909,-1.1813 -4.32797,-1.1813 -2.5,0 0.825,0.5332 2.175,0.9446 3,0.9144 0.98906,-0.036 0.81874,-0.3477 -0.5,-0.9144 z m -7.58333,-2.3771 C 289.89864,1172.7016 282,1169.0102 282,1169.4558 c 0,0.6135 7.1555,4.4392 8.41667,4.5 0.50416,0.024 0.72916,-0.1255 0.5,-0.3329 z m 957.64623,-77.8729 2.9371,-3.25 -3.25,2.9371 c -1.7875,1.6154 -3.25,3.0779 -3.25,3.25 0,0.7726 0.8251,0.092 3.5629,-2.9371 z M 1444,1038.3277 c -7.6433,-0.7693 -16.3822,-2.4968 -20.0456,-3.9626 -2.8339,-1.1339 -4.1243,-2.383 -4.8601,-4.7044 -3.991,-12.5907 -18.3722,-105.73658 -22.6064,-146.41992 -1.8218,-17.50373 -1.3917,-19.59318 4.6154,-22.42169 4.3676,-2.05654 22.0266,-5.52918 51.8967,-10.20544 30.37,-4.75452 41.6138,-5.92847 51.8522,-5.41381 17.54,0.88169 24.563,7.17469 34.5143,30.9268 12.766,30.47057 25.6335,79.49572 25.6335,97.66373 0,14.22012 -6.4134,30.29223 -16.3275,40.91723 -13.4449,14.4091 -29.4145,20.5754 -60.1725,23.2344 -11.1894,0.9673 -36.5382,1.187 -44.5,0.3857 z m 50.5,-3.4045 c 12.9102,-1.292 21.5,-2.9383 21.5,-4.1207 0,-0.5155 0.9564,-0.6337 2.1252,-0.2628 1.526,0.4844 1.9137,0.3322 1.3748,-0.5397 -0.5451,-0.882 -0.1346,-1.0188 1.5,-0.5 1.4128,0.4484 2.0199,0.3412 1.631,-0.2881 -0.7129,-1.1534 2.0965,-2.4984 3.4592,-1.6561 0.5004,0.3092 0.9098,0.1 0.9098,-0.4654 0,-0.5652 0.6402,-0.782 1.4227,-0.4817 0.7825,0.3003 2.2825,-0.2764 3.3333,-1.2814 1.0509,-1.005 2.5472,-1.977 3.3252,-2.1599 2.4234,-0.5699 9.9045,-7.2082 14.0886,-12.5014 8.9509,-11.32381 13.1883,-23.47223 13.1378,-37.666 -0.077,-21.56046 -14.4207,-73.20532 -28.8561,-103.89479 -3.7374,-7.94559 -5.502,-10.5206 -9.0113,-13.15003 -2.4001,-1.79833 -4.0865,-3.71845 -3.7475,-4.26694 0.339,-0.54849 0.1374,-0.70127 -0.4479,-0.3395 -1.509,0.93257 -4.3633,-0.34791 -3.5845,-1.60803 0.3992,-0.64606 0.1618,-0.74877 -0.6176,-0.2671 -0.7385,0.45639 -1.6223,0.20816 -2.1203,-0.59549 -0.6559,-1.05833 -3.5885,-1.34532 -12.6382,-1.23677 -13.9975,0.1679 -28.6238,1.9768 -64.1884,7.93848 -40.2607,6.74889 -39.0958,6.25974 -39.0958,16.41652 0,14.74601 13.5981,109.89611 21.08,147.50365 1.4014,7.0438 2.5797,10.4983 3.986,11.6856 6.0413,5.1006 40.0394,6.8794 71.434,3.7376 z M 91.813007,1024.9972 C 76.71728,1024.0198 58.630693,1021.5268 51,1019.3716 42.149948,1016.8721 30.142324,1010.0647 23.310246,1003.6736 3.9919631,985.60231 2.3163893,956.97912 17.50657,904.53162 c 10.059137,-34.73143 20.252693,-57.1026 29.604827,-64.9719 1.745543,-1.46878 5.472064,-3.88308 8.281158,-5.36511 9.597552,-5.06352 25.662116,-3.63843 89.458605,7.93587 12.29313,2.23029 24.21813,4.60449 26.5,5.27601 l 4.14884,1.22093 -0.22409,8.43629 c -0.3727,14.03053 -7.63126,72.42271 -14.84678,119.43629 -4.76739,31.0625 -6.95147,41.4668 -9.17065,43.686 -4.09426,4.0942 -33.6159,6.4836 -59.445473,4.8112 z M 134,1021.6826 c 0,-0.4979 1.575,-0.6097 3.5,-0.2486 2.3686,0.4444 3.5,0.281 3.5,-0.5053 0,-0.6972 0.86127,-0.9367 2.15322,-0.5989 1.18427,0.3097 3.39512,-0.079 4.91299,-0.864 3.33947,-1.7269 3.56685,-2.6532 8.9517,-36.4658 8.88818,-55.81071 17.97533,-130.40676 16.1128,-132.26929 C 170.72624,848.32624 81.276127,833 69.647119,833 c -1.806264,0 -5.523651,0.66507 -8.260859,1.47793 -15.393818,4.57148 -24.244589,17.78664 -36.45184,54.42655 C 11.563669,929.03664 6.9695559,957.76737 10.92769,976.5 c 3.948173,18.68549 18.392533,33.3876 39.294259,39.9955 6.368245,2.0132 24.042404,4.7455 37.778051,5.8401 9.309827,0.742 46,0.2211 46,-0.653 z m 1437.116,-54.75661 c -0.3911,-12.05025 -18.6752,-73.34791 -28.9792,-97.1532 -5.3554,-12.37256 -13.5571,-21.64348 -23.1208,-26.13508 -5.8105,-2.72891 -7.7062,-3.08879 -18.2513,-3.46476 -13.6034,-0.48501 -24.362,0.69218 -48.7647,5.33576 -38.0035,7.23165 -74.1394,11.79986 -127,16.05497 -25.6325,2.06334 -55.4183,2.40656 -57.1727,0.6588 -3.32,-3.30742 2.2727,-5.99588 25.6727,-12.34124 16.845,-4.56784 53.4352,-14.998 82,-23.37439 10.45,-3.06438 29.35,-8.29597 42,-11.62576 12.65,-3.3298 27.275,-7.41813 32.5,-9.08519 32.0987,-10.24126 60.1798,-25.34816 77.0143,-41.43181 17.1972,-16.43009 23.4047,-29.47184 23.2579,-48.86409 -0.1246,-16.46651 -7.953,-34.6726 -27.7744,-64.59333 -19.238,-29.04007 -33.5917,-44.87378 -46.3915,-51.17512 -6.0744,-2.99039 -7.3121,-3.23155 -16.5853,-3.23155 -14.5477,0 -22.4247,2.98592 -86.7975,32.90246 -78.0916,36.29215 -124.784,56.41189 -140.9524,60.73628 -4.6346,1.23955 -7.7711,0.74884 -7.7711,-1.21578 0,-1.74316 7.7595,-8.59948 27.391,-24.20293 25.9062,-20.59066 44.3546,-35.81807 68.1304,-56.23505 11.5382,-9.90826 30.8786,-26.15973 42.9786,-36.11438 30.7374,-25.28762 44.883,-37.91109 60.5382,-54.02427 21.675,-22.30904 34.951,-41.62324 41.6208,-60.55072 3.134,-8.89387 4.2848,-26.25534 2.3905,-36.06378 -4.31,-22.31567 -22.2963,-40.60965 -65.6967,-66.82072 -43.5437,-26.29761 -61.0003,-29.79308 -79.4725,-15.91338 -6.0705,4.56133 -19.0965,18.56281 -37.2152,40.00227 -50.0857,59.26519 -127.7191,143.22108 -160.5556,173.63133 -15.4724,14.3291 -20.2322,16.7569 -18.64,9.50751 1.6971,-7.72694 42.9792,-72.19753 73.2257,-114.3572 30.3927,-42.36342 48.7703,-78.32338 57.3115,-112.14286 5.4156,-21.44357 6.1319,-36.52089 2.4215,-50.97254 -7.3831,-28.75635 -28.4624,-41.94489 -91.9282,-57.51623 -52.9903,-13.00118 -62.1478,-10.19858 -78.8852,24.14257 -8.8314,18.11999 -27.7255,59.64736 -46.2746,101.70742 -18.6687,42.33095 -21.72117,48.54829 -24.83832,50.59072 -6.20009,4.06246 -11.02968,-2.018 -16.51699,-20.79491 -6.23716,-21.3428 -7.41468,-33.1107 -9.43538,-94.29581 -2.79297,-84.56872 -4.88479,-110.90999 -11.19717,-141 C 953.53593,119.77415 941.11666,89.25214 927.1884,68.452802 900.06502,27.948948 859.6782,5.729565 806.5,2.054362 L 795.5,1.2941401 809.76698,1.14707 c 11.75768,-0.121203 16.24268,0.281039 25.5,2.2869963 C 883.192,13.81887 918.07212,41.151537 940.44176,85.85083 c 23.51313,46.98426 29.01498,80.70898 32.57078,199.64917 1.78436,59.68635 3.65435,77.96048 10.03962,98.11062 3.79304,11.96976 7.27553,18.38938 9.97581,18.38938 1.14145,0 2.96022,-1.54772 4.40672,-3.75 1.35468,-2.0625 10.53491,-21.975 20.40061,-44.25 42.6735,-96.34983 52.799,-117.31067 60.9042,-126.07748 7.7709,-8.40518 12.9014,-10.37332 26.7605,-10.26571 15.8966,0.12343 46.8063,6.8589 77.5553,16.89991 44.1423,14.41457 59.9447,32.66068 59.9447,69.21447 0,39.13905 -20.6989,87.8629 -61.6961,145.22881 -27.3348,38.24855 -56.6858,83.18404 -69.1208,105.8218 l -5.1204,9.3218 6.2186,-5.30448 C 1138.5882,537.2526 1228.3253,441.13394 1277.4461,383 c 21.228,-25.12307 36.3544,-41.66409 41.6959,-45.59533 11.9619,-8.80379 22.9278,-11.04012 36.8959,-7.52444 22.1205,5.56755 73.3785,36.62948 93.4331,56.61977 14.258,14.21225 20.1433,26.41323 21.224,44 2.4721,40.23293 -23.297,75.1825 -106.195,144.02781 -19.8,16.44354 -44.325,37.06519 -54.5,45.82588 -10.175,8.7607 -31.55,26.38564 -47.5,39.16654 -15.95,12.7809 -30.125,24.45402 -31.5,25.94027 l -2.5,2.70228 3,-0.69971 c 11.2715,-2.62891 59.7934,-23.57616 136.0443,-58.73131 72.5468,-33.44743 81.0846,-36.59016 95.9557,-35.32122 18.8446,1.60799 34.4713,15.78574 60.6592,55.03485 14.0057,20.99112 23.9836,40.40394 26.9874,52.50607 2.6211,10.56046 2.2012,25.03377 -1.019,35.12067 -7.3802,23.11797 -33.961,45.9816 -72.5216,62.3799 -15.639,6.65066 -30.4871,11.40342 -60.606,19.39957 -14.575,3.86946 -40.225,11.08016 -57,16.02378 -16.775,4.94362 -37.475,10.8603 -46,13.14817 -25.7886,6.92095 -35.9333,9.91209 -39.8074,11.73701 L 1270.5,860.5 l 11.5,0.28988 c 28.5051,0.71853 115.7614,-7.90144 155.7166,-15.3831 39.1542,-7.33165 41.5324,-7.65763 56.7834,-7.78324 17.7837,-0.14647 23.1785,0.97841 31.5715,6.58306 11.4823,7.66757 17.8189,19.34137 29.4709,54.2934 12.6387,37.912 18.2162,62.03865 16.1893,70.02977 -0.2992,1.17989 -0.5462,0.53654 -0.6157,-1.60378 z M 1.1425022,952.23302 C 0.98599781,938.76068 2.8655979,927.97621 9.4312834,904.67495 19.050343,870.53743 26.897554,851.49548 36.007146,840.18629 45.873956,827.93705 53.614433,824.61079 72,824.71938 c 12.512221,0.0739 17.676998,0.67001 50,5.771 55.34396,8.73398 145.25944,17.73333 163,16.31414 l 4.5,-0.35998 -4.5,-2.07079 c -2.475,-1.13893 -21.6,-6.90864 -42.5,-12.82156 C 129.7712,799.6595 115.58456,795.48292 102.5,790.33595 56.434682,772.21559 29.353716,747.81596 22.349865,718.12163 20.080952,708.50209 20.969244,693.88752 24.454211,683.5 31.599886,662.20114 51.447487,628.6533 66.847825,611.84329 72.389608,605.79423 90.894316,591.54141 97.5,588.23415 c 6.08704,-3.04758 15.07171,-4.5627 23,-3.87858 14.67256,1.26609 26.48972,5.72815 74.5,28.13061 C 283.40948,653.73964 384.37852,697 392.25399,697 396.03122,697 358.97488,666.99399 286,610.96187 c -35.72395,-27.42983 -49.90777,-39.15345 -65.76016,-54.354 -29.26152,-28.05829 -48.42211,-56.13003 -54.37219,-79.6594 -2.7716,-10.96019 -2.26268,-28.15929 1.11625,-37.724 4.47044,-12.65446 15.74857,-26.35793 32.0161,-38.90112 22.00397,-16.96631 58.15511,-37.79888 76.38179,-44.01601 10.82521,-3.69249 19.89308,-3.70156 27.91734,-0.0279 14.08156,6.44675 23.05291,15.02686 54.60175,52.22059 44.83733,52.85987 78.57963,90.71492 104.59912,117.34838 14.29966,14.63708 26.8684,26.36488 25.34755,23.65162 -6.18735,-11.03854 -12.936,-21.74085 -31.8442,-50.5 -73.5773,-111.91016 -92.38505,-146.57543 -98.47631,-181.5053 -1.9445,-11.15058 -1.95721,-28.26474 -0.028,-37.67932 2.29592,-11.20402 9.09032,-24.06639 16.67697,-31.57086 13.06919,-12.92765 19.80202,-16.18408 53.19708,-25.72951 37.24715,-10.64649 55.78417,-14.12556 70.72436,-13.27371 10.93689,0.6236 17.90541,3.69335 23.98283,10.56485 5.30215,5.99494 14.99188,25.88715 32.24378,66.19385 23.70668,55.38738 40.41419,89.98001 40.71947,84.30902 0.024,-0.44496 0.52459,-2.83402 1.11253,-5.30902 0.69285,-2.91665 1.33171,-39.33372 1.81568,-103.5 0.50288,-66.67368 1.13813,-102.10202 1.94547,-108.5 2.99569,-23.74028 7.18723,-37.76838 18.20685,-60.934054 23.4847,-49.370042 63.4183,-78.460717 122.30081,-89.0932218 8.27565,-1.4943466 14.82304,-1.9359677 27,-1.8211486 L 783.5,1.3031513 771.5,2.0438724 C 721.08497,5.1558289 681.6123,20.278887 653.3281,47.318757 637.68377,62.274841 627.82054,76.727958 617.50069,99.818604 607.79242,121.54082 604.1222,136.23375 601.96806,162 c -0.59091,7.06805 -1.18306,51.82728 -1.36265,103 -0.35616,101.48204 -0.80188,109 -6.46225,109 -3.55769,0 -16.87466,-27.35725 -43.28754,-88.92624 -17.137,-39.94673 -25.4943,-57.22614 -30.44956,-62.95702 -2.30038,-2.66044 -6.17111,-5.50971 -9.84805,-7.24921 -5.49712,-2.6006 -7.05271,-2.86603 -16.80147,-2.86674 -13.00349,-9.6e-4 -28.73449,2.88189 -54.94086,10.0684 -24.33782,6.6741 -40.91131,12.27496 -47.72982,16.12986 -7.65736,4.32915 -20.89843,17.84744 -24.81649,25.33606 -10.11872,19.33998 -10.33561,45.17846 -0.62452,74.39998 9.48005,28.52627 29.21501,62.67525 87.85787,152.02743 C 480.04494,530.40403 491,548.13396 491,550.64902 c 0,0.67812 -0.41224,1.48772 -0.91608,1.79912 -2.14865,1.32793 -6.87623,-2.15805 -19.22655,-14.17712 C 444.96375,513.07188 403.77483,467.19176 349.68242,403.29484 318.40004,366.34237 305.18362,356 289.24482,356 c -17.09948,0 -76.3403,33.75682 -101.63898,57.91629 -8.3485,7.97256 -14.41624,17.04262 -18.11861,27.08371 -2.33417,6.33044 -2.77848,9.13738 -2.84922,18 -0.0946,11.85031 1.43346,18.8449 6.86125,31.40735 7.94334,18.38461 21.94246,37.24329 43.9069,59.14844 18.41041,18.36072 31.33441,29.15048 76.59384,63.94532 43.49835,33.44094 94.03812,73.70834 98.78315,78.70515 3.34488,3.52236 3.54321,6.07079 0.56153,7.21497 C 388.07795,701.44226 293.27778,661.38208 196,616.0283 c -55.76739,-26.00041 -62.22055,-28.33934 -78.5,-28.4521 -8.53475,-0.0591 -12.09996,0.34806 -15.90806,1.81687 -7.434664,2.8676 -27.674836,18.61296 -35.292956,27.45531 -16.595497,19.26239 -37.24081,56.65546 -41.370183,74.93023 -0.586765,2.59676 -1.062088,8.8715 -1.056273,13.94385 0.03438,29.9879 24.359297,57.43305 68.627472,77.43053 16.21152,7.32332 29.36405,11.42643 107.0436,33.39376 81.04693,22.9196 89.30624,25.44595 92.00171,28.14142 3.04491,3.0449 1.09882,3.80301 -10.62679,4.13973 -26.18621,0.75197 -101.5406,-6.60594 -156.91852,-15.32218 -11.825,-1.8612 -25.1,-3.93878 -29.5,-4.61684 -4.4,-0.67807 -14.075,-1.26795 -21.5,-1.31086 -17.697767,-0.10228 -22.111549,1.32073 -30.5,9.83324 -9.408335,9.54748 -15.395572,20.79617 -22.449579,42.17777 C 9.8547167,910.49353 3.5648406,936.99091 2.0308861,955.5 l -0.7458818,9 z M 1405.2258,808.40477 c -3.5501,-1.81941 -7.3892,-6.32546 -11.4208,-13.40477 -7.4922,-13.15624 -52.2447,-121.39844 -56.0056,-135.46027 -1.2203,-4.56266 -1.1744,-4.81864 1.2162,-6.77995 6.0483,-4.9622 77.4461,-38.54645 100.6102,-47.32527 17.1216,-6.48883 28.7886,-5.95124 40.2501,1.85464 13.8096,9.40495 42.4496,47.87525 55.2478,74.21085 7.0185,14.44225 9.8763,24.84463 9.8763,35.94986 0,16.53496 -4.9338,27.50985 -18.4787,41.10485 -19.5872,19.65966 -47.4708,33.94524 -90.9604,46.60156 -16.4145,4.77696 -25.4621,5.74583 -30.3351,3.2485 z m 32.4675,-6.33556 c 39.7751,-11.56039 68.8828,-26.61096 87.2893,-45.13426 29.2568,-29.44236 23.721,-59.83528 -22.166,-121.69681 -10.1068,-13.62523 -21.8911,-25.21027 -29.3166,-28.82076 -5.2272,-2.5416 -7.0949,-2.91171 -14.5,-2.87332 -8.0508,0.0417 -9.2926,0.36628 -23.5,6.14204 -27.3591,11.12234 -88.859,40.13052 -94.7892,44.71 -1.7026,1.31487 -1.648,1.78573 1.1317,9.74277 7.3795,21.12462 40.3745,101.09245 50.074,121.36113 6.0202,12.58024 9.48,17.5065 14.5409,20.70398 4.3045,2.71961 10.4526,1.90577 31.2359,-4.13477 z M 151,797.43584 C 134.60393,793.64998 120.80185,789.3262 104.29429,782.80433 54.794853,763.2479 28.930402,736.75584 29.017364,705.70078 c 0.03957,-14.13141 4.752682,-27.25644 17.354717,-48.32926 15.713746,-26.27615 37.486869,-54.03082 48.156001,-61.38551 8.733738,-6.02053 20.478338,-7.4633 31.938778,-3.92353 20.6813,6.3878 99.4955,43.24604 108.42883,50.70782 l 3.3957,2.83633 -1.79955,5.44669 c -4.80446,14.54164 -44.2165,108.23462 -54.44537,129.43124 -3.24041,6.71489 -7.44213,13.85286 -9.33714,15.86216 -4.21097,4.46493 -6.57543,4.58355 -21.70933,1.08912 z m 18.85291,-1.96553 c 4.9758,-4.18685 13.18778,-21.41645 36.68563,-76.97031 5.35063,-12.65 14.16751,-34.02369 19.59308,-47.49709 l 9.86468,-24.4971 -2.24815,-1.72323 C 222.81871,636.40507 148.11855,601.56107 126,594.52331 c -6.81362,-2.16798 -9.64838,-2.58963 -14.28828,-2.12527 -9.79496,0.98029 -14.607705,3.77082 -24.924614,14.45181 -23.672175,24.50755 -50.356637,67.72364 -54.371535,88.05593 -5.921434,29.98739 12.541336,56.63756 53.346126,77.00271 21.092353,10.52693 47.233683,19.56307 69.738303,24.10609 11.65066,2.35193 10.87607,2.38131 14.35291,-0.54427 z M 273.64979,591.25 c -12.37629,-8.35939 -49.68418,-40.90908 -63.21008,-55.14836 -33.18039,-34.93036 -46.95361,-77.77893 -32.77702,-101.96946 12.17373,-20.7729 65.15342,-58.40299 97.46905,-69.22972 7.97023,-2.67027 10.39226,-3.06476 16.36166,-2.6649 16.32042,1.0932 23.81714,7.88632 72.63811,65.82066 11.34733,13.46553 25.18483,29.55777 30.75,35.76054 8.23583,9.1794 10.11849,11.85612 10.11849,14.38622 0,2.68819 -2.197,5.29081 -16.25,19.25013 C 353.70837,532.26315 284.32593,595 280.87237,595 c -0.91883,0 -4.16899,-1.6875 -7.22258,-3.75 z m 14.57453,-4.48916 c 29.97694,-25.70631 99.54837,-90.22407 109.43757,-101.48802 6.60461,-7.52275 6.54828,-7.99118 -2.06724,-17.19098 -5.82034,-6.21507 -13.76319,-15.43541 -52.22733,-60.62737 -20.0809,-23.59328 -32.80699,-36.05115 -40.8727,-40.01124 -11.63572,-5.71289 -22.70773,-3.79531 -45.8924,7.94821 -32.30966,16.36551 -68.85122,45.27976 -77.26945,61.14101 -8.31651,15.66961 -6.06814,36.1298 6.77969,61.6952 7.69551,15.313 18.0282,28.9067 32.51166,42.77235 21.79503,20.86534 58.91187,51.94313 62.1002,51.99626 0.12338,0.002 3.49838,-2.80388 7.5,-6.23542 z M 1309.5,531.76029 c -52.8757,-49.17338 -78.5,-74.42465 -78.5,-77.35715 0,-3.43515 28.4286,-38.71915 63.5729,-78.90314 29.6876,-33.94476 34.4986,-37.69687 49.162,-38.3418 10.4989,-0.46177 18.4679,1.84878 34.4648,9.99291 37.1958,18.93656 72.5585,47.07974 80.766,64.27709 14.986,31.40019 -5.1074,75.52695 -54.5345,119.76265 -22.3896,20.03799 -48.0258,38.93777 -52.5668,38.75391 -0.7504,-0.0304 -19.8144,-17.21339 -42.3644,-38.18447 z m 72.992,14.81858 c 32.6072,-26.02303 58.0249,-54.32833 69.5441,-77.44477 11.1294,-22.33425 12.477,-40.32593 4.2792,-57.1341 -6.2523,-12.81938 -26.944,-31.41349 -52.9862,-47.61487 -39.0305,-24.28161 -55.8753,-29.64008 -70.8291,-22.53121 -4.5844,2.17939 -8.4777,5.42323 -16.5017,13.74921 -16.4556,17.07498 -65.5968,74.90999 -80.4194,94.64687 l -2.8163,3.75 2.623,3.43889 c 3.177,4.16528 45.0595,44.04163 86.4688,82.32692 l 30.3543,28.06441 7.6376,-4.6369 c 4.2007,-2.5503 14.3912,-10.0268 22.6457,-16.61445 z m -237.0057,-98.20158 c -38.1165,-20.77401 -116.4673,-66.78545 -121.2255,-71.18952 -4.2597,-3.94269 -2.9828,-9.50922 7.7274,-33.68777 5.1162,-11.55 15.8882,-36.32882 23.9378,-55.06405 15.1832,-35.33879 20.9445,-46.71756 27.3353,-53.98893 7.4636,-8.49204 17.2094,-10.77152 34.2387,-8.00824 23.2295,3.76936 64.0727,14.19596 78.9699,20.15974 30.5687,12.23745 44.2189,39.67525 38.0616,76.50592 -3.6012,21.54088 -16.1037,51.11185 -36.3165,85.89556 -14.1463,24.34415 -31.7889,47 -36.5999,47 -1.1784,0 -8.4364,-3.43022 -16.1288,-7.62271 z m 22.4183,-0.19888 c 14.8263,-15.15206 42.6004,-62.8444 55.4923,-95.28842 12.633,-31.79252 13.7258,-57.45409 3.2956,-77.38999 -4.5485,-8.69387 -14.481,-18.21414 -24.1925,-23.18842 -18.5115,-9.48169 -77.942,-24.50281 -97,-24.51686 -18.8199,-0.0139 -23.9068,6.68106 -48.0241,63.20528 -6.4534,15.125 -16.1856,37.54384 -21.6271,49.81965 -10.2313,23.08109 -12.6111,29.75135 -11.5767,32.44693 0.7969,2.07674 8.3076,7.07688 30.7279,20.45664 32.004,19.09902 104.6093,60.24027 106.3541,60.26478 0.4697,0.007 3.4174,-2.60772 6.5505,-5.80959 z m -737.348,-5.46332 C 416.16668,427.67544 390.06598,384.16478 377.03922,353.5 368.19129,332.67212 364.85523,318.95294 364.2729,301 c -0.55277,-17.04202 0.79314,-24.5272 6.29176,-34.99109 3.22618,-6.13943 11.65447,-15.74149 17.15701,-19.54639 C 403.42221,235.6059 469.72237,217 492.70824,217 c 7.98438,0 9.70165,0.33344 14.42477,2.80083 10.61579,5.54575 17.43292,16.79553 34.66148,57.19917 5.51137,12.925 13.47544,31.15 17.69794,40.5 11.35966,25.15397 17.80737,41.50723 17.91345,45.43362 0.087,3.22045 -0.43515,3.85055 -6.90588,8.33352 -11.444,7.92849 -36.70051,23.09416 -81.64172,49.02308 -23.29705,13.44128 -43.79843,25.17468 -45.55862,26.07423 -5.22267,2.66907 -7.25427,2.08726 -12.74306,-3.64936 z M 470.5,428.02279 c 15.95,-9.18423 35.525,-20.43494 43.5,-25.00157 20.12664,-11.52487 42.85709,-25.28123 53.26076,-32.23317 8.15339,-5.44825 8.7156,-6.04247 8.10925,-8.57108 -1.06677,-4.44871 -7.69037,-20.59477 -15.88287,-38.71697 -4.22686,-9.35 -13.28255,-30.05 -20.12376,-46 -13.59119,-31.68729 -18.5373,-41.21264 -25.3431,-48.80646 -6.09457,-6.80023 -12.486,-9.67369 -21.52028,-9.67508 -17.7471,-0.003 -79.70727,16.63223 -97.99446,26.3094 -8.20047,4.33951 -18.3923,14.61803 -22.27451,22.464 -9.44009,19.07846 -7.86797,47.74241 4.29638,78.33426 10.82767,27.23029 33.26229,66.52065 51.15524,89.58958 6.99248,9.01522 8.82527,10.50512 11.81735,9.60642 1.1,-0.33039 15.05,-8.11509 31,-17.29933 z m 247.54168,17.51797 c -13.87793,-2.64271 -23.3885,-8.47997 -54.3086,-33.33273 -6.7282,-5.40794 -14.33785,-11.31987 -16.91034,-13.13761 -2.57249,-1.81774 -5.21766,-4.60964 -5.87816,-6.20422 -2.42353,-5.85092 1.55459,-17.13495 6.23139,-17.67548 2.85269,-0.3297 4.77264,0.72977 21.49393,11.86077 20.81816,13.85821 36.31379,18.92303 57.94911,18.94096 25.05065,0.0207 40.9816,-5.79188 87.20073,-31.81638 C 827.39388,366.53291 840.525,359.19526 843,357.8702 c 4.74496,-2.54036 5.88646,-5.17175 2.45648,-5.66269 -2.38022,-0.34069 -19.40318,8.28926 -37.95648,19.24238 -26.45888,15.62026 -46.93077,24.51196 -63.5,27.58042 -3.575,0.66205 -11.9,1.21331 -18.5,1.22501 -15.05811,0.0267 -26.41926,-2.52699 -39,-8.76616 -9.72704,-4.82393 -28.5,-18.64151 -28.5,-20.97704 0,-0.82422 5.00097,-3.99279 11.75,-7.44469 6.4625,-3.30536 13.82488,-7.71022 16.36084,-9.78858 8.69244,-7.12396 22.77018,-27.29794 32.06836,-45.95529 l 4.07485,-8.17643 -2.17743,-3.52316 c -3.93171,-6.36164 -11.73639,-9.62862 -17.37454,-7.27285 -1.82311,0.76174 -8.0144,6.07015 -13.75842,11.79645 -5.91549,5.89725 -18.43591,16.4579 -28.87678,24.35681 -10.13822,7.66994 -21.75139,17.02209 -25.80706,20.78256 -8.25741,7.65637 -11.49563,8.5331 -12.09444,3.27448 -0.29179,-2.56243 0.8027,-4.03444 8.55068,-11.5 17.11594,-16.49206 57.56417,-48.29402 69.30027,-54.48656 8.66215,-4.57058 19.48081,-7.48937 30.53283,-8.23754 16.68127,-1.12924 25.06341,1.49191 64.34363,20.12066 11.21604,5.31923 26.96604,12.36781 35,15.66351 40.54843,16.63382 54.23883,31.50315 47.50291,51.59356 -4.07741,12.16121 -16.66684,26.68073 -31.95311,36.85186 -10.43882,6.94576 -79.54698,42.4595 -88.4053,45.43028 -8.44377,2.83176 -28.1372,3.61129 -38.99561,1.54357 z M 757,441.36071 c 4.125,-1.36603 12.45,-5.09445 18.5,-8.28538 6.05,-3.19093 21.8,-11.32869 35,-18.0839 29.65713,-15.17729 38.63335,-20.95999 49.58849,-31.94612 11.04522,-11.07645 16.4363,-21.12103 16.36632,-30.49345 -0.058,-7.77263 -2.62753,-12.76326 -9.91592,-19.2593 C 858.77714,326.37463 848.7339,320.8953 825.56029,310.9357 814.52713,306.19384 797.4,298.46673 787.5,293.76434 c -28.61709,-13.59282 -35.40028,-16.09172 -47,-17.31463 -12.27531,-1.29413 -31.11856,3.04467 -42.08331,9.69001 -16.93968,10.26652 -69.72345,53.68524 -73.02406,60.06792 -2.28975,4.42788 0.32091,3.50984 6.60737,-2.32349 5.44013,-5.048 8.66564,-7.6176 35,-27.88269 7.425,-5.71376 17.82473,-14.76937 23.1105,-20.12358 10.68034,-10.81859 13.59839,-12.1805 21.21125,-9.89963 4.80037,1.43823 11.24341,7.44101 12.23734,11.40117 0.82428,3.2842 -0.83001,7.33446 -8.42231,20.62058 -15.86283,27.75913 -23.90721,36.548 -42.07331,45.96709 l -12.38088,6.41947 3.90871,3.40873 c 11.00435,9.59678 24.21344,17.19212 36.9087,21.2228 5.25237,1.66761 10.37043,2.34571 20.5,2.71608 26.7576,0.97836 42.67868,-4.38029 84,-28.27236 31.34415,-18.12325 39.8978,-21.69973 42.98922,-17.9748 2.7206,3.27812 0.38098,6.11931 -9.05009,10.99027 -4.99152,2.57802 -17.70731,9.61213 -28.25731,15.63136 C 766.93584,403.63816 751.7086,408.69474 722.5,407.72367 700.28176,406.985 686.94634,402.43709 666.74936,388.71046 655.57449,381.1156 648.75573,377 647.34735,377 c -1.29032,0 -4.04408,5.86651 -4.90308,10.44535 -0.83052,4.4271 -1.57934,3.69983 27.80078,27.00058 22.02462,17.46726 28.30679,21.63727 39.10465,25.9571 12.80342,5.12217 33.80046,5.54417 47.6503,0.95768 z M 642.92879,312.5217 c -5.2694,-2.86549 -14.0371,-19.58725 -18.10072,-34.5217 -2.00539,-7.3701 -2.31273,-10.82627 -2.31208,-26 6.5e-4,-15.27439 0.29327,-18.51742 2.30089,-25.5 5.19943,-18.0839 14.68228,-31.66159 25.9699,-37.18411 11.36064,-5.55824 25.14737,-2.94839 35.67186,6.75275 13.3911,12.34349 24.48564,39.35293 24.52822,59.71348 0.0219,10.46632 -3.13929,15.929 -11.48686,19.84985 -10.36293,4.86745 -13.3074,2.88246 -16.49769,-11.12181 -3.33209,-14.62675 -9.86135,-25.55228 -17.04988,-28.52986 -2.26519,-0.93828 -3.45274,-0.83672 -6.36263,0.54411 -5.83756,2.7701 -9.19931,7.46357 -10.9923,15.34675 -3.2976,14.49843 -1.62775,30.16854 4.56578,42.84587 4.67293,9.56486 4.58887,11.53738 -0.68916,16.17155 -3.89791,3.42241 -5.69088,3.72917 -9.54533,1.63312 z m 8.61666,-3.97625 c 3.22259,-3.22259 3.09735,-6.43654 -0.49922,-12.8106 -4.06837,-7.21022 -6.01398,-16.38294 -6.03145,-28.43563 -0.0257,-17.75599 2.93516,-26.40898 10.72765,-31.35083 2.55702,-1.62162 5.97041,-2.94839 7.58532,-2.94839 8.75025,0 17.99915,12.87734 21.78557,30.33229 1.15647,5.33117 2.75976,9.94849 3.83121,11.03345 1.76593,1.7882 2.05491,1.79518 6.95414,0.16792 10.03434,-3.33288 13.87404,-10.31445 12.6279,-22.96081 -2.53918,-25.76865 -16.73288,-52.26852 -31.88399,-59.52791 -2.98082,-1.42821 -7.46213,-2.51372 -11.59953,-2.80975 -5.83796,-0.4177 -7.57249,-0.10974 -12.93407,2.29639 -11.44106,5.13444 -20.46291,18.1378 -25.30212,36.46842 -1.86869,7.07846 -2.24107,11.09222 -2.22664,24 0.0208,18.61302 2.03704,28.25303 8.85717,42.3481 7.67359,15.85888 12.59107,19.71435 18.10806,14.19735 z M 845,309.64925 c -14.90006,-5.29196 -15.86366,-6.5549 -13.30851,-17.44284 C 833.11901,286.12348 833.5,280.28667 833.5,264.5 c 0,-18.56897 -0.15422,-20.28797 -2.15534,-24.02462 -2.44293,-4.56161 -10.48883,-12.46433 -15.1378,-14.86841 -7.54729,-3.90285 -14.87146,-1.05919 -21.42217,8.31732 -4.77471,6.83439 -7.4826,14.08115 -9.81241,26.25963 C 782.32333,274.03067 780.48453,277 774.55868,277 c -3.54574,0 -14.38248,-6.03529 -17.77543,-9.89964 l -3.05981,-3.48494 0.55477,-11.55771 c 1.32617,-27.62874 8.19227,-44.62557 24.6787,-61.09136 23.60202,-23.57246 52.4214,-22.64386 75.72727,2.44005 11.68404,12.57543 17.00797,23.64306 19.92295,41.41674 1.91671,11.68682 1.37979,35.89108 -1.03542,46.67686 -1.67884,7.49733 -8.13602,21.92527 -12.19565,27.25 -3.07821,4.03746 -6.94262,4.24967 -16.37606,0.89925 z m 13.95915,-1.83578 c 3.76886,-4.04539 10.8897,-20.08167 12.57248,-28.31347 4.8786,-23.86503 1.76287,-53.94459 -7.19073,-69.42009 -7.56532,-13.076 -19.56773,-24.45595 -31.9885,-30.32955 -6.21811,-2.94045 -7.68548,-3.23245 -15.8524,-3.15454 -15.41821,0.14709 -29.40026,7.31115 -40.57501,20.78964 -10.43487,12.58608 -15.68232,24.8717 -18.41516,43.11454 -2.15505,14.38584 -1.99839,21.60918 0.53861,24.83446 2.46591,3.13488 16.23911,10.15291 18.34194,9.34598 2.71657,-1.04245 4.63524,-5.29456 6.06918,-13.45042 2.88992,-16.43708 6.64266,-25.21774 14.25665,-33.35771 5.47972,-5.85827 10.00624,-7.56268 15.88247,-5.98037 9.18066,2.47209 20.11865,12.86414 22.54561,21.4203 1.91727,6.75923 1.54758,34.39874 -0.62191,46.49684 -1.83312,10.22235 -1.83185,10.32589 0.15035,12.30809 1.98791,1.98791 17.27135,7.84391 20.53831,7.86945 0.94108,0.007 2.62773,-0.97056 3.74811,-2.17315 z"
     id="path933"
     inkscape:connector-curvature="0" />
</svg>
